<svg width="735" height="74" viewBox="0 0 735 74" fill="none" xmlns="http://www.w3.org/2000/svg">
<mask id="path-1-outside-1_16_904" maskUnits="userSpaceOnUse" x="0" y="0" width="735" height="74" fill="black">
<rect fill="white" width="735" height="74"/>
<path d="M3 70.049V3.95105H31.6155C41.2491 3.95105 48.9496 6.8993 54.7171 12.7958C60.5479 18.6289 63.4634 26.7445 63.4634 37.1427C63.4634 47.5408 60.5479 55.6247 54.7171 61.3944C48.9496 67.1641 41.2491 70.049 31.6155 70.049H3ZM18.4961 56.2587H30.0944C35.6718 56.2587 40.0132 54.642 43.1188 51.4084C46.2877 48.1114 47.8722 43.2928 47.8722 36.9524C47.8722 30.6121 46.2877 25.8252 43.1188 22.5916C40.0132 19.358 35.6718 17.7413 30.0944 17.7413H18.4961V56.2587Z"/>
<path d="M70.1233 70.049V3.95105H122.981V17.3608H85.6194V29.2489H117.657V42.6587H85.3342V56.449H122.981V70.049H70.1233Z"/>
<path d="M157.774 71C149.788 71 143.102 69.1296 137.715 65.3888C132.391 61.5846 129.19 56.0685 128.113 48.8406L143.514 47.5091C144.148 50.8695 145.732 53.4373 148.267 55.2126C150.866 56.9245 154.066 57.7804 157.869 57.7804C161.672 57.7804 164.619 57.1147 166.71 55.7832C168.865 54.4517 169.943 52.7399 169.943 50.6476C169.943 48.682 169.214 47.1921 167.756 46.1776C166.362 45.0998 163.922 44.3389 160.436 43.8951L149.218 42.2783C142.943 41.3907 138.063 39.3301 134.577 36.0965C131.155 32.7995 129.444 28.6149 129.444 23.5427C129.444 17.5828 131.852 12.669 136.669 8.8014C141.549 4.9338 147.855 3 155.587 3C163.446 3 169.784 4.9021 174.601 8.7063C179.481 12.5105 182.048 18.2485 182.302 25.9203L167.566 26.9664C167.249 23.4159 166.045 20.7212 163.953 18.8825C161.862 17.0438 159.073 16.1245 155.587 16.1245C152.292 16.1245 149.63 16.8219 147.602 18.2168C145.637 19.6117 144.655 21.3869 144.655 23.5427C144.655 26.7762 147.063 28.7734 151.88 29.5343L164.999 31.4364C178.435 33.3385 185.154 39.7105 185.154 50.5524C185.154 56.8294 182.682 61.8065 177.738 65.4839C172.795 69.1613 166.14 71 157.774 71Z"/>
<path d="M192.486 70.049V3.95105H207.983V70.049H192.486Z"/>
<path d="M244.279 70.9049C235.342 70.9049 228.149 67.8615 222.698 61.7748C217.311 55.6881 214.617 47.4457 214.617 37.0476C214.617 26.9664 217.533 18.7874 223.364 12.5105C229.258 6.17016 237.053 3 246.75 3C255.623 3 262.69 5.37762 267.951 10.1329C273.211 14.8881 276.285 21.482 277.172 29.9147L262.342 30.9608C261.835 26.3958 260.218 22.8135 257.493 20.214C254.831 17.6145 251.282 16.3147 246.845 16.3147C241.585 16.3147 237.402 18.2485 234.296 22.1161C231.254 25.9837 229.733 30.9608 229.733 37.0476C229.733 43.1977 231.223 48.2065 234.201 52.0741C237.18 55.9417 241.078 57.8755 245.895 57.8755C252.993 57.8755 257.651 54.6737 259.87 48.2699H245.8V36.3818H277.647V70.049H267.76L266.144 57.8755C261.708 66.5618 254.419 70.9049 244.279 70.9049Z"/>
<path d="M285.605 70.049V3.95105H305.474L330.762 50.7427V3.95105H346.068V70.049H326.199L313.555 46.7958L300.911 23.5427V70.049H285.605Z"/>
<path d="M355.699 70.049V3.95105H408.557V17.3608H371.195V29.2489H403.233V42.6587H370.91V56.449H408.557V70.049H355.699Z"/>
<path d="M418.465 70.049V37V3.95105H459.051C465.959 3.95105 471.568 5.59953 475.878 8.89651C480.251 12.1301 482.437 16.9487 482.437 23.3524C482.437 27.6639 480.948 31.4047 477.969 34.5748C475.054 37.6816 470.744 39.6471 465.04 40.4713C469.413 41.042 472.804 42.5002 475.212 44.8461C477.684 47.1287 479.522 50.2037 480.726 54.0713L485.765 70.049H470.554L466.371 56.3538C464.216 49.2527 459.938 45.7021 453.537 45.7021H442.319V70.049H418.465ZM442.319 32.8629H456.579C464.058 32.8629 467.797 30.2 467.797 24.8741C467.797 19.4849 464.058 16.7902 456.579 16.7902H442.319V32.8629Z"/>
<path d="M518.049 70.9993L544.573 4.9013H561.685L588.304 70.9993H571.477L566.249 56.6384H540.105L534.876 70.9993H518.049ZM544.383 44.0845H561.876L553.129 20.4985L544.383 44.0845Z"/>
<path d="M594.583 70.9993V4.9014L621.401 4.9013L646.689 51.6929V4.9013H661.995V70.9993H642.126L616.838 24.4929V70.9993H594.583Z"/>
<path d="M671.537 70.9994V4.9014H700.152C709.786 4.9014 717.486 7.84966 723.254 13.7462C729.085 19.5793 732 27.6949 732 38.093C732 48.4912 729.085 56.5751 723.254 62.3448C717.486 68.1145 709.786 70.9994 700.152 70.9994H671.537ZM687.033 57.2091H698.631C704.208 57.2091 708.55 55.5924 711.655 52.3588C714.824 49.0618 716.409 44.2432 716.409 37.9028C716.409 31.5625 714.824 26.7755 711.655 23.542C708.55 20.3084 704.208 18.6916 698.631 18.6916H687.033V57.2091Z"/>
</mask>
<path d="M3 70.049V3.95105H31.6155C41.2491 3.95105 48.9496 6.8993 54.7171 12.7958C60.5479 18.6289 63.4634 26.7445 63.4634 37.1427C63.4634 47.5408 60.5479 55.6247 54.7171 61.3944C48.9496 67.1641 41.2491 70.049 31.6155 70.049H3ZM18.4961 56.2587H30.0944C35.6718 56.2587 40.0132 54.642 43.1188 51.4084C46.2877 48.1114 47.8722 43.2928 47.8722 36.9524C47.8722 30.6121 46.2877 25.8252 43.1188 22.5916C40.0132 19.358 35.6718 17.7413 30.0944 17.7413H18.4961V56.2587Z" fill="#171717"/>
<path d="M70.1233 70.049V3.95105H122.981V17.3608H85.6194V29.2489H117.657V42.6587H85.3342V56.449H122.981V70.049H70.1233Z" fill="#171717"/>
<path d="M157.774 71C149.788 71 143.102 69.1296 137.715 65.3888C132.391 61.5846 129.19 56.0685 128.113 48.8406L143.514 47.5091C144.148 50.8695 145.732 53.4373 148.267 55.2126C150.866 56.9245 154.066 57.7804 157.869 57.7804C161.672 57.7804 164.619 57.1147 166.71 55.7832C168.865 54.4517 169.943 52.7399 169.943 50.6476C169.943 48.682 169.214 47.1921 167.756 46.1776C166.362 45.0998 163.922 44.3389 160.436 43.8951L149.218 42.2783C142.943 41.3907 138.063 39.3301 134.577 36.0965C131.155 32.7995 129.444 28.6149 129.444 23.5427C129.444 17.5828 131.852 12.669 136.669 8.8014C141.549 4.9338 147.855 3 155.587 3C163.446 3 169.784 4.9021 174.601 8.7063C179.481 12.5105 182.048 18.2485 182.302 25.9203L167.566 26.9664C167.249 23.4159 166.045 20.7212 163.953 18.8825C161.862 17.0438 159.073 16.1245 155.587 16.1245C152.292 16.1245 149.63 16.8219 147.602 18.2168C145.637 19.6117 144.655 21.3869 144.655 23.5427C144.655 26.7762 147.063 28.7734 151.88 29.5343L164.999 31.4364C178.435 33.3385 185.154 39.7105 185.154 50.5524C185.154 56.8294 182.682 61.8065 177.738 65.4839C172.795 69.1613 166.14 71 157.774 71Z" fill="#171717"/>
<path d="M192.486 70.049V3.95105H207.983V70.049H192.486Z" fill="#171717"/>
<path d="M244.279 70.9049C235.342 70.9049 228.149 67.8615 222.698 61.7748C217.311 55.6881 214.617 47.4457 214.617 37.0476C214.617 26.9664 217.533 18.7874 223.364 12.5105C229.258 6.17016 237.053 3 246.75 3C255.623 3 262.69 5.37762 267.951 10.1329C273.211 14.8881 276.285 21.482 277.172 29.9147L262.342 30.9608C261.835 26.3958 260.218 22.8135 257.493 20.214C254.831 17.6145 251.282 16.3147 246.845 16.3147C241.585 16.3147 237.402 18.2485 234.296 22.1161C231.254 25.9837 229.733 30.9608 229.733 37.0476C229.733 43.1977 231.223 48.2065 234.201 52.0741C237.18 55.9417 241.078 57.8755 245.895 57.8755C252.993 57.8755 257.651 54.6737 259.87 48.2699H245.8V36.3818H277.647V70.049H267.76L266.144 57.8755C261.708 66.5618 254.419 70.9049 244.279 70.9049Z" fill="#171717"/>
<path d="M285.605 70.049V3.95105H305.474L330.762 50.7427V3.95105H346.068V70.049H326.199L313.555 46.7958L300.911 23.5427V70.049H285.605Z" fill="#171717"/>
<path d="M355.699 70.049V3.95105H408.557V17.3608H371.195V29.2489H403.233V42.6587H370.91V56.449H408.557V70.049H355.699Z" fill="#171717"/>
<path d="M418.465 70.049V37V3.95105H459.051C465.959 3.95105 471.568 5.59953 475.878 8.89651C480.251 12.1301 482.437 16.9487 482.437 23.3524C482.437 27.6639 480.948 31.4047 477.969 34.5748C475.054 37.6816 470.744 39.6471 465.04 40.4713C469.413 41.042 472.804 42.5002 475.212 44.8461C477.684 47.1287 479.522 50.2037 480.726 54.0713L485.765 70.049H470.554L466.371 56.3538C464.216 49.2527 459.938 45.7021 453.537 45.7021H442.319V70.049H418.465ZM442.319 32.8629H456.579C464.058 32.8629 467.797 30.2 467.797 24.8741C467.797 19.4849 464.058 16.7902 456.579 16.7902H442.319V32.8629Z" fill="#171717"/>
<path d="M518.049 70.9993L544.573 4.9013H561.685L588.304 70.9993H571.477L566.249 56.6384H540.105L534.876 70.9993H518.049ZM544.383 44.0845H561.876L553.129 20.4985L544.383 44.0845Z" fill="#171717"/>
<path d="M594.583 70.9993V4.9014L621.401 4.9013L646.689 51.6929V4.9013H661.995V70.9993H642.126L616.838 24.4929V70.9993H594.583Z" fill="#171717"/>
<path d="M671.537 70.9994V4.9014H700.152C709.786 4.9014 717.486 7.84966 723.254 13.7462C729.085 19.5793 732 27.6949 732 38.093C732 48.4912 729.085 56.5751 723.254 62.3448C717.486 68.1145 709.786 70.9994 700.152 70.9994H671.537ZM687.033 57.2091H698.631C704.208 57.2091 708.55 55.5924 711.655 52.3588C714.824 49.0618 716.409 44.2432 716.409 37.9028C716.409 31.5625 714.824 26.7755 711.655 23.542C708.55 20.3084 704.208 18.6916 698.631 18.6916H687.033V57.2091Z" fill="#171717"/>
<path d="M3 70.049V3.95105H31.6155C41.2491 3.95105 48.9496 6.8993 54.7171 12.7958C60.5479 18.6289 63.4634 26.7445 63.4634 37.1427C63.4634 47.5408 60.5479 55.6247 54.7171 61.3944C48.9496 67.1641 41.2491 70.049 31.6155 70.049H3ZM18.4961 56.2587H30.0944C35.6718 56.2587 40.0132 54.642 43.1188 51.4084C46.2877 48.1114 47.8722 43.2928 47.8722 36.9524C47.8722 30.6121 46.2877 25.8252 43.1188 22.5916C40.0132 19.358 35.6718 17.7413 30.0944 17.7413H18.4961V56.2587Z" stroke="url(#paint0_linear_16_904)" stroke-width="6" mask="url(#path-1-outside-1_16_904)"/>
<path d="M70.1233 70.049V3.95105H122.981V17.3608H85.6194V29.2489H117.657V42.6587H85.3342V56.449H122.981V70.049H70.1233Z" stroke="url(#paint1_linear_16_904)" stroke-width="6" mask="url(#path-1-outside-1_16_904)"/>
<path d="M157.774 71C149.788 71 143.102 69.1296 137.715 65.3888C132.391 61.5846 129.19 56.0685 128.113 48.8406L143.514 47.5091C144.148 50.8695 145.732 53.4373 148.267 55.2126C150.866 56.9245 154.066 57.7804 157.869 57.7804C161.672 57.7804 164.619 57.1147 166.71 55.7832C168.865 54.4517 169.943 52.7399 169.943 50.6476C169.943 48.682 169.214 47.1921 167.756 46.1776C166.362 45.0998 163.922 44.3389 160.436 43.8951L149.218 42.2783C142.943 41.3907 138.063 39.3301 134.577 36.0965C131.155 32.7995 129.444 28.6149 129.444 23.5427C129.444 17.5828 131.852 12.669 136.669 8.8014C141.549 4.9338 147.855 3 155.587 3C163.446 3 169.784 4.9021 174.601 8.7063C179.481 12.5105 182.048 18.2485 182.302 25.9203L167.566 26.9664C167.249 23.4159 166.045 20.7212 163.953 18.8825C161.862 17.0438 159.073 16.1245 155.587 16.1245C152.292 16.1245 149.63 16.8219 147.602 18.2168C145.637 19.6117 144.655 21.3869 144.655 23.5427C144.655 26.7762 147.063 28.7734 151.88 29.5343L164.999 31.4364C178.435 33.3385 185.154 39.7105 185.154 50.5524C185.154 56.8294 182.682 61.8065 177.738 65.4839C172.795 69.1613 166.14 71 157.774 71Z" stroke="url(#paint2_linear_16_904)" stroke-width="6" mask="url(#path-1-outside-1_16_904)"/>
<path d="M192.486 70.049V3.95105H207.983V70.049H192.486Z" stroke="url(#paint3_linear_16_904)" stroke-width="6" mask="url(#path-1-outside-1_16_904)"/>
<path d="M244.279 70.9049C235.342 70.9049 228.149 67.8615 222.698 61.7748C217.311 55.6881 214.617 47.4457 214.617 37.0476C214.617 26.9664 217.533 18.7874 223.364 12.5105C229.258 6.17016 237.053 3 246.75 3C255.623 3 262.69 5.37762 267.951 10.1329C273.211 14.8881 276.285 21.482 277.172 29.9147L262.342 30.9608C261.835 26.3958 260.218 22.8135 257.493 20.214C254.831 17.6145 251.282 16.3147 246.845 16.3147C241.585 16.3147 237.402 18.2485 234.296 22.1161C231.254 25.9837 229.733 30.9608 229.733 37.0476C229.733 43.1977 231.223 48.2065 234.201 52.0741C237.18 55.9417 241.078 57.8755 245.895 57.8755C252.993 57.8755 257.651 54.6737 259.87 48.2699H245.8V36.3818H277.647V70.049H267.76L266.144 57.8755C261.708 66.5618 254.419 70.9049 244.279 70.9049Z" stroke="url(#paint4_linear_16_904)" stroke-width="6" mask="url(#path-1-outside-1_16_904)"/>
<path d="M285.605 70.049V3.95105H305.474L330.762 50.7427V3.95105H346.068V70.049H326.199L313.555 46.7958L300.911 23.5427V70.049H285.605Z" stroke="url(#paint5_linear_16_904)" stroke-width="6" mask="url(#path-1-outside-1_16_904)"/>
<path d="M355.699 70.049V3.95105H408.557V17.3608H371.195V29.2489H403.233V42.6587H370.91V56.449H408.557V70.049H355.699Z" stroke="url(#paint6_linear_16_904)" stroke-width="6" mask="url(#path-1-outside-1_16_904)"/>
<path d="M418.465 70.049V37V3.95105H459.051C465.959 3.95105 471.568 5.59953 475.878 8.89651C480.251 12.1301 482.437 16.9487 482.437 23.3524C482.437 27.6639 480.948 31.4047 477.969 34.5748C475.054 37.6816 470.744 39.6471 465.04 40.4713C469.413 41.042 472.804 42.5002 475.212 44.8461C477.684 47.1287 479.522 50.2037 480.726 54.0713L485.765 70.049H470.554L466.371 56.3538C464.216 49.2527 459.938 45.7021 453.537 45.7021H442.319V70.049H418.465ZM442.319 32.8629H456.579C464.058 32.8629 467.797 30.2 467.797 24.8741C467.797 19.4849 464.058 16.7902 456.579 16.7902H442.319V32.8629Z" stroke="url(#paint7_linear_16_904)" stroke-width="6" mask="url(#path-1-outside-1_16_904)"/>
<path d="M518.049 70.9993L544.573 4.9013H561.685L588.304 70.9993H571.477L566.249 56.6384H540.105L534.876 70.9993H518.049ZM544.383 44.0845H561.876L553.129 20.4985L544.383 44.0845Z" stroke="url(#paint8_linear_16_904)" stroke-width="6" mask="url(#path-1-outside-1_16_904)"/>
<path d="M594.583 70.9993V4.9014L621.401 4.9013L646.689 51.6929V4.9013H661.995V70.9993H642.126L616.838 24.4929V70.9993H594.583Z" stroke="url(#paint9_linear_16_904)" stroke-width="6" mask="url(#path-1-outside-1_16_904)"/>
<path d="M671.537 70.9994V4.9014H700.152C709.786 4.9014 717.486 7.84966 723.254 13.7462C729.085 19.5793 732 27.6949 732 38.093C732 48.4912 729.085 56.5751 723.254 62.3448C717.486 68.1145 709.786 70.9994 700.152 70.9994H671.537ZM687.033 57.2091H698.631C704.208 57.2091 708.55 55.5924 711.655 52.3588C714.824 49.0618 716.409 44.2432 716.409 37.9028C716.409 31.5625 714.824 26.7755 711.655 23.542C708.55 20.3084 704.208 18.6916 698.631 18.6916H687.033V57.2091Z" stroke="url(#paint10_linear_16_904)" stroke-width="6" mask="url(#path-1-outside-1_16_904)"/>
<defs>
<linearGradient id="paint0_linear_16_904" x1="367.5" y1="3" x2="367.5" y2="71" gradientUnits="userSpaceOnUse">
<stop stop-color="#D4D4D4"/>
</linearGradient>
<linearGradient id="paint1_linear_16_904" x1="367.5" y1="3" x2="367.5" y2="71" gradientUnits="userSpaceOnUse">
<stop stop-color="#D4D4D4"/>
</linearGradient>
<linearGradient id="paint2_linear_16_904" x1="367.5" y1="3" x2="367.5" y2="71" gradientUnits="userSpaceOnUse">
<stop stop-color="#D4D4D4"/>
</linearGradient>
<linearGradient id="paint3_linear_16_904" x1="367.5" y1="3" x2="367.5" y2="71" gradientUnits="userSpaceOnUse">
<stop stop-color="#D4D4D4"/>
</linearGradient>
<linearGradient id="paint4_linear_16_904" x1="367.5" y1="3" x2="367.5" y2="71" gradientUnits="userSpaceOnUse">
<stop stop-color="#D4D4D4"/>
</linearGradient>
<linearGradient id="paint5_linear_16_904" x1="367.5" y1="3" x2="367.5" y2="71" gradientUnits="userSpaceOnUse">
<stop stop-color="#D4D4D4"/>
</linearGradient>
<linearGradient id="paint6_linear_16_904" x1="367.5" y1="3" x2="367.5" y2="71" gradientUnits="userSpaceOnUse">
<stop stop-color="#D4D4D4"/>
</linearGradient>
<linearGradient id="paint7_linear_16_904" x1="367.5" y1="3" x2="367.5" y2="71" gradientUnits="userSpaceOnUse">
<stop stop-color="#D4D4D4"/>
</linearGradient>
<linearGradient id="paint8_linear_16_904" x1="367.5" y1="3" x2="367.5" y2="71" gradientUnits="userSpaceOnUse">
<stop stop-color="#D4D4D4"/>
</linearGradient>
<linearGradient id="paint9_linear_16_904" x1="367.5" y1="3" x2="367.5" y2="71" gradientUnits="userSpaceOnUse">
<stop stop-color="#D4D4D4"/>
</linearGradient>
<linearGradient id="paint10_linear_16_904" x1="367.5" y1="3" x2="367.5" y2="71" gradientUnits="userSpaceOnUse">
<stop stop-color="#D4D4D4"/>
</linearGradient>
</defs>
</svg>
