<svg width="987" height="81" viewBox="0 0 987 81" fill="none" xmlns="http://www.w3.org/2000/svg">
<path d="M5.88301 25L0.583008 7.625H3.15801L7.00801 20.575L7.28301 22.2H7.58301L7.93301 20.575L12.158 7.625H14.783L19.008 20.575L19.358 22.2H19.658L19.933 20.575L23.783 7.625H26.358L21.058 25H18.108L13.983 12.875L13.633 10.95H13.333L12.983 12.875L8.83301 25H5.88301ZM28.0031 25V7.625H30.4531V12.95L30.4281 15.125L32.7781 15.05H37.2781L39.6531 15.125L39.6031 12.975V7.625H42.0531V25H39.6031V19.075L39.6531 17.15L37.2531 17.2H32.7781L30.4281 17.15L30.4531 19.1V25H28.0031ZM52.3703 25.25C49.8203 25.25 47.8536 24.4417 46.4703 22.825C45.087 21.1917 44.3953 19.025 44.3953 16.325C44.3953 13.6583 45.087 11.5 46.4703 9.85C47.8703 8.2 49.837 7.375 52.3703 7.375C54.887 7.375 56.8286 8.2 58.1953 9.85C59.5786 11.5 60.2703 13.6583 60.2703 16.325C60.2703 19.0417 59.587 21.2083 58.2203 22.825C56.8536 24.4417 54.9036 25.25 52.3703 25.25ZM48.2953 21.25C49.2286 22.4833 50.587 23.1 52.3703 23.1C54.1536 23.1 55.5036 22.4833 56.4203 21.25C57.337 20.0167 57.7953 18.375 57.7953 16.325C57.7953 14.3083 57.3286 12.675 56.3953 11.425C55.4786 10.1583 54.137 9.525 52.3703 9.525C50.6036 9.525 49.2453 10.1583 48.2953 11.425C47.362 12.6917 46.8953 14.325 46.8953 16.325C46.8953 18.3583 47.362 20 48.2953 21.25ZM68.1588 25L75.4588 7.625H78.2338L85.5338 25H82.8588L81.1088 20.625L75.2338 20.65L72.6088 20.625L70.8588 25H68.1588ZM73.3838 18.6L75.2338 18.55H78.4838L80.3338 18.6L79.8338 17.375L77.3838 11.475L76.9838 10.025H76.7088L76.3588 11.475L73.8588 17.375L73.3838 18.6ZM87.1096 25V7.625H90.0096L95.7846 20.7L96.4096 22.775H96.6596L97.2846 20.7L103.06 7.625H105.96V25H103.535V13.85L103.66 11.75H103.385L102.785 13.85L97.7846 25H95.2846L90.2846 13.85L89.6846 11.75H89.4096L89.5596 13.85V25H87.1096ZM115.723 25V7.625H118.173V25H115.723ZM125.77 20.525C125.77 19.775 125.928 19.1083 126.245 18.525C126.562 17.9417 126.945 17.4583 127.395 17.075C127.845 16.6917 128.295 16.3167 128.745 15.95C129.195 15.5833 129.578 15.1333 129.895 14.6C130.212 14.05 130.37 13.425 130.37 12.725C130.37 11.8583 130.062 11.1417 129.445 10.575C128.845 10.0083 128.045 9.725 127.045 9.725C126.028 9.725 125.162 10.0583 124.445 10.725C123.728 11.375 123.295 12.3 123.145 13.5L120.72 13.3C120.887 11.5333 121.553 10.125 122.72 9.075C123.903 8.025 125.337 7.5 127.02 7.5C128.753 7.5 130.145 7.98333 131.195 8.95C132.262 9.91667 132.795 11.15 132.795 12.65C132.795 13.5 132.628 14.2583 132.295 14.925C131.978 15.5917 131.587 16.1333 131.12 16.55C130.67 16.9667 130.212 17.3583 129.745 17.725C129.278 18.0917 128.87 18.5083 128.52 18.975C128.187 19.4417 128.012 19.9583 127.995 20.525H125.77ZM125.495 25.2V22.55H128.245V25.2H125.495Z" fill="#D4D4D4"/>
<path d="M15.6 80.75C11.4 80.75 7.88333 79.7667 5.05 77.8C2.25 75.8 0.566667 72.9 0 69.1L8.1 68.4C8.43333 70.1667 9.26667 71.5167 10.6 72.45C11.9667 73.35 13.65 73.8 15.65 73.8C17.65 73.8 19.2 73.45 20.3 72.75C21.4333 72.05 22 71.15 22 70.05C22 69.0167 21.6167 68.2333 20.85 67.7C20.1167 67.1333 18.8333 66.7333 17 66.5L11.1 65.65C7.8 65.1833 5.23333 64.1 3.4 62.4C1.6 60.6667 0.7 58.4667 0.7 55.8C0.7 52.6667 1.96667 50.0833 4.5 48.05C7.06667 46.0167 10.3833 45 14.45 45C18.5833 45 21.9167 46 24.45 48C27.0167 50 28.3667 53.0167 28.5 57.05L20.75 57.6C20.5833 55.7333 19.95 54.3167 18.85 53.35C17.75 52.3833 16.2833 51.9 14.45 51.9C12.7167 51.9 11.3167 52.2667 10.25 53C9.21667 53.7333 8.7 54.6667 8.7 55.8C8.7 57.5 9.96667 58.55 12.5 58.95L19.4 59.95C26.4667 60.95 30 64.3 30 70C30 73.3 28.7 75.9167 26.1 77.85C23.5 79.7833 20 80.75 15.6 80.75Z" fill="#D6546C"/>
<path d="M41.8488 80.25V52.55H30.2488V45.5H61.5988V52.55H49.9988V80.25H41.8488Z" fill="#D6546C"/>
<path d="M80.8566 80.75C75.9566 80.75 72.0566 79.45 69.1566 76.85C66.29 74.2167 64.8566 70.4 64.8566 65.4V45.5H73.0066V65.3C73.0066 68.1333 73.7066 70.2167 75.1066 71.55C76.5066 72.85 78.4233 73.5 80.8566 73.5C83.2233 73.5 85.09 72.85 86.4566 71.55C87.8233 70.2167 88.5066 68.1333 88.5066 65.3V45.5H96.6566V65.4C96.6566 70.4 95.24 74.2167 92.4066 76.85C89.5733 79.45 85.7233 80.75 80.8566 80.75Z" fill="#D6546C"/>
<path d="M101.191 80.25V45.5H116.241C121.307 45.5 125.357 47.05 128.391 50.15C131.457 53.2167 132.991 57.4833 132.991 62.95C132.991 68.4167 131.457 72.6667 128.391 75.7C125.357 78.7333 121.307 80.25 116.241 80.25H101.191ZM109.341 73H115.441C118.374 73 120.657 72.15 122.291 70.45C123.957 68.7167 124.791 66.1833 124.791 62.85C124.791 59.5167 123.957 57 122.291 55.3C120.657 53.6 118.374 52.75 115.441 52.75H109.341V73Z" fill="#D6546C"/>
<path d="M136.493 80.25V45.5H164.293V52.55H144.643V58.8H161.493V65.85H144.493V73.1H164.293V80.25H136.493Z" fill="#D6546C"/>
<path d="M168.183 80.25V45.5H178.633L191.933 70.1V45.5H199.983V80.25H189.533L176.233 55.8V80.25H168.183Z" fill="#D6546C"/>
<path d="M214.798 80.25V52.55H203.198V45.5H234.548V52.55H222.948V80.25H214.798Z" fill="#D6546C"/>
<path d="M250.409 80.25V45.5H277.859V52.55H258.559V59.1H275.909V66.15H258.559V80.25H250.409Z" fill="white"/>
<path d="M280.927 80.25V45.5H297.727C301.36 45.5 304.31 46.3667 306.577 48.1C308.877 49.8 310.027 52.3333 310.027 55.7C310.027 57.9667 309.244 59.9333 307.677 61.6C306.144 63.2333 303.877 64.2667 300.877 64.7C303.177 65 304.96 65.7667 306.227 67C307.527 68.2 308.494 69.8167 309.127 71.85L311.777 80.25H303.777L301.577 73.05C300.444 69.3167 298.194 67.45 294.827 67.45H288.927V80.25H280.927ZM288.927 60.7H296.427C300.36 60.7 302.327 59.3 302.327 56.5C302.327 53.6667 300.36 52.25 296.427 52.25H288.927V60.7Z" fill="white"/>
<path d="M329.778 80.75C324.411 80.75 320.261 79.1333 317.328 75.9C314.394 72.6667 312.928 68.3167 312.928 62.85C312.928 57.4833 314.394 53.1667 317.328 49.9C320.294 46.6333 324.444 45 329.778 45C335.111 45 339.228 46.6333 342.128 49.9C345.028 53.1667 346.478 57.4833 346.478 62.85C346.478 68.3167 345.028 72.6667 342.128 75.9C339.228 79.1333 335.111 80.75 329.778 80.75ZM329.778 73.75C332.511 73.75 334.611 72.7667 336.078 70.8C337.544 68.8 338.278 66.1333 338.278 62.8C338.278 59.5667 337.544 56.9667 336.078 55C334.611 53.0333 332.511 52.05 329.778 52.05C327.011 52.05 324.878 53.05 323.378 55.05C321.878 57.0167 321.128 59.6 321.128 62.8C321.128 66.1333 321.878 68.8 323.378 70.8C324.878 72.7667 327.011 73.75 329.778 73.75Z" fill="white"/>
<path d="M349.97 80.25V45.5H359.52L369.92 72.3L380.32 45.5H389.87V80.25H382.02V60.35L374.07 80.25H365.77L357.82 60.15V80.25H349.97Z" fill="white"/>
<path d="M407.538 80.25V45.5H415.688V80.25H407.538Z" fill="white"/>
<path d="M420.478 80.25V45.5H430.928L444.228 70.1V45.5H452.278V80.25H441.828L428.528 55.8V80.25H420.478Z" fill="white"/>
<path d="M457.343 80.25V45.5H467.793L481.093 70.1V45.5H489.143V80.25H478.693L465.393 55.8V80.25H457.343Z" fill="white"/>
<path d="M509.612 80.75C504.245 80.75 500.095 79.1333 497.162 75.9C494.228 72.6667 492.762 68.3167 492.762 62.85C492.762 57.4833 494.228 53.1667 497.162 49.9C500.128 46.6333 504.278 45 509.612 45C514.945 45 519.062 46.6333 521.962 49.9C524.862 53.1667 526.312 57.4833 526.312 62.85C526.312 68.3167 524.862 72.6667 521.962 75.9C519.062 79.1333 514.945 80.75 509.612 80.75ZM509.612 73.75C512.345 73.75 514.445 72.7667 515.912 70.8C517.378 68.8 518.112 66.1333 518.112 62.8C518.112 59.5667 517.378 56.9667 515.912 55C514.445 53.0333 512.345 52.05 509.612 52.05C506.845 52.05 504.712 53.05 503.212 55.05C501.712 57.0167 500.962 59.6 500.962 62.8C500.962 66.1333 501.712 68.8 503.212 70.8C504.712 72.7667 506.845 73.75 509.612 73.75Z" fill="white"/>
<path d="M529.804 80.25V45.5H545.304C549.704 45.5 553.071 46.45 555.404 48.35C557.771 50.25 558.954 53.0833 558.954 56.85C558.954 60.5833 557.771 63.4 555.404 65.3C553.071 67.2 549.704 68.15 545.304 68.15H537.954V80.25H529.804ZM537.954 61.15H546.454C547.987 61.15 549.154 60.7333 549.954 59.9C550.754 59.0333 551.154 58.0167 551.154 56.85C551.154 55.6833 550.754 54.6667 549.954 53.8C549.154 52.9333 547.987 52.5 546.454 52.5H537.954V61.15Z" fill="white"/>
<path d="M577.532 80.75C572.165 80.75 568.015 79.1333 565.082 75.9C562.148 72.6667 560.682 68.3167 560.682 62.85C560.682 57.4833 562.148 53.1667 565.082 49.9C568.048 46.6333 572.198 45 577.532 45C582.865 45 586.982 46.6333 589.882 49.9C592.782 53.1667 594.232 57.4833 594.232 62.85C594.232 68.3167 592.782 72.6667 589.882 75.9C586.982 79.1333 582.865 80.75 577.532 80.75ZM577.532 73.75C580.265 73.75 582.365 72.7667 583.832 70.8C585.298 68.8 586.032 66.1333 586.032 62.8C586.032 59.5667 585.298 56.9667 583.832 55C582.365 53.0333 580.265 52.05 577.532 52.05C574.765 52.05 572.632 53.05 571.132 55.05C569.632 57.0167 568.882 59.6 568.882 62.8C568.882 66.1333 569.632 68.8 571.132 70.8C572.632 72.7667 574.765 73.75 577.532 73.75Z" fill="white"/>
<path d="M597.724 80.25V45.5H605.874V73.15H623.674V80.25H597.724Z" fill="white"/>
<path d="M626.777 80.25V45.5H634.927V80.25H626.777Z" fill="white"/>
<path d="M654.272 80.75C650.072 80.75 646.555 79.7667 643.722 77.8C640.922 75.8 639.239 72.9 638.672 69.1L646.772 68.4C647.105 70.1667 647.939 71.5167 649.272 72.45C650.638 73.35 652.322 73.8 654.322 73.8C656.322 73.8 657.872 73.45 658.972 72.75C660.105 72.05 660.672 71.15 660.672 70.05C660.672 69.0167 660.289 68.2333 659.522 67.7C658.789 67.1333 657.505 66.7333 655.672 66.5L649.772 65.65C646.472 65.1833 643.905 64.1 642.072 62.4C640.272 60.6667 639.372 58.4667 639.372 55.8C639.372 52.6667 640.639 50.0833 643.172 48.05C645.739 46.0167 649.055 45 653.122 45C657.255 45 660.589 46 663.122 48C665.689 50 667.039 53.0167 667.172 57.05L659.422 57.6C659.255 55.7333 658.622 54.3167 657.522 53.35C656.422 52.3833 654.955 51.9 653.122 51.9C651.389 51.9 649.989 52.2667 648.922 53C647.889 53.7333 647.372 54.6667 647.372 55.8C647.372 57.5 648.639 58.55 651.172 58.95L658.072 59.95C665.139 60.95 668.672 64.3 668.672 70C668.672 73.3 667.372 75.9167 664.772 77.85C662.172 79.7833 658.672 80.75 654.272 80.75Z" fill="white"/>
<path d="M701.267 80.75C696.367 80.75 692.467 79.45 689.567 76.85C686.7 74.2167 685.267 70.4 685.267 65.4V45.5H693.417V65.3C693.417 68.1333 694.117 70.2167 695.517 71.55C696.917 72.85 698.833 73.5 701.267 73.5C703.633 73.5 705.5 72.85 706.867 71.55C708.233 70.2167 708.917 68.1333 708.917 65.3V45.5H717.067V65.4C717.067 70.4 715.65 74.2167 712.817 76.85C709.983 79.45 706.133 80.75 701.267 80.75Z" fill="white"/>
<path d="M721.601 80.25V45.5H732.051L745.351 70.1V45.5H753.401V80.25H742.951L729.651 55.8V80.25H721.601Z" fill="white"/>
<path d="M758.222 80.25V45.5H766.372V80.25H758.222Z" fill="white"/>
<path d="M782.211 80.25L769.061 45.5H777.761L787.011 73.1L796.211 45.5H804.911L791.811 80.25H782.211Z" fill="white"/>
<path d="M807.538 80.25V45.5H835.338V52.55H815.688V58.8H832.538V65.85H815.538V73.1H835.338V80.25H807.538Z" fill="white"/>
<path d="M839.228 80.25V45.5H856.028C859.661 45.5 862.611 46.3667 864.878 48.1C867.178 49.8 868.328 52.3333 868.328 55.7C868.328 57.9667 867.544 59.9333 865.978 61.6C864.444 63.2333 862.178 64.2667 859.178 64.7C861.478 65 863.261 65.7667 864.528 67C865.828 68.2 866.794 69.8167 867.428 71.85L870.078 80.25H862.078L859.878 73.05C858.744 69.3167 856.494 67.45 853.128 67.45H847.228V80.25H839.228ZM847.228 60.7H854.728C858.661 60.7 860.628 59.3 860.628 56.5C860.628 53.6667 858.661 52.25 854.728 52.25H847.228V60.7Z" fill="white"/>
<path d="M887.426 80.75C883.226 80.75 879.709 79.7667 876.876 77.8C874.076 75.8 872.393 72.9 871.826 69.1L879.926 68.4C880.259 70.1667 881.093 71.5167 882.426 72.45C883.793 73.35 885.476 73.8 887.476 73.8C889.476 73.8 891.026 73.45 892.126 72.75C893.26 72.05 893.826 71.15 893.826 70.05C893.826 69.0167 893.443 68.2333 892.676 67.7C891.943 67.1333 890.659 66.7333 888.826 66.5L882.926 65.65C879.626 65.1833 877.06 64.1 875.226 62.4C873.426 60.6667 872.526 58.4667 872.526 55.8C872.526 52.6667 873.793 50.0833 876.326 48.05C878.893 46.0167 882.21 45 886.276 45C890.41 45 893.743 46 896.276 48C898.843 50 900.193 53.0167 900.326 57.05L892.576 57.6C892.409 55.7333 891.776 54.3167 890.676 53.35C889.576 52.3833 888.109 51.9 886.276 51.9C884.543 51.9 883.143 52.2667 882.076 53C881.043 53.7333 880.526 54.6667 880.526 55.8C880.526 57.5 881.793 58.55 884.326 58.95L891.226 59.95C898.293 60.95 901.826 64.3 901.826 70C901.826 73.3 900.526 75.9167 897.926 77.85C895.326 79.7833 891.826 80.75 887.426 80.75Z" fill="white"/>
<path d="M905.683 80.25V45.5H913.833V80.25H905.683Z" fill="white"/>
<path d="M928.372 80.25V52.55H916.772V45.5H948.122V52.55H936.522V80.25H928.372Z" fill="white"/>
<path d="M964.082 80.25V68.25L949.532 45.5H959.432L968.182 61.35L976.732 45.5H986.682L972.232 68.25V80.25H964.082Z" fill="white"/>
</svg>
