<svg width="219" height="19" viewBox="0 0 219 19" fill="none" xmlns="http://www.w3.org/2000/svg">
    <path d="M0 17.875L3.7 0.5H17.675L16.925 4.025H7.125L6.45 7.15H14.85L14.1 10.675H5.7L4.925 14.3H14.75L13.975 17.875H0Z" fill="white"/>
    <path d="M15.34 17.875L23.49 9.15L19.115 0.5H23.765L26.54 6.8L31.515 0.5H37.165L28.915 9.15L33.39 17.875H28.74L25.965 11.45L20.99 17.875H15.34Z" fill="white"/>
    <path d="M34.9121 17.875L38.6121 0.5H46.5621C48.6121 0.5 50.1288 1.025 51.1121 2.075C52.1121 3.125 52.4121 4.56667 52.0121 6.4C51.2288 10.0167 48.6121 11.825 44.1621 11.825H40.3621L39.0621 17.875H34.9121ZM41.0871 8.325H45.3371C46.1038 8.325 46.7371 8.11667 47.2371 7.7C47.7371 7.26667 48.0454 6.75833 48.1621 6.175C48.2788 5.59167 48.1788 5.08333 47.8621 4.65C47.5621 4.21667 47.0288 4 46.2621 4H42.0121L41.0871 8.325Z" fill="white"/>
    <path d="M51.0986 17.875L54.7986 0.5H58.9736L56.0236 14.325H64.9236L64.1736 17.875H51.0986Z" fill="white"/>
    <path d="M73.0676 18.125C70.6676 18.125 68.8343 17.2667 67.5676 15.55C66.3176 13.8167 65.9592 11.6917 66.4926 9.175C67.0592 6.50833 68.2259 4.35833 69.9926 2.725C71.7592 1.075 74.0009 0.25 76.7176 0.25C79.2009 0.25 81.0426 1.1 82.2426 2.8C83.4426 4.5 83.7676 6.625 83.2176 9.175C82.6176 11.9417 81.4842 14.125 79.8176 15.725C78.1509 17.325 75.9009 18.125 73.0676 18.125ZM73.6926 14.6C75.0926 14.6 76.2592 14.1083 77.1926 13.125C78.1259 12.125 78.7676 10.8 79.1176 9.15C79.4676 7.51667 79.3842 6.21667 78.8676 5.25C78.3509 4.26667 77.4092 3.775 76.0426 3.775C74.6926 3.775 73.5342 4.26667 72.5676 5.25C71.6009 6.23333 70.9426 7.53333 70.5926 9.15C70.2426 10.8 70.3259 12.125 70.8426 13.125C71.3592 14.1083 72.3092 14.6 73.6926 14.6Z" fill="white"/>
    <path d="M83.3008 17.875L87.0008 0.5H95.2758C97.2924 0.5 98.7758 0.958333 99.7258 1.875C100.676 2.79167 100.959 4.15833 100.576 5.975C100.342 7.04167 99.7758 7.96667 98.8758 8.75C97.9758 9.51667 96.7758 9.95833 95.2758 10.075C97.0758 10.4417 98.0925 11.7 98.3258 13.85L98.7258 17.875H94.7008L94.3758 14.275C94.2091 12.4083 93.3508 11.475 91.8008 11.475H88.8258L87.4758 17.875H83.3008ZM89.5508 8.1H93.3008C95.2841 8.1 96.4174 7.4 96.7008 6C96.8508 5.35 96.7174 4.83333 96.3008 4.45C95.9008 4.06667 95.2008 3.875 94.2008 3.875H90.4508L89.5508 8.1Z" fill="white"/>
    <path d="M100.171 17.875L103.871 0.5H117.846L117.096 4.025H107.296L106.621 7.15H115.021L114.271 10.675H105.871L105.096 14.3H114.921L114.146 17.875H100.171Z" fill="white"/>
    <path d="M130.356 18.1C128.106 18.1 126.39 17.2583 125.206 15.575C124.023 13.8917 123.706 11.7667 124.256 9.2C124.84 6.5 126.048 4.33333 127.881 2.7C129.731 1.06667 132.006 0.25 134.706 0.25C136.99 0.25 138.69 0.9 139.806 2.2C140.94 3.5 141.423 5.28333 141.256 7.55H137.356C137.49 6.36667 137.265 5.44167 136.681 4.775C136.115 4.09167 135.215 3.75 133.981 3.75C132.631 3.75 131.415 4.26667 130.331 5.3C129.265 6.31667 128.565 7.61667 128.231 9.2C127.881 10.8167 127.99 12.1333 128.556 13.15C129.123 14.1667 130.04 14.675 131.306 14.675C132.24 14.675 133.081 14.4417 133.831 13.975C134.598 13.5083 135.165 12.9 135.531 12.15H131.831L132.456 9.15H140.906L139.056 17.875H136.381L136.431 15.1C134.981 17.1 132.956 18.1 130.356 18.1Z" fill="white"/>
    <path d="M141.113 17.875L144.813 0.5H148.988L145.288 17.875H141.113Z" fill="white"/>
    <path d="M152.537 17.875L155.487 4.025H149.687L150.437 0.5H166.212L165.462 4.025H159.662L156.712 17.875H152.537Z" fill="white"/>
    <path d="M164.16 17.875L167.86 0.5H172.035L170.585 7.275H177.835L179.26 0.5H183.435L179.735 17.875H175.56L177.085 10.8H169.835L168.335 17.875H164.16Z" fill="white"/>
    <path d="M190.084 18.125C187.8 18.125 186 17.425 184.684 16.025C183.367 14.625 182.959 12.7667 183.459 10.45L185.559 0.5H189.734L187.634 10.375C187.35 11.725 187.484 12.75 188.034 13.45C188.6 14.15 189.534 14.5 190.834 14.5C191.967 14.5 192.975 14.1417 193.859 13.425C194.742 12.7083 195.325 11.6917 195.609 10.375L197.684 0.5H201.834L199.734 10.425C199.15 13.1083 198.042 15.0667 196.409 16.3C194.792 17.5167 192.684 18.125 190.084 18.125Z" fill="white"/>
    <path d="M200.439 17.875L204.139 0.5H212.789C214.806 0.5 216.248 0.933333 217.114 1.8C217.981 2.65 218.273 3.76667 217.989 5.15C217.573 7.15 216.331 8.38333 214.264 8.85C215.231 9.16667 215.914 9.69167 216.314 10.425C216.731 11.1417 216.848 11.975 216.664 12.925C215.964 16.225 213.439 17.875 209.089 17.875H200.439ZM206.864 7.275H211.389C212.139 7.275 212.723 7.11667 213.139 6.8C213.573 6.46667 213.848 6.05 213.964 5.55C214.081 5.03333 213.998 4.60833 213.714 4.275C213.431 3.925 212.906 3.75 212.139 3.75H207.614L206.864 7.275ZM205.289 14.625H209.689C211.373 14.625 212.356 13.9417 212.639 12.575C212.773 11.9417 212.681 11.4583 212.364 11.125C212.048 10.775 211.439 10.6 210.539 10.6H206.164L205.289 14.625Z" fill="white"/>
</svg>
