<svg width="159" height="18" viewBox="0 0 159 18" fill="none" xmlns="http://www.w3.org/2000/svg">
<path d="M7.98692 17.875C5.58692 17.875 3.66192 17.0667 2.21192 15.45C0.778587 13.8333 0.0619202 11.6667 0.0619202 8.95C0.0619202 6.26667 0.778587 4.10833 2.21192 2.475C3.66192 0.825 5.57025 0 7.93692 0C10.0203 0 11.7286 0.591667 13.0619 1.775C14.3953 2.95833 15.1536 4.59167 15.3369 6.675L12.8619 6.875C12.7286 5.39167 12.2203 4.23333 11.3369 3.4C10.4536 2.56667 9.32025 2.15 7.93692 2.15C6.30359 2.15 4.99525 2.775 4.01192 4.025C3.02859 5.25833 2.53692 6.9 2.53692 8.95C2.53692 11.0167 3.02859 12.6667 4.01192 13.9C5.01192 15.1167 6.33692 15.725 7.98692 15.725C9.42025 15.725 10.5869 15.3083 11.4869 14.475C12.4036 13.625 12.9453 12.4417 13.1119 10.925L15.5119 11.125C15.3119 13.2417 14.5369 14.9 13.1869 16.1C11.8369 17.2833 10.1036 17.875 7.98692 17.875Z" fill="#D4D4D4"/>
<path d="M25.1024 17.875C22.5524 17.875 20.5857 17.0667 19.2024 15.45C17.819 13.8167 17.1273 11.65 17.1273 8.95C17.1273 6.28333 17.819 4.125 19.2024 2.475C20.6024 0.825 22.569 0 25.1024 0C27.619 0 29.5607 0.825 30.9274 2.475C32.3107 4.125 33.0023 6.28333 33.0023 8.95C33.0023 11.6667 32.319 13.8333 30.9524 15.45C29.5857 17.0667 27.6357 17.875 25.1024 17.875ZM21.0273 13.875C21.9607 15.1083 23.319 15.725 25.1024 15.725C26.8857 15.725 28.2357 15.1083 29.1523 13.875C30.069 12.6417 30.5273 11 30.5273 8.95C30.5273 6.93333 30.0607 5.3 29.1273 4.05C28.2107 2.78333 26.869 2.15 25.1024 2.15C23.3357 2.15 21.9773 2.78333 21.0273 4.05C20.094 5.31667 19.6273 6.95 19.6273 8.95C19.6273 10.9833 20.094 12.625 21.0273 13.875Z" fill="#D4D4D4"/>
<path d="M35.2566 17.625V0.25H38.4066L45.7566 12.1L46.9816 14.55H47.3816L47.2316 11.925V0.25H49.6566V17.625H46.4816L38.7566 5.2L37.9316 3.325H37.5566L37.7066 5.95V17.625H35.2566Z" fill="#D4D4D4"/>
<path d="M57.8645 17.625V5.475L57.9145 2.375L55.3895 2.425H51.5145V0.25H66.6645V2.425H62.7895L60.2645 2.375L60.3145 5.475V17.625H57.8645Z" fill="#D4D4D4"/>
<path d="M65.7199 17.625L73.0199 0.25H75.7949L83.0949 17.625H80.4199L78.6699 13.25L72.7949 13.275L70.1699 13.25L68.4199 17.625H65.7199ZM70.9449 11.225L72.7949 11.175H76.0449L77.8949 11.225L77.3949 10L74.9449 4.1L74.5449 2.65H74.2699L73.9199 4.1L71.4199 10L70.9449 11.225Z" fill="#D4D4D4"/>
<path d="M91.3854 17.875C88.9854 17.875 87.0604 17.0667 85.6104 15.45C84.177 13.8333 83.4604 11.6667 83.4604 8.95C83.4604 6.26667 84.177 4.10833 85.6104 2.475C87.0604 0.825 88.9687 0 91.3354 0C93.4187 0 95.127 0.591667 96.4604 1.775C97.7937 2.95833 98.552 4.59167 98.7354 6.675L96.2604 6.875C96.127 5.39167 95.6187 4.23333 94.7354 3.4C93.852 2.56667 92.7187 2.15 91.3354 2.15C89.702 2.15 88.3937 2.775 87.4104 4.025C86.427 5.25833 85.9354 6.9 85.9354 8.95C85.9354 11.0167 86.427 12.6667 87.4104 13.9C88.4104 15.1167 89.7354 15.725 91.3854 15.725C92.8187 15.725 93.9854 15.3083 94.8854 14.475C95.802 13.625 96.3437 12.4417 96.5104 10.925L98.9104 11.125C98.7104 13.2417 97.9354 14.9 96.5854 16.1C95.2354 17.2833 93.502 17.875 91.3854 17.875Z" fill="#D4D4D4"/>
<path d="M106.058 17.625V5.475L106.108 2.375L103.583 2.425H99.7078V0.25H114.858V2.425H110.983L108.458 2.375L108.508 5.475V17.625H106.058Z" fill="#D4D4D4"/>
<path d="M123.489 17.625V0.25H126.389L132.164 13.325L132.789 15.4H133.039L133.664 13.325L139.439 0.25H142.339V17.625H139.914V6.475L140.039 4.375H139.764L139.164 6.475L134.164 17.625H131.664L126.664 6.475L126.064 4.375H125.789L125.939 6.475V17.625H123.489Z" fill="#D4D4D4"/>
<path d="M145.291 17.625V0.25H158.016V2.425H150.466L147.716 2.375L147.741 4.45V5.7L147.716 7.625L150.466 7.575H156.741V9.75H150.466L147.716 9.7L147.741 11.625V13.425L147.716 15.525L150.466 15.475H158.016V17.625H145.291Z" fill="#D4D4D4"/>
</svg>
