<svg width="127" height="18" viewBox="0 0 127 18" fill="none" xmlns="http://www.w3.org/2000/svg">
<path d="M0 17.625L7.3 0.25H10.075L17.375 17.625H14.7L12.95 13.25L7.075 13.275L4.45 13.25L2.7 17.625H0ZM5.225 11.225L7.075 11.175H10.325L12.175 11.225L11.675 10L9.225 4.1L8.825 2.65H8.55L8.2 4.1L5.7 10L5.225 11.225Z" fill="#D4D4D4"/>
<path d="M18.9508 17.625V0.25H26.2508C30.2174 0.25 32.2008 1.775 32.2008 4.825C32.2008 5.80833 31.9341 6.61667 31.4008 7.25C30.8841 7.88333 30.2174 8.29167 29.4008 8.475V8.775C30.3174 8.975 31.0591 9.43333 31.6258 10.15C32.1924 10.8667 32.4758 11.75 32.4758 12.8C32.4758 14.3833 31.9424 15.5833 30.8758 16.4C29.8258 17.2167 28.3341 17.625 26.4008 17.625H18.9508ZM21.3508 7.7L23.3758 7.65H26.3758C28.7091 7.65 29.8758 6.75833 29.8758 4.975C29.8758 3.175 28.7091 2.275 26.3758 2.275H23.3758L21.3758 2.25L21.4008 3.95V5.875L21.3508 7.7ZM21.3508 15.625L23.3508 15.6H26.4508C28.8841 15.6 30.1008 14.6167 30.1008 12.65C30.1008 10.7 28.8841 9.725 26.4508 9.725H23.3508L21.3508 9.675L21.4008 11.525V13.75L21.3508 15.625Z" fill="#D4D4D4"/>
<path d="M42.0973 17.875C39.5473 17.875 37.5806 17.0667 36.1973 15.45C34.8139 13.8167 34.1223 11.65 34.1223 8.95C34.1223 6.28333 34.8139 4.125 36.1973 2.475C37.5973 0.825 39.5639 0 42.0973 0C44.6139 0 46.5556 0.825 47.9223 2.475C49.3056 4.125 49.9973 6.28333 49.9973 8.95C49.9973 11.6667 49.3139 13.8333 47.9473 15.45C46.5806 17.0667 44.6306 17.875 42.0973 17.875ZM38.0223 13.875C38.9556 15.1083 40.3139 15.725 42.0973 15.725C43.8806 15.725 45.2306 15.1083 46.1473 13.875C47.0639 12.6417 47.5223 11 47.5223 8.95C47.5223 6.93333 47.0556 5.3 46.1223 4.05C45.2056 2.78333 43.8639 2.15 42.0973 2.15C40.3306 2.15 38.9723 2.78333 38.0223 4.05C37.0889 5.31667 36.6223 6.95 36.6223 8.95C36.6223 10.9833 37.0889 12.625 38.0223 13.875Z" fill="#D4D4D4"/>
<path d="M59.4766 17.875C57.2432 17.875 55.4599 17.25 54.1266 16C52.8099 14.7333 52.1516 12.975 52.1516 10.725V0.25H54.6016V10.7C54.6016 12.2833 55.0432 13.5083 55.9266 14.375C56.8099 15.2417 57.9932 15.675 59.4766 15.675C60.9432 15.675 62.1016 15.2417 62.9516 14.375C63.8182 13.5083 64.2516 12.2833 64.2516 10.7V0.25H66.7016V10.725C66.7016 12.975 66.0432 14.7333 64.7266 16C63.4266 17.25 61.6766 17.875 59.4766 17.875Z" fill="#D4D4D4"/>
<path d="M74.6885 17.625V5.475L74.7385 2.375L72.2135 2.425H68.3385V0.25H83.4885V2.425H79.6135L77.0885 2.375L77.1385 5.475V17.625H74.6885Z" fill="#D4D4D4"/>
<path d="M92.1197 17.625V0.25H95.0197L100.795 13.325L101.42 15.4H101.67L102.295 13.325L108.07 0.25H110.97V17.625H108.545V6.475L108.67 4.375H108.395L107.795 6.475L102.795 17.625H100.295L95.2947 6.475L94.6947 4.375H94.4197L94.5697 6.475V17.625H92.1197Z" fill="#D4D4D4"/>
<path d="M113.921 17.625V0.25H126.646V2.425H119.096L116.346 2.375L116.371 4.45V5.7L116.346 7.625L119.096 7.575H125.371V9.75H119.096L116.346 9.7L116.371 11.625V13.425L116.346 15.525L119.096 15.475H126.646V17.625H113.921Z" fill="#D4D4D4"/>
</svg>
