<svg width="718" height="261" viewBox="0 0 718 261" fill="none" xmlns="http://www.w3.org/2000/svg">
<g opacity="0.6">
<path d="M372.929 1369C342.969 1369 317.289 1360.01 297.515 1342.11C262.676 1310.84 244.101 1252.98 242.175 1170.07C241.833 1153.41 247.226 1120.82 254.117 1079.58C272.392 969.776 300.041 803.826 242.133 774.49C218.636 762.627 169.373 781.171 122.037 799.158C74.7001 817.145 30.2312 833.847 10.7573 821.042C7.51867 818.731 4.89634 815.659 3.12035 812.098C1.34435 808.536 0.468953 804.593 0.570949 800.614C-1.31224 764.726 -2.38223 641.13 63.4865 558.861C87.9252 528.455 121.181 508.027 153.452 488.37C179.987 472.224 207.422 455.522 229.892 433.253C291.566 372.14 341.813 288.329 382.815 214.412C390.904 199.851 399.25 181.436 408.067 161.993C441.108 89.1887 482.196 -1.73082 556.111 0.0250455C632.081 1.86656 700.646 51.8445 766.986 100.152C807.902 130.13 850.188 160.794 893.373 179.509C908.894 185.846 924.932 190.832 941.309 194.412C976.661 202.977 1007.18 210.515 1023.83 258.651C1038.08 300.107 1040.3 341.605 1042.49 381.733C1045.53 437.707 1048.39 490.639 1081.01 544.472C1100.52 576.805 1134.04 606.013 1169.56 636.933C1225.2 685.326 1282.55 735.433 1285.85 800.314C1287.86 839.928 1313.88 868.835 1339.05 897.143C1367.77 929.263 1397.47 962.453 1389.76 1010.72C1377.69 1086.26 1263.12 1160.35 1187.28 1209.39C1170.16 1220.52 1155.26 1230.12 1143.32 1238.51C1131.38 1246.9 1117.34 1258 1102.66 1269.52C1040.43 1318.42 962.965 1379.32 896.669 1364.29C857.293 1355.38 824.851 1325.4 793.479 1296.41C756.243 1262.15 721.061 1229.47 677.277 1233.33C632.637 1237.27 588.725 1266.39 542.244 1297.18C492.939 1329.86 441.964 1363.65 386.967 1368.36C382.088 1368.83 377.422 1369 372.929 1369ZM223.129 766.524C230.288 766.306 237.398 767.773 243.887 770.807C304.62 801.556 276.672 969.391 258.14 1080.4C251.506 1121.29 246.284 1153.71 246.284 1169.99C248.167 1251.66 266.314 1308.49 300.169 1338.89C322.168 1358.68 351.143 1367.16 386.282 1364.12C440.167 1359.54 490.671 1326.05 539.548 1293.67C586.628 1262.53 630.84 1233.16 676.507 1229.13C722.174 1225.1 758.083 1258.21 796.004 1293.37C826.948 1321.98 858.962 1351.57 897.225 1360.26C961.425 1374.82 1038.12 1314.65 1099.62 1266.26C1114.35 1254.7 1128.26 1243.78 1140.46 1235.17C1152.65 1226.56 1167.33 1217.05 1184.58 1205.92C1259.74 1157.31 1373.37 1083.86 1385.14 1010.16C1392.5 963.909 1364.81 933.074 1335.45 900.141C1309.77 871.448 1283.24 841.812 1281.18 800.699C1277.97 737.531 1221.26 688.067 1166.35 640.273C1130.57 609.139 1096.8 579.717 1076.94 546.827C1043.94 492.138 1040.9 436.208 1037.99 382.161C1035.85 342.333 1033.71 301.134 1019.55 260.278C1003.84 214.112 975.848 207.26 940.324 198.695C923.694 195.065 907.411 189.992 891.661 183.534C848.091 164.434 805.548 133.599 764.46 103.621C698.677 55.6988 630.626 5.97786 555.983 4.30764C485.021 2.46613 444.49 91.9296 411.962 163.749C403.102 183.32 394.842 201.778 386.582 216.51C345.408 290.685 294.947 374.966 232.931 436.293C210.076 458.948 182.427 475.736 155.891 491.967C123.92 511.41 90.8356 531.538 66.8677 561.516C1.72655 642.629 2.79653 764.854 4.67972 800.4C4.52618 803.712 5.19655 807.011 6.63074 810.001C8.06492 812.991 10.2181 815.578 12.8973 817.53C30.7448 829.179 76.3693 811.92 120.496 795.218C157.86 781.128 196.208 766.524 223.301 766.524H223.129Z" fill="#505243"/>
<path d="M378.407 1346.43C347.891 1346.43 322.382 1337.14 302.523 1318.68C262.291 1281.42 252.405 1213.93 251.163 1163.91C250.607 1140.57 256.128 1104.98 262.548 1063.78C278.298 962.41 299.912 823.654 234.6 793.59C216.838 785.453 177.591 797.873 139.627 809.907C96.4852 823.954 51.5027 837.958 31.558 824.468C28.2956 822.124 25.6281 819.047 23.7698 815.484C21.9115 811.922 20.9142 807.972 20.8581 803.954C15.9361 739.03 29.418 647.682 82.5753 586.013C107.314 557.191 140.312 539.161 172.198 521.774C200.489 506.356 229.678 490.382 253.517 466.914C314.25 406.743 355.723 324.86 389.792 252.784C396.383 238.823 403.402 220.793 410.849 201.692C440.809 124.606 481.897 19.1253 557.524 22.9796C624.848 26.4057 688.063 68.6321 749.224 109.445C783.464 132.186 818.602 155.74 853.955 172.014C872.651 179.856 892.159 185.601 912.12 189.144C951.923 197.71 989.544 205.804 1004.99 253.383C1018.18 293.768 1022.97 333.939 1027.59 372.782C1034.74 432.995 1041.5 489.826 1076.9 547.384C1095.09 576.934 1123.98 605.37 1155.05 635.477C1206.75 686.011 1260.25 738.259 1265.13 800.442C1267.91 835.902 1289.96 864.082 1311.27 891.319C1336.09 923.01 1361.73 955.772 1355.82 999.455C1345.08 1079.33 1243.43 1146.35 1169.26 1195.26C1153.21 1205.83 1138.1 1215.81 1125.43 1224.85C1114.35 1232.81 1101.85 1242.75 1088.67 1253.24C1027.76 1301.63 951.966 1361.89 884.214 1338.51C848.776 1326.3 818.645 1300.26 789.498 1275.08C754.274 1244.63 721.019 1215.9 681.686 1213.54C637.088 1210.97 591.806 1241.85 544.085 1274.57C494.523 1308.32 443.377 1343.35 386.624 1346.43C383.842 1346.43 381.103 1346.43 378.407 1346.43ZM219.663 786.781C225.409 786.571 231.133 787.609 236.44 789.822C304.663 821.17 283.52 956.115 266.828 1064.51C260.451 1105.49 254.93 1140.91 255.486 1163.86C256.685 1213.11 266.314 1279.49 305.391 1315.64C326.191 1334.91 353.455 1343.73 386.368 1342.06C442.007 1339.11 492.597 1304.46 541.56 1270.89C590.522 1237.31 635.762 1206.39 681.814 1209.39C722.602 1211.79 756.414 1240.99 792.152 1271.91C820.999 1296.84 850.83 1322.62 885.455 1334.57C951.024 1357.14 1025.8 1297.74 1085.89 1249.94C1099.11 1239.45 1111.57 1229.47 1122.82 1221.46C1135.66 1212.34 1150.73 1202.36 1166.78 1191.74C1240.26 1143.31 1340.97 1076.93 1351.46 999.026C1357.11 957.143 1333.14 926.522 1307.8 894.103C1286.06 866.352 1263.63 837.658 1260.72 800.913C1255.97 740.315 1203.07 688.667 1151.93 638.689C1120.9 608.368 1091.58 579.76 1073.13 549.739C1037.22 491.41 1030.12 431.411 1023.23 373.425C1018.61 334.881 1013.85 294.796 1000.8 254.839C986.077 209.787 951.324 202.292 910.921 193.641C890.647 190.006 870.837 184.131 851.858 176.125C816.248 159.723 780.81 136.04 746.527 113.214C685.88 72.7006 623.136 30.8596 557.01 27.562C484.55 23.9218 444.019 127.732 414.53 203.577C407.083 222.72 400.021 240.793 393.344 254.968C359.104 327.344 317.46 409.655 256.385 470.297C232.289 494.194 202.8 510.296 174.252 525.971C142.709 543.101 110.053 561.045 85.8281 589.267C33.698 649.952 20.3017 740.015 25.1381 804.083C25.1678 807.429 25.9808 810.721 27.512 813.696C29.0431 816.671 31.2497 819.245 33.9548 821.213C52.1875 833.547 95.9716 819.671 138.343 806.224C169.245 796.16 198.819 786.781 219.663 786.781Z" fill="#505243"/>
<path d="M385.298 1323.52C355.338 1323.52 330.642 1314.95 311.168 1298.08C280.481 1271.44 263.276 1224.46 259.809 1158.47C258.696 1135.94 263.062 1102.79 268.112 1064.25C280.952 967.378 296.659 846.823 235.584 816.888C214.997 806.824 178.703 816.888 143.608 826.438C106.757 836.588 71.918 846.181 53.3857 834.018C49.8289 831.534 46.8618 828.297 44.6946 824.538C42.5274 820.778 41.2133 816.587 40.8454 812.263C32.2854 752.82 52.1017 663.871 106.457 608.796C131.196 583.743 162.097 568.711 192.057 554.15C222.017 539.59 251.976 525.072 276.715 500.704C335.907 442.246 372.201 361.048 402.546 282.034C406.826 270.771 411.619 256.638 416.627 241.692C442.992 163.021 482.795 44.1359 560.177 49.1894C621.081 53.0866 678.989 88.0326 734.971 121.608C771.865 143.835 810.042 166.832 849.118 181.222C866.968 187.324 885.468 191.319 904.244 193.128C938.013 197.41 967.245 201.307 987.276 244.519C997.548 266.703 999.602 294.411 1001.61 321.263C1002.6 334.453 1003.5 346.958 1005.34 358.479C1017.49 434.409 1038.89 495.522 1072.75 550.724C1089.87 578.733 1115.16 605.97 1141.91 634.792C1189.42 685.883 1238.51 738.73 1244.33 800.143C1247.37 832.005 1265.73 859.757 1283.58 886.566C1307.67 922.797 1332.58 960.312 1317.82 1007.34C1294.36 1082.11 1210.43 1139.71 1143.02 1186C1129.54 1195.26 1116.79 1203.99 1105.06 1212.47C1095.39 1219.45 1084.52 1228.06 1073.05 1237.18C1021.69 1277.91 951.281 1333.71 891.233 1317.65C868.635 1311.57 849.118 1291.96 830.244 1272.94C822.283 1264.57 813.852 1256.67 804.992 1249.26C767.328 1219.67 735.228 1196.8 693.413 1194.44C648.815 1191.91 602.891 1221.76 554.271 1253.41C505.65 1285.06 455.532 1317.65 400.748 1322.66C395.441 1323.26 390.305 1323.52 385.298 1323.52ZM213.799 808.366C221.98 808.077 230.118 809.659 237.596 812.991C301.453 844.254 285.403 966.479 272.477 1064.72C267.47 1103.01 263.104 1136.11 264.217 1158.25C267.47 1223.05 284.205 1269 313.993 1294.87C335.778 1313.8 364.839 1321.72 400.363 1318.51C454.077 1313.63 503.81 1281.25 551.917 1249.99C601.137 1217.95 647.703 1187.63 693.67 1190.33C736.726 1192.77 769.382 1216.03 807.602 1246C816.634 1253.49 825.21 1261.51 833.282 1270.03C851.772 1288.62 870.86 1307.84 892.346 1313.58C950.297 1329.13 1019.72 1274.1 1070.39 1233.93C1081.91 1224.76 1092.78 1216.15 1102.54 1209.09C1114.35 1200.52 1127.1 1191.96 1140.58 1182.54C1207.48 1136.58 1290.6 1079.54 1313.75 1006.18C1327.88 961.083 1304.64 926.094 1280.03 889.05C1261.92 861.812 1243.22 833.633 1240.09 800.7C1234.4 740.743 1185.78 688.41 1138.79 637.961C1111.87 608.968 1086.44 581.602 1069.07 553.208C1034.83 497.535 1013.43 435.908 1001.14 359.421C999.26 347.644 998.318 335.096 997.334 321.82C995.365 295.396 993.353 268.03 983.381 246.574C964.335 205.461 937.585 201.992 903.688 197.581C884.604 195.741 865.802 191.674 847.663 185.462C808.202 170.901 769.853 147.818 732.746 125.505C674.624 90.5593 619.754 57.4977 560.22 53.6005C486.134 48.6755 446.972 165.762 421.035 243.191C415.985 258.18 411.277 272.356 406.911 283.704C376.352 363.147 339.844 444.859 280.053 503.873C254.887 528.755 224.071 543.701 194.454 558.133C164.836 572.566 134.106 587.383 109.881 611.966C56.51 666.012 37.1218 753.291 45.6817 811.792C45.9546 815.492 47.0442 819.087 48.8723 822.315C50.7003 825.544 53.2211 828.327 56.2533 830.464C73.3731 841.556 108.726 831.834 143.051 822.37C167.575 815.389 193.127 808.366 213.799 808.366Z" fill="#505243"/>
<path d="M919.909 1295.04C907.78 1295.05 895.792 1292.44 884.771 1287.37C856.437 1274.53 832.897 1253.46 810.128 1233.07C778.884 1205.15 749.395 1178.77 711.303 1176.67C672.484 1174.57 617.486 1200.87 559.236 1228.74C474.792 1269.34 387.523 1310.93 329.145 1278.47C295.632 1259.79 275.859 1218.85 268.669 1153.24C266.443 1132.86 269.31 1101.85 272.563 1066.22C280.824 976.072 291.096 863.825 229.336 838.044C210.932 830.378 181.657 837.83 153.323 845.11C121.609 853.247 91.6488 860.913 74.3149 849.178C70.4237 846.299 67.2085 842.602 64.8945 838.349C62.5805 834.095 61.2235 829.387 60.9186 824.554C52.3587 760.315 78.5093 683.785 124.69 638.603C150.37 613.507 182.127 599.589 212.858 586.141C243.588 572.694 275.131 558.861 300.554 533.936C364.026 471.667 393.9 380.919 420.393 300.878C423.218 292.312 426.385 281.777 429.681 270.642C451.723 196.81 488.616 73.2575 565.356 78.311C617.914 81.8227 667.006 107.775 718.964 135.312C759.153 156.725 800.755 178.609 843.982 189.102C859.105 192.374 874.521 194.096 889.992 194.241C922.862 195.568 951.324 196.725 970.199 237.923C990.144 281.563 999.431 328.586 1008.42 374.067C1018.78 426.615 1029.48 481.132 1056.7 531.281C1073 561.259 1098.13 592.008 1124.75 624.342C1170.97 680.53 1218.91 738.645 1223.83 800.314C1226.4 831.234 1241.72 858.343 1256.53 884.553C1275.49 918.043 1295.05 952.646 1287.6 995.086C1275.15 1066.18 1185.27 1129.05 1119.61 1174.96C1107.12 1183.73 1095.3 1192.09 1085.16 1199.54C1075.02 1206.99 1065.21 1215.13 1054.39 1223.99C1014.8 1256.5 967.674 1295.04 919.909 1295.04ZM706.809 1172.21C708.436 1172.21 709.976 1172.21 711.56 1172.21C751.107 1174.36 781.152 1201.25 812.953 1229.69C835.508 1249.82 858.791 1270.67 886.525 1283.26C943.406 1308.96 1000.84 1262.06 1051.48 1220.57C1062.35 1211.66 1072.62 1203.43 1082.42 1195.94C1092.22 1188.45 1104.46 1180.09 1117 1171.32C1182.01 1125.83 1271.08 1063.57 1283.24 994.187C1290.43 953.288 1272.07 920.869 1252.63 886.523C1237.61 859.928 1222.03 832.391 1219.42 800.528C1214.46 740.315 1167.08 682.628 1121.28 626.954C1094.53 594.492 1069.28 563.786 1052.8 533.251C1025.28 482.331 1014.5 427.685 1004.05 374.795C995.151 329.571 985.949 282.805 966.176 239.636C948.2 200.879 922.52 199.851 889.607 198.695C873.877 198.5 858.206 196.735 842.827 193.427C799.043 182.806 757.227 160.665 716.782 139.252C665.422 111.972 616.545 86.1909 564.885 82.7649C491.527 78.0112 455.275 199.466 433.619 272.056C430.28 283.19 427.156 293.726 424.288 302.419C397.795 382.932 367.75 474.151 303.55 537.191C277.571 562.63 245.557 576.677 214.57 590.21C183.583 603.743 152.767 617.319 127.686 641.858C82.4041 685.969 56.6814 760.957 65.1558 823.954C66.5254 834.189 70.2918 841.298 76.7117 845.581C92.462 856.245 122.85 848.45 152.296 840.913C181.742 833.376 211.231 825.795 231.005 834.061C295.632 861.084 285.232 975.001 276.843 1066.56C273.59 1102.11 270.766 1132.77 272.948 1152.73C279.925 1216.97 299.013 1256.75 331.242 1274.7C387.566 1306.09 473.936 1264.76 557.395 1224.76C613.848 1197.78 667.305 1172.21 706.809 1172.21Z" fill="#505243"/>
<path d="M921.578 1272.86C912.55 1272.89 903.615 1271.03 895.342 1267.42C878.522 1260.05 863.156 1242.15 848.262 1224.85C840.589 1215.32 832.159 1206.42 823.053 1198.25C793.864 1174.57 763.133 1161.17 734.115 1159.41C697.265 1157.18 642.01 1182.36 583.546 1209C497.433 1248.27 399.807 1292.77 337.019 1259.19C304.706 1242.06 284.547 1206.43 275.473 1150.76C272.221 1130.72 273.719 1101.29 275.473 1067.25C279.753 988.791 284.59 891.191 229.592 866.394C213.628 859.2 188.676 863.825 164.537 868.322C136.075 873.632 109.197 878.6 93.3178 866.651C85.8707 861.084 81.6763 852.433 80.4779 840.228C74.1007 775.989 100.765 707.082 148.401 664.641C174.081 641.901 204.768 629.653 234.471 617.79C265.801 605.285 298.115 592.394 323.88 567.212C382.644 509.74 406.013 428.37 428.568 349.699C430.323 343.532 432.12 337.408 433.875 331.327C436.101 323.618 438.583 314.196 441.194 304.432C460.967 229.872 493.923 105.077 571.048 109.702C616.459 112.4 660.2 131.544 706.509 151.8C744.045 168.203 782.864 185.205 822.454 192.485C839.035 195.031 855.861 195.578 872.572 194.112C904.244 192.442 931.636 190.986 953.892 229.273C978.887 272.484 990.229 325.417 1001.23 376.551C1010.99 422.118 1021.04 469.226 1040.73 509.868C1056.74 543.016 1081.39 576.72 1107.46 612.436C1151.8 673.121 1197.68 735.861 1203.03 800.228C1205.38 828.451 1217.2 854.617 1228.71 879.927C1246.04 918.471 1263.98 957.956 1247.71 1004.12C1224.64 1069.73 1150.73 1123.74 1091.32 1167.16C1081.35 1174.44 1071.98 1181.29 1063.25 1187.89C1055.24 1193.97 1046.47 1201.34 1037.18 1209.3C1002.81 1238.21 961.681 1272.86 921.578 1272.86ZM729.536 1155C731.219 1155 732.846 1155 734.415 1155C764.375 1156.8 795.875 1170.54 825.792 1194.78C835.077 1203.12 843.665 1212.2 851.472 1221.94C866.024 1239.07 881.047 1256.2 897.011 1263.35C942.464 1283.26 993.353 1240.39 1034.23 1205.92C1043.56 1198.04 1052.37 1190.59 1060.51 1184.51C1068.64 1178.42 1078.65 1171.02 1088.63 1163.74C1147.56 1120.7 1220.88 1067.12 1243.52 1002.75C1259.18 958.171 1242.4 921.04 1224.64 881.726C1213.04 856.031 1201.06 829.564 1198.66 800.571C1193.4 737.445 1147.9 675.177 1103.95 614.963C1077.75 579.075 1052.97 545.2 1036.79 511.753C1016.89 470.597 1006.84 423.274 996.948 377.45C986.035 326.616 974.778 274.068 949.869 231.457C929.025 195.397 904.116 196.725 872.572 198.395C855.531 199.891 838.372 199.316 821.47 196.682C781.366 189.316 742.333 172.228 704.583 155.74C658.617 135.612 615.218 116.64 570.578 113.985C497.048 109.702 464.52 232.27 445.132 305.546C442.478 315.438 440.038 324.774 437.77 332.526C436.015 338.607 434.26 344.731 432.463 350.898C409.736 430.083 386.239 512.01 326.662 570.253C300.297 595.948 267.556 609.139 235.841 621.644C206.48 633.336 175.921 645.455 151.055 667.725C104.403 709.18 78.2951 776.674 84.5011 839.585C85.6139 850.549 89.2518 858.215 95.6718 863.011C110.053 873.846 137.273 868.793 163.552 863.911C188.333 859.285 213.97 854.532 231.133 862.283C288.827 888.279 283.648 987.506 279.539 1067.25C277.785 1101.04 276.244 1130.25 279.539 1149.86C288.399 1204.12 307.787 1238.6 338.86 1255.21C399.807 1287.8 496.406 1243.73 581.62 1204.89C638.287 1179.41 691.786 1155 729.536 1155Z" fill="#505243"/>
<path d="M400.363 1254.44C379.928 1254.98 359.665 1250.57 341.299 1241.59C311.34 1225.92 290.967 1195.08 281.38 1149.95C277.1 1130.72 277.4 1101.77 277.528 1071.1C277.828 1005.66 278.17 924.21 236.569 898.685C222.273 889.906 199.162 891.961 176.649 893.889C151.996 896.073 126.488 898.171 111.979 885.923C104.788 879.628 100.765 871.062 100.037 858.643C98.0594 825.896 104.124 793.163 117.703 763.302C131.281 733.441 151.96 707.36 177.933 687.339C202.329 668.539 230.662 658.003 258.054 647.811C289.255 636.205 321.483 624.214 347.077 600.06C384.57 564.643 406.997 480.618 430.922 391.669C464.092 267.73 498.503 139.723 578.068 143.278C616.587 144.948 654.636 158.053 695.082 171.929C732.874 184.776 772.122 198.309 811.026 201.393C827.071 202.351 843.173 201.432 859.005 198.652C887.938 194.369 910.793 191.2 938.056 223.32C955.904 244.304 963.736 285.118 969.942 317.879C972.467 331.198 974.864 343.789 977.603 353.382C994.412 413.854 1016.79 472.635 1044.46 528.969C1058.41 557.105 1076.77 586.141 1096.2 616.933C1134.29 677.318 1173.71 739.758 1182.36 800.271C1185.1 819.671 1192.37 840.742 1200.03 863.054C1213.64 902.54 1227.72 943.438 1218.95 981.254C1202.13 1054.06 1126.89 1111.1 1066.46 1157.05C1057.9 1163.61 1049.34 1169.9 1041.76 1175.98C1034.18 1182.06 1025.62 1189.43 1017.02 1197.1C982.782 1227.5 943.834 1261.98 901.462 1245.15L900.949 1244.93L900.606 1244.55C883.486 1224.76 866.367 1205.03 849.247 1185.36C824.594 1157.95 791.51 1142.02 760.951 1142.88C725.983 1143.78 672.698 1166.35 616.245 1190.24C544.127 1220.78 464.563 1254.44 400.363 1254.44ZM205.196 887.893C218.036 887.893 229.678 889.52 238.623 895.002C282.321 921.768 281.936 1004.55 281.637 1071.06C281.637 1101.51 281.38 1130.25 285.403 1149C294.947 1193.46 313.822 1222.49 343.183 1237.74C410.421 1272.73 518.961 1226.77 614.747 1186.35C671.585 1162.28 725.256 1139.58 760.994 1138.64V1140.78V1138.64C792.922 1137.83 827.119 1154.23 852.628 1182.54C869.748 1202.15 886.739 1221.76 903.602 1241.38C943.278 1256.8 980.941 1223.39 1014.2 1193.93C1022.76 1186.22 1031.06 1178.94 1039.11 1172.51C1047.15 1166.09 1055.2 1160.09 1063.76 1153.71C1123.68 1108.23 1198.24 1051.57 1214.71 980.397C1223.27 943.738 1209.32 903.31 1195.92 864.51C1188.18 842.026 1180.86 820.785 1178.03 800.956C1169.47 741.385 1130.36 679.331 1092.43 619.289C1072.96 588.454 1054.56 559.332 1040.48 530.939C1012.68 474.346 990.201 415.292 973.323 354.538C970.541 344.774 968.144 332.098 965.576 318.693C959.456 286.402 951.795 246.232 934.675 226.103C908.995 195.783 888.194 198.78 859.476 202.892C843.332 205.715 826.915 206.649 810.556 205.675C770.923 202.549 731.59 189.059 693.541 175.997C653.438 162.207 615.517 149.188 577.768 147.561H574.858C500.643 147.561 467.259 272.355 434.903 393.082C410.935 482.631 388.251 567.255 349.902 603.443C323.666 628.239 291.01 640.359 259.424 652.093C232.331 662.2 204.298 672.607 180.415 691.022C155.079 710.579 134.903 736.034 121.64 765.173C108.378 794.312 102.431 826.252 104.317 858.215C105.088 869.307 108.597 877.229 114.718 882.54C127.857 893.76 152.467 891.619 176.264 889.52C185.979 888.75 195.866 887.893 205.196 887.893Z" fill="#505243"/>
<path d="M415.129 1234.48C393.829 1234.96 372.671 1230.89 353.069 1222.53C323.366 1209.13 301.71 1183.78 288.399 1147.16C280.866 1126.3 279.839 1096.8 278.341 1065.53C276.116 1012.26 273.633 951.832 236.997 928.492C224.499 920.483 205.368 920.612 186.921 920.697C154.607 920.912 121.223 921.083 119.383 879.114C114.375 763.055 185.937 729.737 261.692 694.191C299.313 676.589 338.261 658.388 368.691 629.138C406.184 592.95 425.701 510.125 446.373 422.417C474.835 301.562 504.409 176.511 585.857 177.753C618.128 178.224 650.656 186.061 685.152 194.326C725.213 203.962 766.472 213.941 807.175 211.071C820.906 209.821 834.465 207.107 847.62 202.977C874.456 195.44 895.684 189.487 922.819 221.178C939.939 241.135 947.643 272.184 954.448 299.592C956.76 308.971 958.985 317.836 961.425 325.973C984.151 400.662 1004.7 456.935 1027.98 508.455C1041.67 538.733 1059.39 569.567 1078.14 602.201C1115.33 666.996 1153.77 733.933 1161.68 800.228C1164.46 819.614 1168.43 838.808 1173.58 857.701C1184.54 901.897 1195.92 947.635 1180.52 990.804C1158.56 1052.39 1100.27 1099.15 1048.82 1140.44C1039.19 1148.15 1030.08 1155.43 1021.34 1162.75C1015.35 1167.72 1008.5 1174.31 1001.49 1181.29C975.506 1206.69 943.192 1238.34 913.361 1225.58H912.804L912.419 1225.02C899.579 1206.26 886.482 1187.5 873.043 1169.35C851.387 1141.68 821.384 1126.22 790.739 1126.99C754.06 1127.98 699.062 1149.69 640.94 1172.69C565.827 1201.89 483.266 1234.48 415.129 1234.48ZM193.298 916.286C210.418 916.286 227.238 917.057 239.265 924.852C277.785 949.519 280.353 1011.1 282.621 1065.45C283.905 1096.37 285.103 1125.41 292.422 1145.79C305.262 1181.76 325.806 1205.75 354.824 1218.59C428.012 1251.66 540.233 1207.37 639.271 1168.27C697.821 1145.11 753.161 1123.26 790.611 1122.28C822.668 1121.42 853.955 1137.53 876.21 1166.35C889.607 1184.55 902.789 1203.22 915.415 1222.02C942.507 1232.94 973.409 1202.71 998.275 1178.34C1005.47 1171.32 1012.27 1164.68 1018.39 1159.58C1027.17 1152.26 1036.28 1144.93 1045.91 1137.23C1096.93 1096.28 1154.71 1049.95 1176.28 989.476C1191.22 947.507 1180.05 902.454 1169.22 858.857C1164.04 839.791 1160.04 820.426 1157.23 800.87C1149.4 735.475 1111.18 668.881 1074.2 604.471C1055.41 571.752 1037.65 540.831 1023.87 510.253C1000.5 458.562 979.914 402.118 957.145 327.258C954.62 318.993 952.394 310.128 950.083 300.663C943.363 273.726 935.788 243.191 919.353 224.005C894.015 194.369 874.926 199.765 848.562 207.174C835.097 211.377 821.223 214.134 807.175 215.397C765.958 218.266 724.229 208.245 683.826 198.523C649.586 190.301 617.272 182.549 585.386 182.078H584.316C506.977 182.078 478.087 304.774 450.139 423.445C429.339 511.795 409.693 595.22 371.259 632.265C340.444 661.986 301.153 680.358 263.19 698.131C188.761 732.906 118.484 765.796 123.363 878.814C124.99 916.715 154.95 916.543 186.621 916.329L193.298 916.286Z" fill="#505243"/>
<path d="M427.755 1214.61C371.687 1214.61 324.222 1195.98 296.702 1142.71C286.045 1122.07 283.092 1094.79 280.01 1065.88C275.388 1023.05 270.637 978.598 238.751 957.485C227.538 950.033 211.745 948.278 196.508 946.607C168.175 943.481 138.942 940.269 138.686 900.527C138.001 793.076 208.92 758.344 284.205 721.6C321.398 703.399 359.874 684.555 389.192 656.033C425.315 620.83 442.35 540.403 460.411 455.179C485.535 336.509 511.771 213.769 594.117 213.255C619.913 213.742 645.649 215.931 671.157 219.808C710.404 224.818 750.978 230 789.412 223.448C803.134 220.85 816.587 216.993 829.601 211.928C855.966 202.463 876.681 194.797 908.225 219.337C929.068 235.525 938.184 272.655 945.931 302.462C948.628 313.254 951.195 323.489 954.02 331.541L960.483 350.256C976.233 395.823 992.54 442.974 1011.54 488.241C1024.77 519.761 1041.5 551.752 1059.44 585.627C1096.37 655.819 1134.55 728.409 1141.27 800.271C1142.81 816.716 1145.55 833.59 1148.25 849.906C1156.38 899.97 1164.81 951.704 1140.93 1001.17C1116.32 1052.04 1065.77 1095.38 1021.09 1133.5C1014.11 1139.5 1007.26 1145.32 1000.76 1151.02C1000.37 1151.36 999.217 1152.6 997.419 1154.44C958.899 1195.34 935.402 1211.53 924.06 1205.53L923.418 1205.15L923.119 1204.46C915.574 1186.72 906.926 1169.47 897.225 1152.81C879.677 1125.23 852.285 1109.99 822.283 1110.72C784.405 1111.79 727.481 1132.47 667.219 1154.36C589.538 1182.54 501.242 1214.61 427.755 1214.61ZM595.615 217.538H593.903C514.81 218.009 489.173 339.035 464.391 456.079C446.202 541.731 429.039 623.1 391.931 659.074C361.972 688.11 323.452 707.082 285.874 725.454C212.044 761.599 142.281 795.731 142.965 900.484C142.965 936.458 168.089 939.027 196.936 942.368C212.729 944.081 229.036 945.879 241.105 953.888C274.66 976.114 279.625 1021.51 284.247 1065.24C287.329 1093.76 290.197 1120.65 300.511 1140.57C327.09 1191.96 373.271 1210.07 428.012 1210.07C500.771 1210.07 588.511 1178.17 665.593 1150.12C726.155 1128.1 783.421 1107.29 822.026 1106.22C853.569 1105.41 882.288 1121.42 900.735 1150.37C910.336 1166.96 918.912 1184.13 926.414 1201.76C933.134 1204.38 950.425 1197.48 994.038 1151.23C995.964 1149.22 997.205 1147.89 997.633 1147.55C1004.18 1141.81 1010.99 1135.98 1018.01 1129.99C1062.3 1092.09 1112.46 1049.13 1136.69 999.069C1160.02 950.804 1151.67 899.713 1143.62 850.335C1140.97 833.932 1138.19 816.973 1136.65 800.442C1130.01 729.394 1092.01 657.189 1055.33 587.383C1037.44 553.422 1020.57 521.345 1007.26 489.654C988.174 444.259 971.868 397.064 956.117 351.412L949.612 332.654C946.787 324.432 944.176 314.153 941.437 303.276C934.076 274.068 924.916 237.709 905.271 222.463C875.697 199.551 856.822 206.318 830.714 215.696C817.465 220.847 803.767 224.76 789.798 227.388C750.679 234.069 709.805 228.844 670.301 223.791C645.562 220.139 620.617 218.051 595.615 217.538Z" fill="#505243"/>
<path d="M443.163 1194.91C388.379 1194.91 340.443 1179.15 307.102 1135.38C292.208 1115.9 286.944 1090.8 281.808 1066.56C275.088 1034.44 268.668 1004.12 242.175 985.194C231.861 977.785 218.807 974.83 206.138 971.917C182.085 966.307 157.047 960.654 157.903 922.454C160.214 822.883 234.471 783.612 306.289 745.625C342.369 726.568 379.648 706.868 407.81 679.716C443.034 645.755 457.929 568.368 473.722 486.014C495.849 370.769 518.747 251.628 602.121 248.972C618.856 248.416 635.804 248.972 653.78 249.315C693.969 250.3 735.571 251.328 773.619 240.75C786.678 236.807 799.333 231.63 811.412 225.29C838.333 212.185 861.616 200.836 893.245 225.846C935.488 259.251 961.253 349.099 982.011 421.304C990.871 452.182 999.131 481.26 1007.69 501.517C1018.39 527.427 1031.27 553.979 1044.97 582.116C1079.59 653.506 1115.46 727.338 1120.34 800.143C1120.81 807.38 1121.32 814.446 1121.84 821.341C1127.79 904.681 1132.15 964.937 1079.04 1038.38C1051 1076.93 1013.81 1111.19 977.903 1144.16C963.607 1157.23 948.884 1170.76 935.103 1184.12L931.764 1187.37L931.465 1182.71C928.726 1138.55 904.501 1094.66 856.651 1094.66H854.126C811.711 1095.98 751.963 1116.07 688.705 1137.48C606.786 1165.19 518.362 1194.91 443.163 1194.91ZM619.07 253.126C613.463 253.126 607.942 253.126 602.421 253.383C522.385 255.91 499.701 373.296 478.002 486.913C462.08 569.782 447.058 648.025 410.849 682.928C382.259 710.465 344.723 730.336 308.387 749.565C234.386 788.665 164.494 825.624 162.268 922.668C161.498 957.228 182.641 962.068 207.08 967.635C220.176 970.59 233.658 973.673 244.658 981.596C272.52 1001.64 279.368 1034.19 286.002 1065.66C291.01 1089.47 296.189 1114.06 310.484 1132.77C387.951 1234.27 547.123 1180.74 687.549 1133.54C751.15 1112.13 811.198 1092 854.211 1090.72C891.105 1089.43 930.01 1116.41 935.531 1178.17C948.371 1165.79 961.853 1153.37 974.992 1141.29C1010.77 1108.45 1047.75 1074.53 1075.57 1036.16C1127.83 963.952 1123.55 904.424 1117.64 822.027C1117.13 815.089 1116.62 808.023 1116.15 800.614C1111.31 728.666 1075.66 655.005 1041.2 584.214C1027.51 555.992 1014.58 529.397 1003.8 503.359C995.236 482.973 986.976 453.68 978.116 422.674C957.53 351.112 931.936 261.991 890.805 229.444C861.273 206.061 840.216 216.339 813.509 229.444C801.189 235.889 788.293 241.166 774.989 245.204C736.469 255.867 694.397 254.797 653.866 253.769C641.796 253.426 630.283 253.126 618.984 253.126H619.07Z" fill="#505243"/>
<path d="M461.224 1173.24C407.125 1173.24 358.205 1160.01 319.985 1123.74C303.893 1108.4 295.119 1088.49 286.644 1069.22C276.715 1046.69 267.342 1025.41 247.268 1010.46C238.059 1004.2 227.959 999.363 217.309 996.114C195.909 988.491 175.493 981.254 177.163 944.381C181.442 852.519 253.517 810.035 323.452 768.794C359.489 747.638 396.725 725.711 423.775 697.403C454.762 664.898 468.8 593.336 483.694 517.534C505.779 405.073 528.634 288.801 610.424 284.561H611.195C663.453 281.82 722.731 278.737 772.378 256.724C782.526 252.021 792.323 246.597 801.696 240.493C826.22 225.333 845.609 213.384 878.736 234.84C923.932 264.09 948.628 349.742 968.615 418.563C975.934 443.916 982.867 467.856 989.801 485.286C999.987 510.982 1011.97 537.234 1024.68 565.114C1060.04 642.586 1096.59 722.756 1099.75 800.228L1100.18 809.736C1103.43 887.294 1106.26 954.273 1058.75 1023.27C1043.81 1045.02 1024.51 1063.95 1005.98 1082.28C981.712 1106.26 956.588 1131.02 941.78 1161.55L937.885 1159.71C942.292 1150.71 944.296 1140.72 943.704 1130.72C943.111 1120.72 939.942 1111.04 934.504 1102.62C929.213 1094.75 921.94 1088.41 913.419 1084.24C904.898 1080.08 895.429 1078.23 885.969 1078.9C837.776 1080.65 775.118 1100.01 708.778 1120.52C627.202 1145.96 538.863 1173.24 461.224 1173.24ZM845.224 227.688C830.928 227.688 818.688 235.225 804.007 244.304C794.412 250.484 784.402 255.994 774.048 260.792C723.715 283.148 664.009 286.274 611.409 289.015H610.638C532.186 293.297 509.674 407.685 487.889 518.519C472.866 594.921 458.699 667.082 426.856 700.487C399.464 729.309 361.843 751.15 325.635 772.563C256.727 813.076 185.466 854.96 181.485 944.509C179.944 978.17 197.107 984.294 218.764 992.003C229.851 995.367 240.358 1000.41 249.922 1006.95C270.894 1022.58 280.909 1045.49 290.625 1067.38C299.185 1086.26 307.744 1105.92 323.024 1120.52C414.059 1207.25 569.978 1159.07 707.58 1116.54C774.176 1095.94 837.092 1076.5 885.883 1074.7C896.077 1074.05 906.264 1076.08 915.431 1080.59C924.599 1085.09 932.428 1091.92 938.142 1100.4C946.388 1112.92 949.697 1128.06 947.429 1142.88C962.495 1119.24 982.996 1099.03 1003.07 1079.37C1021.39 1061.21 1040.48 1042.37 1055.2 1020.95C1101.89 953.074 1099.07 886.78 1095.86 809.993L1095.43 800.485C1092.31 723.913 1055.93 644.085 1020.96 566.998C1008.12 539.076 996.221 512.738 985.992 486.999C978.973 469.355 972.039 445.33 964.592 419.848C944.947 351.755 920.465 266.959 876.638 238.566C867.459 231.937 856.534 228.154 845.224 227.688Z" fill="#505243"/>
<path d="M483.095 1146.86C432.121 1146.86 383.115 1137.01 337.576 1110.5C318.915 1099.58 305.391 1084.16 292.294 1069.22C281.306 1055.6 268.652 1043.41 254.63 1032.94C247.659 1028.34 240.364 1024.25 232.802 1020.7C211.873 1010.29 193.812 1001.3 196.294 965.237C202.115 882.154 271.022 835.517 337.533 790.464C373.485 766.139 410.678 741 435.973 710.765C461.267 680.53 476.076 616.162 491.227 548.412C515.623 439.163 540.875 326.231 617.871 319.764C672.013 315.224 719.307 302.077 758.426 280.707C768.358 275.091 777.909 268.825 787.016 261.949C812.054 243.833 830.115 230.771 865.425 255.139C914.859 289.4 942.079 376.166 963.864 446.015C970.841 468.37 977.432 489.44 983.937 505.971C992.497 527.384 1001.7 548.797 1011.63 571.538C1044.33 646.569 1078.18 724.169 1078.52 800.528C1078.82 876.03 1075.87 939.199 1035.73 1006.74C1028.71 1018.56 1014.54 1033.12 999.516 1048.53C986.788 1061.16 974.703 1074.43 963.308 1088.28L963.565 1089C969.385 1107.93 961.425 1127.55 943.235 1138.98L940.667 1140.57L939.982 1137.7C936.344 1122.49 945.032 1105.15 958.514 1087.55C953.378 1074.7 939.768 1062.11 915.715 1063.05C855.453 1065.32 789.327 1083.52 719.35 1102.79C640.641 1124.59 559.664 1146.86 483.095 1146.86ZM830.886 246.146C816.59 246.146 804.821 254.711 789.969 265.418C780.694 272.378 770.988 278.744 760.908 284.475C721.233 306.145 673.383 319.464 618.685 324.046C544.812 330.213 519.903 441.604 495.849 549.354C480.57 617.618 466.146 682.114 439.696 713.549C414.016 744.212 376.438 769.522 340.23 794.019C274.446 838.515 206.438 884.553 200.788 965.537C198.477 998.727 213.628 1006.35 235.028 1016.93C242.772 1020.56 250.24 1024.75 257.369 1029.48C271.725 1040.13 284.669 1052.56 295.889 1066.48C308.729 1081.12 321.997 1096.46 340.101 1106.86C451.894 1172.17 587.655 1134.83 718.964 1098.64C789.199 1079.33 855.581 1061.04 916.357 1058.77C941.223 1057.83 955.904 1070.25 962.238 1083.74C972.595 1070.89 985.221 1058.04 997.205 1045.54C1012.01 1030.33 1026.01 1015.94 1032.77 1004.55C1072.4 937.785 1075.23 877.872 1074.93 800.528C1074.59 725.069 1040.95 647.896 1008.38 573.251C998.447 550.467 989.031 528.926 980.642 507.556C974.093 490.896 967.459 469.74 960.44 447.342C938.784 378.136 911.777 291.97 863.542 258.694C850.488 249.743 840.173 246.146 830.886 246.146ZM960.697 1092.47C949.869 1107.08 942.807 1121.21 944.219 1133.54C950.804 1129.18 955.907 1122.91 958.85 1115.58C961.793 1108.24 962.437 1100.18 960.697 1092.47Z" fill="#505243"/>
<path d="M487.204 1115.51C444.211 1115.79 401.392 1110.03 360.003 1098.38C328.073 1089.14 297.463 1075.82 268.925 1058.77C230.833 1034.96 213.029 1009.9 215.982 984.209C225.184 903.996 288.442 856.502 349.603 810.507C384.955 783.955 421.549 756.46 447.1 723.013C468.971 694.448 483.523 637.062 498.931 576.292C524.611 475.222 553.543 360.663 625.533 353.596C669.573 349.314 713.144 331.712 758.811 300.192C766.986 294.539 773.962 288.801 780.211 283.747C803.109 264.861 818.26 252.356 854.383 278.094C900.949 311.242 927.656 388.628 949.141 450.811C954.662 466.828 959.884 481.946 964.934 494.794C972.339 513.637 980.471 532.823 989.073 553.165C1022.2 631.494 1059.74 720.187 1058.49 800.528C1057.55 859.5 1053.7 927.55 1019.76 988.963C1011.6 1002.01 1002.41 1014.38 992.283 1025.96C985.906 1033.76 979.443 1041.81 973.109 1049.99C976.391 1052.39 979.096 1055.49 981.027 1059.07C983.641 1065.32 984.596 1072.15 983.801 1078.88C983.005 1085.61 980.485 1092.02 976.486 1097.49C972.487 1102.96 967.143 1107.31 960.972 1110.1C954.802 1112.9 948.014 1114.06 941.266 1113.46L939.34 1113.2V1111.32C939.811 1092.09 951.923 1071.27 966.86 1051.1C959.819 1047.76 952.037 1046.29 944.262 1046.82C871.117 1048.49 796.689 1065.02 724.742 1081.08C647.104 1098.04 567.71 1115.51 487.204 1115.51ZM818.944 267.773C806.105 267.773 796.346 275.91 782.864 287.045C776.616 292.141 769.554 297.966 761.25 303.704C714.984 335.695 670.729 353.382 625.961 357.879C556.967 364.774 528.334 477.792 503.04 577.448C487.546 638.646 473.08 696.461 450.482 725.754C424.588 759.672 387.78 787.338 352.042 814.061C291.737 859.5 229.164 906.48 220.219 984.851C214.142 1037.87 309.756 1079.71 361.201 1094.4C484.379 1129.6 606.059 1102.62 723.801 1076.54C795.918 1060.52 870.561 1043.99 944.134 1042.28C952.863 1041.78 961.571 1043.58 969.386 1047.51C975.72 1039.15 982.225 1030.97 988.859 1023.09C998.811 1011.69 1007.87 999.535 1015.95 986.736C1049.42 926.351 1053.19 858.9 1054.13 800.443C1055.37 721.086 1018.01 632.779 985.05 554.836C976.49 534.493 968.273 515.222 960.868 496.378C955.775 483.53 950.554 468.284 944.99 452.225C923.59 390.598 897.268 313.94 851.815 281.563C838.033 271.756 827.804 267.773 818.944 267.773ZM943.663 1109.26C949.499 1109.6 955.321 1108.39 960.538 1105.75C965.755 1103.11 970.181 1099.13 973.366 1094.23C976.947 1089.54 979.192 1083.98 979.862 1078.12C980.533 1072.26 979.604 1066.33 977.175 1060.95C975.532 1057.91 973.238 1055.26 970.456 1053.2C956.374 1072.34 944.861 1091.62 943.663 1109.26Z" fill="#505243"/>
<path d="M761.678 486.143C755.236 486.078 748.82 485.303 742.547 483.83L741.862 483.573C713.873 465.915 687.118 446.37 661.784 425.073C639.785 398.906 610.895 389.313 575.799 396.294L574.943 392.011C611.708 384.688 641.967 394.795 664.823 421.989C689.827 442.993 716.224 462.281 743.831 479.719C788.985 489.526 801.696 463.573 819.287 427.685L823.181 419.762C830.629 404.816 836.021 384.046 842.013 362.076C852.756 321.819 864.954 276.424 892.517 257.238C929.111 231.971 967.973 254.84 1002.26 275.011C1010.82 280.064 1019.03 284.861 1026.95 288.801L1025.07 292.655C1016.98 288.586 1008.8 283.79 1000.12 278.694C965.277 258.223 929.282 237.067 894.914 260.75C868.678 278.865 856.694 323.661 846.165 363.189C840.216 385.373 834.652 406.358 827.034 421.69L823.139 429.57C807.902 460.661 795.447 486.143 761.678 486.143Z" fill="#505243"/>
<path d="M734.843 456.293C724.231 455.838 713.7 454.244 703.428 451.539H702.957C674.891 437.301 649.39 418.486 627.501 395.865L575.414 396.465V392.182L629.384 391.54L630.026 392.225C651.666 414.723 676.927 433.427 704.755 447.556C752.648 458.477 757.527 454.708 778.328 391.497C783.796 373.379 788.085 354.925 791.167 336.252C797.759 300.92 804.564 264.433 824.08 236.81C863.285 181.136 916.528 191.414 972.895 202.121L989.416 205.161L988.645 209.444L972.125 206.403C917.127 195.997 865.125 186.147 827.59 239.379C808.63 266.231 801.91 302.248 795.405 337.108C792.328 355.924 788.039 374.52 782.565 392.782C766.643 440.276 759.496 456.293 734.843 456.293Z" fill="#505243"/>
<path d="M700.732 455.265C687.25 455.265 675.052 442.803 660.842 428.542C638.672 406.144 613.549 380.748 576.185 396.165L574.558 392.225C614.576 375.694 641.925 403.317 663.881 425.544C678.433 440.233 690.973 452.995 703.77 450.726C715.027 448.756 726.454 434.966 738.652 408.585C753.889 375.694 761.251 344.988 767.799 317.879C782.693 255.91 794.506 206.96 887.21 177.282L888.494 181.564C798.101 210.515 787.144 256.039 771.95 319.079C765.359 346.402 757.912 377.322 742.547 410.598C729.707 438.734 717.424 452.867 704.541 455.137C703.277 455.283 702.003 455.326 700.732 455.265Z" fill="#505243"/>
<path d="M678.561 483.916L677.192 482.331C669.912 473.322 663.221 463.852 657.161 453.98C634.906 419.719 607.214 376.893 576.698 395.994L574.472 392.396C608.712 370.983 637.474 415.779 660.757 451.625C666.379 460.707 672.479 469.485 679.032 477.92C712.501 448.241 707.879 399.634 703.385 352.568C702.058 338.393 700.774 325.031 700.603 312.398C698.839 232.871 705.424 153.378 720.248 75.2273L724.528 76.041C709.771 153.912 703.215 233.116 704.969 312.355C704.969 324.774 706.424 338.05 707.751 352.183C712.031 398.777 717.209 451.582 680.23 482.588L678.561 483.916Z" fill="#505243"/>
<path d="M633.707 503.144L632.038 499.247C616.202 462.117 601.265 424.002 587.526 385.973L576.826 395.78L573.916 392.611L589.41 378.478L590.48 381.476C603.961 419.077 618.685 456.764 634.264 493.552C652.882 457.449 638.544 406.915 626.003 362.119C622.323 349.271 618.856 336.894 616.459 325.759L612.65 308.158C590.094 204.305 568.823 106.233 553.929 2.46602L558.209 1.86646C573.06 105.462 594.332 203.491 616.844 307.259L620.696 324.86C623.05 335.866 626.517 348.072 630.155 360.962C643.466 408.071 658.574 461.646 635.89 499.504L633.707 503.144Z" fill="#505243"/>
<path d="M587.869 520.575C567.41 425.073 535.91 330.213 505.479 238.437C487.889 185.547 469.741 130.858 453.906 76.6835L458.186 75.4844C473.979 129.574 492.126 184.22 509.545 237.11C532.529 306.274 556.069 377.193 575.072 448.841C572.318 430.675 571.715 412.246 573.274 393.938L577.554 394.452C573.616 427.343 582.99 476.336 592.106 519.718L587.869 520.575Z" fill="#505243"/>
<path d="M552.816 578.518L549.178 575.691C523.241 555.306 508.047 526.356 504.067 489.697C462.637 400.404 421.292 309.828 381.232 219.893L385.126 218.137C425.23 308.072 466.446 398.948 508.09 488.283V488.969C511.728 522.844 525.21 549.824 547.937 569.353C547.466 562.458 546.61 553.978 545.668 544.471C540.147 490.339 531.801 408.541 574.43 392.268L575.97 396.293C536.381 411.368 544.855 494.408 549.905 544C551.104 555.948 552.174 566.227 552.473 573.978L552.816 578.518Z" fill="#505243"/>
</g>
</svg>
