<svg width="1145" height="160" viewBox="0 0 1145 160" fill="none" xmlns="http://www.w3.org/2000/svg">
<path d="M2.0084 25V7.625H4.4584V25H2.0084ZM12.9648 25L20.2649 7.625H23.0399L30.3399 25H27.6649L25.9149 20.625L20.0398 20.65L17.4149 20.625L15.6649 25H12.9648ZM18.1898 18.6L20.0398 18.55H23.2899L25.1399 18.6L24.6399 17.375L22.1899 11.475L21.7899 10.025H21.5149L21.1649 11.475L18.6649 17.375L18.1898 18.6ZM31.9156 25V7.625H34.8156L40.5906 20.7L41.2156 22.775H41.4656L42.0906 20.7L47.8656 7.625H50.7656V25H48.3406V13.85L48.4656 11.75H48.1906L47.5906 13.85L42.5906 25H40.0906L35.0906 13.85L34.4906 11.75H34.2156L34.3656 13.85V25H31.9156ZM59.2539 25L66.5539 7.625H69.3289L76.6289 25H73.9539L72.2039 20.625L66.3289 20.65L63.7039 20.625L61.9539 25H59.2539ZM64.4789 18.6L66.3289 18.55H69.5789L71.4289 18.6L70.9289 17.375L68.4789 11.475L68.0789 10.025H67.8039L67.4539 11.475L64.9539 17.375L64.4789 18.6ZM85.1139 25V7.625H91.5389C94.1222 7.625 96.1305 8.38333 97.5639 9.9C98.9972 11.4167 99.7139 13.5667 99.7139 16.35C99.7139 19.1333 98.9972 21.275 97.5639 22.775C96.1305 24.2583 94.1222 25 91.5389 25H85.1139ZM87.5389 22.85L89.8639 22.8H91.5389C93.3389 22.8 94.7389 22.25 95.7389 21.15C96.7389 20.0333 97.2389 18.425 97.2389 16.325C97.2389 14.225 96.7389 12.6167 95.7389 11.5C94.7389 10.3833 93.3389 9.825 91.5389 9.825H89.8639L87.5389 9.775L87.5639 12.55V20.075L87.5389 22.85ZM101.984 25V7.625H114.709V9.8H107.159L104.409 9.75L104.434 11.825V13.075L104.409 15L107.159 14.95H113.434V17.125H107.159L104.409 17.075L104.434 19V20.8L104.409 22.9L107.159 22.85H114.709V25H101.984ZM122.575 25L115.7 7.625H118.35L123.475 20.95L123.925 22.575H124.2L124.625 20.95L129.725 7.625H132.375L125.525 25H122.575ZM133.966 25V7.625H146.691V9.8H139.141L136.391 9.75L136.416 11.825V13.075L136.391 15L139.141 14.95H145.416V17.125H139.141L136.391 17.075L136.416 19V20.8L136.391 22.9L139.141 22.85H146.691V25H133.966ZM148.859 25V7.625H151.309V19.95L151.284 22.875L160.984 22.85V25H148.859ZM169.979 25.25C167.429 25.25 165.462 24.4417 164.079 22.825C162.696 21.1917 162.004 19.025 162.004 16.325C162.004 13.6583 162.696 11.5 164.079 9.85C165.479 8.2 167.446 7.375 169.979 7.375C172.496 7.375 174.437 8.2 175.804 9.85C177.187 11.5 177.879 13.6583 177.879 16.325C177.879 19.0417 177.196 21.2083 175.829 22.825C174.462 24.4417 172.512 25.25 169.979 25.25ZM165.904 21.25C166.837 22.4833 168.196 23.1 169.979 23.1C171.762 23.1 173.112 22.4833 174.029 21.25C174.946 20.0167 175.404 18.375 175.404 16.325C175.404 14.3083 174.937 12.675 174.004 11.425C173.087 10.1583 171.746 9.525 169.979 9.525C168.212 9.525 166.854 10.1583 165.904 11.425C164.971 12.6917 164.504 14.325 164.504 16.325C164.504 18.3583 164.971 20 165.904 21.25ZM180.133 25V7.625H187.108C188.975 7.625 190.458 8.075 191.558 8.975C192.658 9.875 193.208 11.2167 193.208 13C193.208 14.7833 192.658 16.125 191.558 17.025C190.458 17.9083 188.975 18.35 187.108 18.35H184.908L182.558 18.3L182.583 20.45V25H180.133ZM182.558 16.25L184.908 16.2H187.283C188.45 16.2 189.333 15.9333 189.933 15.4C190.55 14.85 190.858 14.05 190.858 13C190.858 11.95 190.55 11.15 189.933 10.6C189.333 10.05 188.45 9.775 187.283 9.775H184.908L182.558 9.725L182.608 11.975V14L182.558 16.25ZM195.099 25V7.625H207.824V9.8H200.274L197.524 9.75L197.549 11.825V13.075L197.524 15L200.274 14.95H206.549V17.125H200.274L197.524 17.075L197.549 19V20.8L197.524 22.9L200.274 22.85H207.824V25H195.099ZM209.992 25V7.625H217.592C219.275 7.625 220.65 8.03333 221.717 8.85C222.783 9.66667 223.317 10.8917 223.317 12.525C223.317 13.8917 222.883 14.9667 222.017 15.75C221.167 16.5167 220.058 16.9167 218.692 16.95V17.225C219.625 17.325 220.383 17.6167 220.967 18.1C221.55 18.5667 222.017 19.3583 222.367 20.475L223.867 25H221.367L220.017 20.775C219.683 19.7583 219.208 19.0333 218.592 18.6C217.975 18.15 217.192 17.925 216.242 17.925H214.742L212.417 17.875L212.442 20.3V25H209.992ZM212.417 15.85L214.842 15.825H217.167C219.717 15.825 220.992 14.8083 220.992 12.775C220.992 10.725 219.717 9.7 217.167 9.7H214.842L212.417 9.675L212.442 11.85V13.55L212.417 15.85ZM225.959 25.2V22.55H228.684V25.2H225.959ZM231.525 25.2V22.55H234.25V25.2H231.525ZM237.091 25.2V22.55H239.816V25.2H237.091Z" fill="#D4D4D4"/>
<path d="M0 80.25V45.5H27.45V52.55H8.15V59.1H25.5V66.15H8.15V80.25H0Z" fill="#FFA9B8"/>
<path d="M30.5176 80.25V45.5H47.3176C50.9509 45.5 53.9009 46.3667 56.1676 48.1C58.4676 49.8 59.6176 52.3333 59.6176 55.7C59.6176 57.9667 58.8342 59.9333 57.2676 61.6C55.7342 63.2333 53.4676 64.2667 50.4676 64.7C52.7676 65 54.5509 65.7667 55.8176 67C57.1176 68.2 58.0842 69.8167 58.7176 71.85L61.3676 80.25H53.3676L51.1676 73.05C50.0342 69.3167 47.7842 67.45 44.4176 67.45H38.5176V80.25H30.5176ZM38.5176 60.7H46.0176C49.9509 60.7 51.9176 59.3 51.9176 56.5C51.9176 53.6667 49.9509 52.25 46.0176 52.25H38.5176V60.7Z" fill="#FFA9B8"/>
<path d="M79.3684 80.75C74.0017 80.75 69.8517 79.1333 66.9184 75.9C63.985 72.6667 62.5184 68.3167 62.5184 62.85C62.5184 57.4833 63.985 53.1667 66.9184 49.9C69.885 46.6333 74.035 45 79.3684 45C84.7017 45 88.8184 46.6333 91.7184 49.9C94.6184 53.1667 96.0684 57.4833 96.0684 62.85C96.0684 68.3167 94.6184 72.6667 91.7184 75.9C88.8184 79.1333 84.7017 80.75 79.3684 80.75ZM79.3684 73.75C82.1017 73.75 84.2017 72.7667 85.6684 70.8C87.135 68.8 87.8684 66.1333 87.8684 62.8C87.8684 59.5667 87.135 56.9667 85.6684 55C84.2017 53.0333 82.1017 52.05 79.3684 52.05C76.6017 52.05 74.4684 53.05 72.9684 55.05C71.4684 57.0167 70.7184 59.6 70.7184 62.8C70.7184 66.1333 71.4684 68.8 72.9684 70.8C74.4684 72.7667 76.6017 73.75 79.3684 73.75Z" fill="#FFA9B8"/>
<path d="M99.5605 80.25V45.5H110.011L123.311 70.1V45.5H131.361V80.25H120.911L107.611 55.8V80.25H99.5605Z" fill="#FFA9B8"/>
<path d="M146.176 80.25V52.55H134.576V45.5H165.926V52.55H154.326V80.25H146.176Z" fill="#FFA9B8"/>
<path d="M168.896 80.25V45.5H196.696V52.55H177.046V58.8H193.896V65.85H176.896V73.1H196.696V80.25H168.896Z" fill="#FFA9B8"/>
<path d="M200.586 80.25V45.5H211.036L224.336 70.1V45.5H232.386V80.25H221.936L208.636 55.8V80.25H200.586Z" fill="#FFA9B8"/>
<path d="M237.451 80.25V45.5H252.501C257.568 45.5 261.618 47.05 264.651 50.15C267.718 53.2167 269.251 57.4833 269.251 62.95C269.251 68.4167 267.718 72.6667 264.651 75.7C261.618 78.7333 257.568 80.25 252.501 80.25H237.451ZM245.601 73H251.701C254.635 73 256.918 72.15 258.551 70.45C260.218 68.7167 261.051 66.1833 261.051 62.85C261.051 59.5167 260.218 57 258.551 55.3C256.918 53.6 254.635 52.75 251.701 52.75H245.601V73Z" fill="#FFA9B8"/>
<path d="M293.295 80.25L283.545 45.5H291.945L298.495 71.75L306.045 45.5H313.945L321.545 71.75L328.045 45.5H336.445L326.695 80.25H316.845L309.995 57.2L303.145 80.25H293.295Z" fill="white"/>
<path d="M339.111 80.25V45.5H366.911V52.55H347.261V58.8H364.111V65.85H347.111V73.1H366.911V80.25H339.111Z" fill="white"/>
<path d="M370.801 80.25V45.5H387.551C395.817 45.5 399.951 48.6 399.951 54.8C399.951 56.6667 399.434 58.2333 398.401 59.5C397.401 60.7667 395.984 61.65 394.151 62.15C398.451 63.1833 400.601 65.9167 400.601 70.35C400.601 73.5833 399.484 76.05 397.251 77.75C395.051 79.4167 391.817 80.25 387.551 80.25H370.801ZM378.901 59.05H387.951C389.451 59.05 390.551 58.7333 391.251 58.1C391.984 57.4333 392.351 56.6 392.351 55.6C392.351 54.5667 392.001 53.7167 391.301 53.05C390.601 52.35 389.484 52 387.951 52H378.901V59.05ZM378.901 73.75H387.551C390.917 73.75 392.601 72.3833 392.601 69.65C392.601 67.0167 390.917 65.7 387.551 65.7H378.901V73.75Z" fill="white"/>
<path d="M404.196 70.35V63.5H424.196V70.35H404.196Z" fill="white"/>
<path d="M428.857 80.25V45.5H443.907C448.974 45.5 453.024 47.05 456.057 50.15C459.124 53.2167 460.657 57.4833 460.657 62.95C460.657 68.4167 459.124 72.6667 456.057 75.7C453.024 78.7333 448.974 80.25 443.907 80.25H428.857ZM437.007 73H443.107C446.041 73 448.324 72.15 449.957 70.45C451.624 68.7167 452.457 66.1833 452.457 62.85C452.457 59.5167 451.624 57 449.957 55.3C448.324 53.6 446.041 52.75 443.107 52.75H437.007V73Z" fill="white"/>
<path d="M464.16 80.25V45.5H491.96V52.55H472.31V58.8H489.16V65.85H472.16V73.1H491.96V80.25H464.16Z" fill="white"/>
<path d="M506.948 80.25L493.798 45.5H502.498L511.748 73.1L520.948 45.5H529.648L516.548 80.25H506.948Z" fill="white"/>
<path d="M532.275 80.25V45.5H560.075V52.55H540.425V58.8H557.275V65.85H540.275V73.1H560.075V80.25H532.275Z" fill="white"/>
<path d="M563.965 80.25V45.5H572.115V73.15H589.915V80.25H563.965Z" fill="white"/>
<path d="M608.03 80.75C602.664 80.75 598.514 79.1333 595.58 75.9C592.647 72.6667 591.18 68.3167 591.18 62.85C591.18 57.4833 592.647 53.1667 595.58 49.9C598.547 46.6333 602.697 45 608.03 45C613.364 45 617.48 46.6333 620.38 49.9C623.281 53.1667 624.73 57.4833 624.73 62.85C624.73 68.3167 623.281 72.6667 620.38 75.9C617.48 79.1333 613.364 80.75 608.03 80.75ZM608.03 73.75C610.764 73.75 612.864 72.7667 614.33 70.8C615.797 68.8 616.53 66.1333 616.53 62.8C616.53 59.5667 615.797 56.9667 614.33 55C612.864 53.0333 610.764 52.05 608.03 52.05C605.264 52.05 603.13 53.05 601.63 55.05C600.13 57.0167 599.38 59.6 599.38 62.8C599.38 66.1333 600.13 68.8 601.63 70.8C603.13 72.7667 605.264 73.75 608.03 73.75Z" fill="white"/>
<path d="M628.223 80.25V45.5H643.723C648.123 45.5 651.489 46.45 653.823 48.35C656.189 50.25 657.373 53.0833 657.373 56.85C657.373 60.5833 656.189 63.4 653.823 65.3C651.489 67.2 648.123 68.15 643.723 68.15H636.373V80.25H628.223ZM636.373 61.15H644.873C646.406 61.15 647.573 60.7333 648.373 59.9C649.173 59.0333 649.573 58.0167 649.573 56.85C649.573 55.6833 649.173 54.6667 648.373 53.8C647.573 52.9333 646.406 52.5 644.873 52.5H636.373V61.15Z" fill="white"/>
<path d="M660.352 80.25V45.5H688.152V52.55H668.502V58.8H685.352V65.85H668.352V73.1H688.152V80.25H660.352Z" fill="white"/>
<path d="M692.041 80.25V45.5H708.841C712.474 45.5 715.424 46.3667 717.691 48.1C719.991 49.8 721.141 52.3333 721.141 55.7C721.141 57.9667 720.358 59.9333 718.791 61.6C717.258 63.2333 714.991 64.2667 711.991 64.7C714.291 65 716.074 65.7667 717.341 67C718.641 68.2 719.608 69.8167 720.241 71.85L722.891 80.25H714.891L712.691 73.05C711.558 69.3167 709.308 67.45 705.941 67.45H700.041V80.25H692.041ZM700.041 60.7H707.541C711.474 60.7 713.441 59.3 713.441 56.5C713.441 53.6667 711.474 52.25 707.541 52.25H700.041V60.7Z" fill="white"/>
<path d="M746.566 80.25L736.816 45.5H745.216L751.766 71.75L759.316 45.5H767.216L774.816 71.75L781.316 45.5H789.716L779.966 80.25H770.116L763.266 57.2L756.416 80.25H746.566Z" fill="white"/>
<path d="M792.432 80.25V45.5H800.582V80.25H792.432Z" fill="white"/>
<path d="M815.121 80.25V52.55H803.521V45.5H834.871V52.55H823.271V80.25H815.121Z" fill="white"/>
<path d="M837.842 80.25V45.5H845.992V58.8H860.442V45.5H868.592V80.25H860.442V65.85H845.992V80.25H837.842Z" fill="white"/>
<path d="M886.279 80.25V45.5H903.029C911.296 45.5 915.429 48.6 915.429 54.8C915.429 56.6667 914.913 58.2333 913.879 59.5C912.879 60.7667 911.463 61.65 909.629 62.15C913.929 63.1833 916.079 65.9167 916.079 70.35C916.079 73.5833 914.963 76.05 912.729 77.75C910.529 79.4167 907.296 80.25 903.029 80.25H886.279ZM894.379 59.05H903.429C904.929 59.05 906.029 58.7333 906.729 58.1C907.463 57.4333 907.829 56.6 907.829 55.6C907.829 54.5667 907.479 53.7167 906.779 53.05C906.079 52.35 904.963 52 903.429 52H894.379V59.05ZM894.379 73.75H903.029C906.396 73.75 908.079 72.3833 908.079 69.65C908.079 67.0167 906.396 65.7 903.029 65.7H894.379V73.75Z" fill="white"/>
<path d="M935.574 80.75C930.674 80.75 926.774 79.45 923.874 76.85C921.008 74.2167 919.574 70.4 919.574 65.4V45.5H927.724V65.3C927.724 68.1333 928.424 70.2167 929.824 71.55C931.224 72.85 933.141 73.5 935.574 73.5C937.941 73.5 939.808 72.85 941.174 71.55C942.541 70.2167 943.224 68.1333 943.224 65.3V45.5H951.374V65.4C951.374 70.4 949.958 74.2167 947.124 76.85C944.291 79.45 940.441 80.75 935.574 80.75Z" fill="white"/>
<path d="M955.908 80.25V45.5H964.058V80.25H955.908Z" fill="white"/>
<path d="M983.404 80.75C979.203 80.75 975.687 79.7667 972.854 77.8C970.054 75.8 968.37 72.9 967.804 69.1L975.904 68.4C976.237 70.1667 977.07 71.5167 978.404 72.45C979.77 73.35 981.453 73.8 983.453 73.8C985.453 73.8 987.004 73.45 988.104 72.75C989.237 72.05 989.804 71.15 989.804 70.05C989.804 69.0167 989.42 68.2333 988.654 67.7C987.92 67.1333 986.637 66.7333 984.804 66.5L978.904 65.65C975.604 65.1833 973.037 64.1 971.203 62.4C969.404 60.6667 968.504 58.4667 968.504 55.8C968.504 52.6667 969.77 50.0833 972.304 48.05C974.87 46.0167 978.187 45 982.254 45C986.387 45 989.72 46 992.254 48C994.82 50 996.17 53.0167 996.304 57.05L988.554 57.6C988.387 55.7333 987.753 54.3167 986.654 53.35C985.554 52.3833 984.087 51.9 982.254 51.9C980.52 51.9 979.12 52.2667 978.054 53C977.02 53.7333 976.504 54.6667 976.504 55.8C976.504 57.5 977.77 58.55 980.304 58.95L987.203 59.95C994.27 60.95 997.804 64.3 997.804 70C997.804 73.3 996.503 75.9167 993.904 77.85C991.304 79.7833 987.804 80.75 983.404 80.75Z" fill="white"/>
<path d="M1001.66 80.25V45.5H1009.81V80.25H1001.66Z" fill="white"/>
<path d="M1014.6 80.25V45.5H1025.05L1038.35 70.1V45.5H1046.4V80.25H1035.95L1022.65 55.8V80.25H1014.6Z" fill="white"/>
<path d="M1051.46 80.25V45.5H1079.26V52.55H1059.61V58.8H1076.46V65.85H1059.46V73.1H1079.26V80.25H1051.46Z" fill="white"/>
<path d="M1097.56 80.75C1093.36 80.75 1089.85 79.7667 1087.01 77.8C1084.21 75.8 1082.53 72.9 1081.96 69.1L1090.06 68.4C1090.4 70.1667 1091.23 71.5167 1092.56 72.45C1093.93 73.35 1095.61 73.8 1097.61 73.8C1099.61 73.8 1101.16 73.45 1102.26 72.75C1103.4 72.05 1103.96 71.15 1103.96 70.05C1103.96 69.0167 1103.58 68.2333 1102.81 67.7C1102.08 67.1333 1100.8 66.7333 1098.96 66.5L1093.06 65.65C1089.76 65.1833 1087.2 64.1 1085.36 62.4C1083.56 60.6667 1082.66 58.4667 1082.66 55.8C1082.66 52.6667 1083.93 50.0833 1086.46 48.05C1089.03 46.0167 1092.35 45 1096.41 45C1100.55 45 1103.88 46 1106.41 48C1108.98 50 1110.33 53.0167 1110.46 57.05L1102.71 57.6C1102.55 55.7333 1101.91 54.3167 1100.81 53.35C1099.71 52.3833 1098.25 51.9 1096.41 51.9C1094.68 51.9 1093.28 52.2667 1092.21 53C1091.18 53.7333 1090.66 54.6667 1090.66 55.8C1090.66 57.5 1091.93 58.55 1094.46 58.95L1101.36 59.95C1108.43 60.95 1111.96 64.3 1111.96 70C1111.96 73.3 1110.66 75.9167 1108.06 77.85C1105.46 79.7833 1101.96 80.75 1097.56 80.75Z" fill="white"/>
<path d="M1130.28 80.75C1126.08 80.75 1122.56 79.7667 1119.73 77.8C1116.93 75.8 1115.25 72.9 1114.68 69.1L1122.78 68.4C1123.11 70.1667 1123.95 71.5167 1125.28 72.45C1126.65 73.35 1128.33 73.8 1130.33 73.8C1132.33 73.8 1133.88 73.45 1134.98 72.75C1136.11 72.05 1136.68 71.15 1136.68 70.05C1136.68 69.0167 1136.3 68.2333 1135.53 67.7C1134.8 67.1333 1133.51 66.7333 1131.68 66.5L1125.78 65.65C1122.48 65.1833 1119.91 64.1 1118.08 62.4C1116.28 60.6667 1115.38 58.4667 1115.38 55.8C1115.38 52.6667 1116.65 50.0833 1119.18 48.05C1121.75 46.0167 1125.06 45 1129.13 45C1133.26 45 1136.6 46 1139.13 48C1141.7 50 1143.05 53.0167 1143.18 57.05L1135.43 57.6C1135.26 55.7333 1134.63 54.3167 1133.53 53.35C1132.43 52.3833 1130.96 51.9 1129.13 51.9C1127.4 51.9 1126 52.2667 1124.93 53C1123.9 53.7333 1123.38 54.6667 1123.38 55.8C1123.38 57.5 1124.65 58.55 1127.18 58.95L1134.08 59.95C1141.15 60.95 1144.68 64.3 1144.68 70C1144.68 73.3 1143.38 75.9167 1140.78 77.85C1138.18 79.7833 1134.68 80.75 1130.28 80.75Z" fill="white"/>
<path d="M567.233 133.25V98.5H582.733C587.133 98.5 590.499 99.45 592.833 101.35C595.199 103.25 596.383 106.083 596.383 109.85C596.383 113.583 595.199 116.4 592.833 118.3C590.499 120.2 587.133 121.15 582.733 121.15H575.383V133.25H567.233ZM575.383 114.15H583.883C585.416 114.15 586.583 113.733 587.383 112.9C588.183 112.033 588.583 111.017 588.583 109.85C588.583 108.683 588.183 107.667 587.383 106.8C586.583 105.933 585.416 105.5 583.883 105.5H575.383V114.15Z" fill="white"/>
<path d="M599.362 133.25V98.5H616.162C619.795 98.5 622.745 99.3667 625.012 101.1C627.312 102.8 628.462 105.333 628.462 108.7C628.462 110.967 627.678 112.933 626.112 114.6C624.578 116.233 622.312 117.267 619.312 117.7C621.612 118 623.395 118.767 624.662 120C625.962 121.2 626.928 122.817 627.562 124.85L630.212 133.25H622.212L620.012 126.05C618.878 122.317 616.628 120.45 613.262 120.45H607.362V133.25H599.362ZM607.362 113.7H614.862C618.795 113.7 620.762 112.3 620.762 109.5C620.762 106.667 618.795 105.25 614.862 105.25H607.362V113.7Z" fill="white"/>
<path d="M648.212 133.75C642.846 133.75 638.696 132.133 635.762 128.9C632.829 125.667 631.362 121.317 631.362 115.85C631.362 110.483 632.829 106.167 635.762 102.9C638.729 99.6333 642.879 98 648.212 98C653.546 98 657.662 99.6333 660.562 102.9C663.463 106.167 664.912 110.483 664.912 115.85C664.912 121.317 663.463 125.667 660.562 128.9C657.662 132.133 653.546 133.75 648.212 133.75ZM648.212 126.75C650.946 126.75 653.046 125.767 654.512 123.8C655.979 121.8 656.712 119.133 656.712 115.8C656.712 112.567 655.979 109.967 654.512 108C653.046 106.033 650.946 105.05 648.212 105.05C645.446 105.05 643.312 106.05 641.812 108.05C640.312 110.017 639.562 112.6 639.562 115.8C639.562 119.133 640.312 121.8 641.812 123.8C643.312 125.767 645.446 126.75 648.212 126.75Z" fill="white"/>
<path d="M665.478 133.5V126.15C669.745 126.15 672.745 125.55 674.478 124.35C676.245 123.15 677.128 120.967 677.128 117.8V98.5H685.228V119.75C685.228 121.983 684.861 123.933 684.128 125.6C683.395 127.267 682.445 128.6 681.278 129.6C680.111 130.567 678.628 131.367 676.828 132C675.061 132.6 673.278 133 671.478 133.2C669.711 133.4 667.711 133.5 665.478 133.5Z" fill="white"/>
<path d="M689.791 133.25V98.5H717.591V105.55H697.941V111.8H714.791V118.85H697.791V126.1H717.591V133.25H689.791Z" fill="white"/>
<path d="M736.336 133.7C731.302 133.7 727.319 132.1 724.385 128.9C721.452 125.667 719.986 121.317 719.986 115.85C719.986 110.483 721.452 106.167 724.385 102.9C727.319 99.6333 731.252 98 736.186 98C740.719 98 744.319 99.2333 746.986 101.7C749.686 104.167 751.302 107.6 751.836 112L743.635 112.65C742.869 107.583 740.386 105.05 736.186 105.05C733.686 105.05 731.719 106.017 730.286 107.95C728.852 109.85 728.135 112.467 728.135 115.8C728.135 119.2 728.869 121.867 730.336 123.8C731.836 125.7 733.836 126.65 736.336 126.65C740.602 126.65 743.202 124.1 744.135 119L752.135 119.65C751.569 124.083 749.902 127.533 747.135 130C744.402 132.467 740.802 133.7 736.336 133.7Z" fill="white"/>
<path d="M765.02 133.25V105.55H753.42V98.5H784.77V105.55H773.17V133.25H765.02Z" fill="white"/>
<path d="M802.003 133.75C797.803 133.75 794.287 132.767 791.453 130.8C788.653 128.8 786.97 125.9 786.404 122.1L794.503 121.4C794.837 123.167 795.67 124.517 797.003 125.45C798.37 126.35 800.053 126.8 802.053 126.8C804.053 126.8 805.603 126.45 806.703 125.75C807.837 125.05 808.404 124.15 808.404 123.05C808.404 122.017 808.02 121.233 807.253 120.7C806.52 120.133 805.237 119.733 803.404 119.5L797.503 118.65C794.203 118.183 791.637 117.1 789.803 115.4C788.003 113.667 787.104 111.467 787.104 108.8C787.104 105.667 788.37 103.083 790.904 101.05C793.47 99.0167 796.787 98 800.854 98C804.987 98 808.32 99 810.854 101C813.42 103 814.77 106.017 814.904 110.05L807.154 110.6C806.987 108.733 806.353 107.317 805.253 106.35C804.153 105.383 802.687 104.9 800.854 104.9C799.12 104.9 797.72 105.267 796.654 106C795.62 106.733 795.104 107.667 795.104 108.8C795.104 110.5 796.37 111.55 798.904 111.95L805.803 112.95C812.87 113.95 816.404 117.3 816.404 123C816.404 126.3 815.103 128.917 812.503 130.85C809.903 132.783 806.403 133.75 802.003 133.75Z" fill="white"/>
<path d="M833.248 133.25V98.5H861.048V105.55H841.398V111.8H858.248V118.85H841.248V126.1H861.048V133.25H833.248Z" fill="white"/>
<path d="M863.134 133.25L876.184 115.85L863.184 98.5H873.284L881.234 109.8L889.084 98.5H899.284L886.334 115.95L899.334 133.25H889.234L881.234 121.95L873.284 133.25H863.134Z" fill="white"/>
<path d="M902.194 133.25V98.5H917.694C922.094 98.5 925.46 99.45 927.794 101.35C930.16 103.25 931.344 106.083 931.344 109.85C931.344 113.583 930.16 116.4 927.794 118.3C925.46 120.2 922.094 121.15 917.694 121.15H910.344V133.25H902.194ZM910.344 114.15H918.844C920.377 114.15 921.544 113.733 922.344 112.9C923.144 112.033 923.544 111.017 923.544 109.85C923.544 108.683 923.144 107.667 922.344 106.8C921.544 105.933 920.377 105.5 918.844 105.5H910.344V114.15Z" fill="white"/>
<path d="M934.323 133.25V98.5H962.123V105.55H942.473V111.8H959.323V118.85H942.323V126.1H962.123V133.25H934.323Z" fill="white"/>
<path d="M966.012 133.25V98.5H982.812C986.445 98.5 989.395 99.3667 991.662 101.1C993.962 102.8 995.112 105.333 995.112 108.7C995.112 110.967 994.329 112.933 992.762 114.6C991.229 116.233 988.962 117.267 985.962 117.7C988.262 118 990.045 118.767 991.312 120C992.612 121.2 993.579 122.817 994.212 124.85L996.862 133.25H988.862L986.662 126.05C985.529 122.317 983.279 120.45 979.912 120.45H974.012V133.25H966.012ZM974.012 113.7H981.512C985.445 113.7 987.412 112.3 987.412 109.5C987.412 106.667 985.445 105.25 981.512 105.25H974.012V113.7Z" fill="white"/>
<path d="M999.996 133.25V98.5H1008.15V133.25H999.996Z" fill="white"/>
<path d="M1012.94 133.25V98.5H1026.84H1040.74V105.55H1021.09V111.8H1037.94V118.85H1020.94V126.1H1040.74V133.25H1012.94Z" fill="white"/>
<path d="M1044.63 133.25V98.5H1055.08L1068.38 123.1V98.5H1076.43V133.25H1065.98L1052.68 108.8V133.25H1044.63Z" fill="white"/>
<path d="M1096.39 133.7C1091.36 133.7 1087.38 132.1 1084.44 128.9C1081.51 125.667 1080.04 121.317 1080.04 115.85C1080.04 110.483 1081.51 106.167 1084.44 102.9C1087.38 99.6333 1091.31 98 1096.24 98C1100.78 98 1104.38 99.2333 1107.04 101.7C1109.74 104.167 1111.36 107.6 1111.89 112L1103.69 112.65C1102.93 107.583 1100.44 105.05 1096.24 105.05C1093.74 105.05 1091.78 106.017 1090.34 107.95C1088.91 109.85 1088.19 112.467 1088.19 115.8C1088.19 119.2 1088.93 121.867 1090.39 123.8C1091.89 125.7 1093.89 126.65 1096.39 126.65C1100.66 126.65 1103.26 124.1 1104.19 119L1112.19 119.65C1111.63 124.083 1109.96 127.533 1107.19 130C1104.46 132.467 1100.86 133.7 1096.39 133.7Z" fill="white"/>
<path d="M1115.96 133.25V98.5H1143.76V105.55H1124.11V111.8H1140.96V118.85H1123.96V126.1H1143.76V133.25H1115.96Z" fill="white"/>
</svg>
