<svg width="397" height="349" viewBox="0 0 397 349" fill="none" xmlns="http://www.w3.org/2000/svg">
<path d="M326.434 110.204C353.357 87.0263 368.211 52.1981 365.732 18.1176C362.224 -29.9603 327.705 -64.0929 283 -84.3499C266.634 -91.7746 249.447 -97.8082 234.127 -106.989C197.146 -129.159 198.868 -163.848 181.97 -197.668C136.476 -288.781 9.53757 -222.341 -68.6566 -243.694C-119.542 -257.587 -155.171 -302.726 -156.957 -351.708C-157.086 -355.22 -157.102 -358.924 -158.985 -361.984C-160.288 -364.088 -162.364 -365.67 -164.472 -367.079C-197.382 -389.162 -246.851 -380.989 -276.204 -357.289C-308.662 -331.068 -323.516 -290.763 -332.302 -251.57C-339.319 -220.289 -343.342 -187.756 -336.374 -156.458C-317.481 -71.5001 -225.399 -18.1885 -187.002 60.8573C-178.714 77.9323 -172.985 96.1028 -163.153 112.448C-138.145 154.005 -89.8185 178.522 -41.6049 194.345C17.8414 213.854 84.5937 223.174 143.235 201.665C180.795 187.894 212.466 162.403 250.284 149.258C276.627 140.06 305.787 127.975 326.434 110.204Z" fill="url(#paint0_linear_131_125)"/>
<g opacity="0.7">
<path opacity="0.7" d="M-257 99.8655L130.717 -303" stroke="#969696" stroke-width="2" stroke-miterlimit="10" stroke-linecap="round" stroke-linejoin="round" stroke-dasharray="0.3 0.3"/>
<path opacity="0.7" d="M-253.893 132.725L158.188 -296.154" stroke="#969696" stroke-width="2" stroke-miterlimit="10" stroke-linecap="round" stroke-linejoin="round" stroke-dasharray="0.3 0.3"/>
<path opacity="0.7" d="M-241.448 155.597L182.323 -285.728" stroke="#969696" stroke-width="2" stroke-miterlimit="10" stroke-linecap="round" stroke-linejoin="round" stroke-dasharray="0.3 0.3"/>
<path opacity="0.7" d="M-223.93 173.08L209.303 -278.355" stroke="#969696" stroke-width="2" stroke-miterlimit="10" stroke-linecap="round" stroke-linejoin="round" stroke-dasharray="0.3 0.3"/>
<path opacity="0.7" d="M-210.291 194.688L236.528 -271.246" stroke="#969696" stroke-width="2" stroke-miterlimit="10" stroke-linecap="round" stroke-linejoin="round" stroke-dasharray="0.3 0.3"/>
<path opacity="0.7" d="M-194.247 213.734L265.421 -265.91" stroke="#969696" stroke-width="2" stroke-miterlimit="10" stroke-linecap="round" stroke-linejoin="round" stroke-dasharray="0.3 0.3"/>
<path opacity="0.7" d="M-178.326 232.919L287.538 -253.359" stroke="#969696" stroke-width="2" stroke-miterlimit="10" stroke-linecap="round" stroke-linejoin="round" stroke-dasharray="0.3 0.3"/>
<path opacity="0.7" d="M-162.388 252.07L314.605 -246.075" stroke="#969696" stroke-width="2" stroke-miterlimit="10" stroke-linecap="round" stroke-linejoin="round" stroke-dasharray="0.3 0.3"/>
<path opacity="0.7" d="M-145.94 270.694L336.617 -233.401" stroke="#969696" stroke-width="2" stroke-miterlimit="10" stroke-linecap="round" stroke-linejoin="round" stroke-dasharray="0.3 0.3"/>
<path opacity="0.7" d="M-131.442 291.389L354.96 -216.796" stroke="#969696" stroke-width="2" stroke-miterlimit="10" stroke-linecap="round" stroke-linejoin="round" stroke-dasharray="0.3 0.3"/>
<path opacity="0.7" d="M-114.976 309.978L375.638 -202.7" stroke="#969696" stroke-width="2" stroke-miterlimit="10" stroke-linecap="round" stroke-linejoin="round" stroke-dasharray="0.3 0.3"/>
<path opacity="0.7" d="M-97.4931 327.496L396 -188.272" stroke="#969696" stroke-width="2" stroke-miterlimit="10" stroke-linecap="round" stroke-linejoin="round" stroke-dasharray="0.3 0.3"/>
<path opacity="0.7" d="M-82.7836 347.946L393.297 -149.216" stroke="#969696" stroke-width="2" stroke-miterlimit="10" stroke-linecap="round" stroke-linejoin="round" stroke-dasharray="0.3 0.3"/>
</g>
<defs>
<linearGradient id="paint0_linear_131_125" x1="177.236" y1="-243.247" x2="-64.4004" y2="-80.3132" gradientUnits="userSpaceOnUse">
<stop offset="0.1031" stop-color="#2F3E41"/>
<stop offset="0.3506" stop-color="#273132"/>
<stop offset="0.714" stop-color="#1E2422"/>
<stop offset="0.9948" stop-color="#1B1F1C"/>
</linearGradient>
</defs>
</svg>
