<svg width="104" height="90" viewBox="0 0 104 90" fill="none" xmlns="http://www.w3.org/2000/svg">
    <path fill-rule="evenodd" clip-rule="evenodd" d="M93.1267 0.975957C94.4022 0.435195 95.7984 0.24869 97.1698 0.435851C98.5413 0.623013 99.8378 1.177 100.925 2.04015C102.011 2.9033 102.848 4.04407 103.349 5.3437C103.849 6.64334 103.995 8.05434 103.77 9.42983L92.0633 80.955C90.9277 87.8543 83.4121 91.8109 77.1302 88.3742C71.8755 85.4991 64.0708 81.0694 57.0508 76.4473C53.5408 74.1337 42.7887 66.7248 44.1101 61.4529C45.2457 56.9452 63.3121 40.0062 73.6357 29.9354C77.6877 25.9788 75.8398 23.6964 71.0548 27.3358C59.1723 36.372 40.0942 50.1134 33.7865 53.9816C28.2221 57.3923 25.3212 57.9746 21.8524 57.3923C15.524 56.3317 9.65507 54.6887 4.86491 52.687C-1.60799 49.9835 -1.29312 41.0201 4.85975 38.4101L93.1267 0.975957Z" fill="white"/>
</svg>
