<svg width="1341" height="137" viewBox="0 0 1341 137" fill="none" xmlns="http://www.w3.org/2000/svg">
<path d="M2 136.25V101.5H29.8V108.55H10.15V114.8H27V121.85H10V129.1H29.8V136.25H2Z" fill="white"/>
<path d="M31.886 136.25L44.9359 118.85L31.9359 101.5H42.0359L49.986 112.8L57.8359 101.5H68.0359L55.0859 118.95L68.0859 136.25H57.986L49.986 124.95L42.0359 136.25H31.886Z" fill="white"/>
<path d="M70.9453 136.25V101.5H86.4453C90.8453 101.5 94.212 102.45 96.5453 104.35C98.912 106.25 100.095 109.083 100.095 112.85C100.095 116.583 98.912 119.4 96.5453 121.3C94.212 123.2 90.8453 124.15 86.4453 124.15H79.0953V136.25H70.9453ZM79.0953 117.15H87.5953C89.1287 117.15 90.2953 116.733 91.0953 115.9C91.8953 115.033 92.2953 114.017 92.2953 112.85C92.2953 111.683 91.8953 110.667 91.0953 109.8C90.2953 108.933 89.1287 108.5 87.5953 108.5H79.0953V117.15Z" fill="white"/>
<path d="M103.074 136.25V101.5H130.874V108.55H111.224V114.8H128.074V121.85H111.074V129.1H130.874V136.25H103.074Z" fill="white"/>
<path d="M134.764 136.25V101.5H151.564C155.197 101.5 158.147 102.367 160.414 104.1C162.714 105.8 163.864 108.333 163.864 111.7C163.864 113.967 163.08 115.933 161.514 117.6C159.98 119.233 157.714 120.267 154.714 120.7C157.014 121 158.797 121.767 160.064 123C161.364 124.2 162.33 125.817 162.964 127.85L165.614 136.25H157.614L155.414 129.05C154.28 125.317 152.03 123.45 148.664 123.45H142.764V136.25H134.764ZM142.764 116.7H150.264C154.197 116.7 156.164 115.3 156.164 112.5C156.164 109.667 154.197 108.25 150.264 108.25H142.764V116.7Z" fill="white"/>
<path d="M168.748 136.25V101.5H176.898V136.25H168.748Z" fill="white"/>
<path d="M181.688 136.25V101.5H209.488V108.55H189.838V114.8H206.688V121.85H189.688V129.1H209.488V136.25H181.688Z" fill="white"/>
<path d="M213.377 136.25V101.5H223.827L237.127 126.1V101.5H245.177V136.25H234.727L221.427 111.8V136.25H213.377Z" fill="white"/>
<path d="M265.146 136.7C260.112 136.7 256.129 135.1 253.196 131.9C250.262 128.667 248.796 124.317 248.796 118.85C248.796 113.483 250.262 109.167 253.196 105.9C256.129 102.633 260.062 101 264.996 101C269.529 101 273.129 102.233 275.796 104.7C278.496 107.167 280.112 110.6 280.646 115L272.446 115.65C271.679 110.583 269.196 108.05 264.996 108.05C262.496 108.05 260.529 109.017 259.096 110.95C257.662 112.85 256.946 115.467 256.946 118.8C256.946 122.2 257.679 124.867 259.146 126.8C260.646 128.7 262.646 129.65 265.146 129.65C269.412 129.65 272.012 127.1 272.946 122L280.946 122.65C280.379 127.083 278.712 130.533 275.946 133C273.212 135.467 269.612 136.7 265.146 136.7Z" fill="white"/>
<path d="M284.715 136.25V101.5H312.515V108.55H292.865V114.8H309.715V121.85H292.715V129.1H312.515V136.25H284.715Z" fill="white"/>
<path d="M18.15 82.75C13.25 82.75 9.35002 81.45 6.45002 78.85C3.58336 76.2167 2.15002 72.4 2.15002 67.4V47.5H10.3V67.3C10.3 70.1333 11 72.2167 12.4 73.55C13.8 74.85 15.7167 75.5 18.15 75.5C20.5167 75.5 22.3834 74.85 23.75 73.55C25.1167 72.2167 25.8 70.1333 25.8 67.3V47.5H33.95V67.4C33.95 72.4 32.5334 76.2167 29.7 78.85C26.8667 81.45 23.0167 82.75 18.15 82.75Z" fill="#FFA9B8"/>
<path d="M36.3387 82.25L49.3887 64.85L36.3887 47.5H46.4887L54.4387 58.8L62.2887 47.5H72.4887L59.5387 64.95L72.5387 82.25H62.4387L54.4387 70.95L46.4887 82.25H36.3387Z" fill="#FFA9B8"/>
<path d="M84.0981 89.75L73.4481 45H80.4481L91.0981 89.75H84.0981Z" fill="#FFA9B8"/>
<path d="M108.336 82.75C103.436 82.75 99.5356 81.45 96.6356 78.85C93.7689 76.2167 92.3356 72.4 92.3356 67.4V47.5H100.486V67.3C100.486 70.1333 101.186 72.2167 102.586 73.55C103.986 74.85 105.902 75.5 108.336 75.5C110.702 75.5 112.569 74.85 113.936 73.55C115.302 72.2167 115.986 70.1333 115.986 67.3V47.5H124.136V67.4C124.136 72.4 122.719 76.2167 119.886 78.85C117.052 81.45 113.202 82.75 108.336 82.75Z" fill="#FFA9B8"/>
<path d="M128.67 82.25V47.5H136.82V82.25H128.67Z" fill="#FFA9B8"/>
<path d="M154.5 82.25V47.5H169.55C174.616 47.5 178.666 49.05 181.7 52.15C184.766 55.2167 186.3 59.4833 186.3 64.95C186.3 70.4167 184.766 74.6667 181.7 77.7C178.666 80.7333 174.616 82.25 169.55 82.25H154.5ZM162.65 75H168.75C171.683 75 173.966 74.15 175.6 72.45C177.266 70.7167 178.1 68.1833 178.1 64.85C178.1 61.5167 177.266 59 175.6 57.3C173.966 55.6 171.683 54.75 168.75 54.75H162.65V75Z" fill="white"/>
<path d="M189.802 82.25V47.5H217.602V54.55H197.952V60.8H214.802V67.85H197.802V75.1H217.602V82.25H189.802Z" fill="white"/>
<path d="M235.901 82.75C231.701 82.75 228.185 81.7667 225.351 79.8C222.551 77.8 220.868 74.9 220.301 71.1L228.401 70.4C228.735 72.1667 229.568 73.5167 230.901 74.45C232.268 75.35 233.951 75.8 235.951 75.8C237.951 75.8 239.501 75.45 240.601 74.75C241.735 74.05 242.301 73.15 242.301 72.05C242.301 71.0167 241.918 70.2333 241.151 69.7C240.418 69.1333 239.135 68.7333 237.301 68.5L231.401 67.65C228.101 67.1833 225.535 66.1 223.701 64.4C221.901 62.6667 221.001 60.4667 221.001 57.8C221.001 54.6667 222.268 52.0833 224.801 50.05C227.368 48.0167 230.685 47 234.751 47C238.885 47 242.218 48 244.751 50C247.318 52 248.668 55.0167 248.801 59.05L241.051 59.6C240.885 57.7333 240.251 56.3167 239.151 55.35C238.051 54.3833 236.585 53.9 234.751 53.9C233.018 53.9 231.618 54.2667 230.551 55C229.518 55.7333 229.001 56.6667 229.001 57.8C229.001 59.5 230.268 60.55 232.801 60.95L239.701 61.95C246.768 62.95 250.301 66.3 250.301 72C250.301 75.3 249.001 77.9167 246.401 79.85C243.801 81.7833 240.301 82.75 235.901 82.75Z" fill="white"/>
<path d="M254.158 82.25V47.5H262.308V82.25H254.158Z" fill="white"/>
<path d="M281.397 82.7C276.697 82.7 272.914 81.1 270.047 77.9C267.214 74.7 265.797 70.3667 265.797 64.9C265.797 59.6 267.331 55.3 270.397 52C273.497 48.6667 277.597 47 282.697 47C287.364 47 291.081 48.25 293.847 50.75C296.614 53.25 298.231 56.7167 298.697 61.15L290.897 61.7C290.631 59.3 289.781 57.4167 288.347 56.05C286.947 54.6833 285.081 54 282.747 54C279.981 54 277.781 55.0167 276.147 57.05C274.547 59.0833 273.747 61.7 273.747 64.9C273.747 68.1333 274.531 70.7667 276.097 72.8C277.664 74.8333 279.714 75.85 282.247 75.85C285.981 75.85 288.431 74.1667 289.597 70.8H282.197V64.55H298.947V82.25H293.747L292.897 75.85C290.564 80.4167 286.731 82.7 281.397 82.7Z" fill="white"/>
<path d="M303.132 82.25V47.5H313.582L326.882 72.1V47.5H334.932V82.25H324.482L311.182 57.8V82.25H303.132Z" fill="white"/>
<path d="M339.998 82.25V47.5H367.798V54.55H348.148V60.8H364.998V67.85H347.998V75.1H367.798V82.25H339.998Z" fill="white"/>
<path d="M371.687 82.25V47.5H388.487C392.12 47.5 395.07 48.3667 397.337 50.1C399.637 51.8 400.787 54.3333 400.787 57.7C400.787 59.9667 400.004 61.9333 398.437 63.6C396.904 65.2333 394.637 66.2667 391.637 66.7C393.937 67 395.72 67.7667 396.987 69C398.287 70.2 399.254 71.8167 399.887 73.85L402.537 82.25H394.537L392.337 75.05C391.204 71.3167 388.954 69.45 385.587 69.45H379.687V82.25H371.687ZM379.687 62.7H387.187C391.12 62.7 393.087 61.3 393.087 58.5C393.087 55.6667 391.12 54.25 387.187 54.25H379.687V62.7Z" fill="white"/>
<path d="M426.212 82.25L416.462 47.5H424.862L431.412 73.75L438.962 47.5H446.862L454.462 73.75L460.962 47.5H469.362L459.612 82.25H449.762L442.912 59.2L436.062 82.25H426.212Z" fill="white"/>
<path d="M472.078 82.25V47.5H480.228V82.25H472.078Z" fill="white"/>
<path d="M494.767 82.25V54.55H483.167V47.5H514.517V54.55H502.917V82.25H494.767Z" fill="white"/>
<path d="M517.488 82.25V47.5H525.638V60.8H540.088V47.5H548.238V82.25H540.088V67.85H525.638V82.25H517.488Z" fill="white"/>
<path d="M575.675 82.25V54.55H564.075V47.5H595.425V54.55H583.825V82.25H575.675Z" fill="white"/>
<path d="M598.396 82.25V47.5H606.546V60.8H620.996V47.5H629.146V82.25H620.996V67.85H606.546V82.25H598.396Z" fill="white"/>
<path d="M634.187 82.25V47.5H661.987V54.55H642.337V60.8H659.187V67.85H642.187V75.1H661.987V82.25H634.187Z" fill="white"/>
<path d="M693.866 82.7C688.833 82.7 684.849 81.1 681.916 77.9C678.983 74.6667 677.516 70.3167 677.516 64.85C677.516 59.4833 678.983 55.1667 681.916 51.9C684.849 48.6333 688.783 47 693.716 47C698.249 47 701.849 48.2333 704.516 50.7C707.216 53.1667 708.833 56.6 709.366 61L701.166 61.65C700.399 56.5833 697.916 54.05 693.716 54.05C691.216 54.05 689.249 55.0167 687.816 56.95C686.383 58.85 685.666 61.4667 685.666 64.8C685.666 68.2 686.399 70.8667 687.866 72.8C689.366 74.7 691.366 75.65 693.866 75.65C698.133 75.65 700.733 73.1 701.666 68L709.666 68.65C709.099 73.0833 707.433 76.5333 704.666 79C701.933 81.4667 698.333 82.7 693.866 82.7Z" fill="white"/>
<path d="M728.839 82.75C723.472 82.75 719.322 81.1333 716.389 77.9C713.455 74.6667 711.989 70.3167 711.989 64.85C711.989 59.4833 713.455 55.1667 716.389 51.9C719.355 48.6333 723.505 47 728.839 47C734.172 47 738.289 48.6333 741.189 51.9C744.089 55.1667 745.539 59.4833 745.539 64.85C745.539 70.3167 744.089 74.6667 741.189 77.9C738.289 81.1333 734.172 82.75 728.839 82.75ZM728.839 75.75C731.572 75.75 733.672 74.7667 735.139 72.8C736.605 70.8 737.339 68.1333 737.339 64.8C737.339 61.5667 736.605 58.9667 735.139 57C733.672 55.0333 731.572 54.05 728.839 54.05C726.072 54.05 723.939 55.05 722.439 57.05C720.939 59.0167 720.189 61.6 720.189 64.8C720.189 68.1333 720.939 70.8 722.439 72.8C723.939 74.7667 726.072 75.75 728.839 75.75Z" fill="white"/>
<path d="M749.031 82.25V47.5H758.581L768.981 74.3L779.381 47.5H788.931V82.25H781.081V62.35L773.131 82.25H764.831L756.881 62.15V82.25H749.031Z" fill="white"/>
<path d="M793.953 82.25V47.5H803.503L813.903 74.3L824.303 47.5H833.853V82.25H826.003V62.35L818.053 82.25H809.753L801.803 62.15V82.25H793.953Z" fill="white"/>
<path d="M838.875 82.25V47.5H866.675V54.55H847.025V60.8H863.875V67.85H846.875V75.1H866.675V82.25H838.875Z" fill="white"/>
<path d="M870.564 82.25V47.5H887.364C890.997 47.5 893.947 48.3667 896.214 50.1C898.514 51.8 899.664 54.3333 899.664 57.7C899.664 59.9667 898.881 61.9333 897.314 63.6C895.781 65.2333 893.514 66.2667 890.514 66.7C892.814 67 894.597 67.7667 895.864 69C897.164 70.2 898.131 71.8167 898.764 73.85L901.414 82.25H893.414L891.214 75.05C890.081 71.3167 887.831 69.45 884.464 69.45H878.564V82.25H870.564ZM878.564 62.7H886.064C889.997 62.7 891.964 61.3 891.964 58.5C891.964 55.6667 889.997 54.25 886.064 54.25H878.564V62.7Z" fill="white"/>
<path d="M918.915 82.7C913.882 82.7 909.898 81.1 906.965 77.9C904.031 74.6667 902.565 70.3167 902.565 64.85C902.565 59.4833 904.031 55.1667 906.965 51.9C909.898 48.6333 913.832 47 918.765 47C923.298 47 926.898 48.2333 929.565 50.7C932.265 53.1667 933.882 56.6 934.415 61L926.215 61.65C925.448 56.5833 922.965 54.05 918.765 54.05C916.265 54.05 914.298 55.0167 912.865 56.95C911.432 58.85 910.715 61.4667 910.715 64.8C910.715 68.2 911.448 70.8667 912.915 72.8C914.415 74.7 916.415 75.65 918.915 75.65C923.182 75.65 925.781 73.1 926.715 68L934.715 68.65C934.148 73.0833 932.482 76.5333 929.715 79C926.982 81.4667 923.382 82.7 918.915 82.7Z" fill="white"/>
<path d="M938.386 82.25V47.5H946.536V82.25H938.386Z" fill="white"/>
<path d="M949.026 82.25L962.976 47.5H971.976L985.976 82.25H977.126L974.376 74.7H960.626L957.876 82.25H949.026ZM962.876 68.1H972.076L967.476 55.7L962.876 68.1Z" fill="white"/>
<path d="M988.435 82.25V47.5H996.585V75.15H1014.39V82.25H988.435Z" fill="white"/>
<path d="M1.83906 25.2V22.55H4.56406V25.2H1.83906ZM7.40547 25.2V22.55H10.1305V25.2H7.40547ZM12.9719 25.2V22.55H15.6969V25.2H12.9719ZM24.1725 25L31.4725 7.625H34.2475L41.5475 25H38.8725L37.1225 20.625L31.2475 20.65L28.6225 20.625L26.8725 25H24.1725ZM29.3975 18.6L31.2475 18.55H34.4975L36.3475 18.6L35.8475 17.375L33.3975 11.475L32.9975 10.025H32.7225L32.3725 11.475L29.8725 17.375L29.3975 18.6ZM43.1232 25V7.625H46.2732L53.6232 19.475L54.8482 21.925H55.2482L55.0982 19.3V7.625H57.5232V25H54.3482L46.6232 12.575L45.7982 10.7H45.4232L45.5732 13.325V25H43.1232ZM60.4816 25V7.625H66.9066C69.49 7.625 71.4983 8.38333 72.9316 9.9C74.365 11.4167 75.0816 13.5667 75.0816 16.35C75.0816 19.1333 74.365 21.275 72.9316 22.775C71.4983 24.2583 69.49 25 66.9066 25H60.4816ZM62.9066 22.85L65.2316 22.8H66.9066C68.7066 22.8 70.1066 22.25 71.1066 21.15C72.1066 20.0333 72.6066 18.425 72.6066 16.325C72.6066 14.225 72.1066 12.6167 71.1066 11.5C70.1066 10.3833 68.7066 9.825 66.9066 9.825H65.2316L62.9066 9.775L62.9316 12.55V20.075L62.9066 22.85ZM82.9859 25L90.2859 7.625H93.0609L100.361 25H97.6859L95.9359 20.625L90.0609 20.65L87.4359 20.625L85.6859 25H82.9859ZM88.2109 18.6L90.0609 18.55H93.3109L95.1609 18.6L94.6609 17.375L92.2109 11.475L91.8109 10.025H91.5359L91.1859 11.475L88.6859 17.375L88.2109 18.6ZM108.846 25V7.625H115.271C117.854 7.625 119.863 8.38333 121.296 9.9C122.729 11.4167 123.446 13.5667 123.446 16.35C123.446 19.1333 122.729 21.275 121.296 22.775C119.863 24.2583 117.854 25 115.271 25H108.846ZM111.271 22.85L113.596 22.8H115.271C117.071 22.8 118.471 22.25 119.471 21.15C120.471 20.0333 120.971 18.425 120.971 16.325C120.971 14.225 120.471 12.6167 119.471 11.5C118.471 10.3833 117.071 9.825 115.271 9.825H113.596L111.271 9.775L111.296 12.55V20.075L111.271 22.85ZM125.716 25V7.625H138.441V9.8H130.891L128.141 9.75L128.166 11.825V13.075L128.141 15L130.891 14.95H137.166V17.125H130.891L128.141 17.075L128.166 19V20.8L128.141 22.9L130.891 22.85H138.441V25H125.716ZM147.488 25.25C145.454 25.25 143.754 24.7667 142.388 23.8C141.038 22.8333 140.204 21.4583 139.888 19.675L142.388 19.425C142.604 20.5917 143.171 21.5 144.088 22.15C145.004 22.7833 146.138 23.1 147.488 23.1C148.821 23.1 149.863 22.8333 150.613 22.3C151.379 21.7667 151.763 21.0583 151.763 20.175C151.763 19.3917 151.521 18.8 151.038 18.4C150.571 17.9833 149.763 17.6917 148.613 17.525L145.438 17.05C143.821 16.8167 142.579 16.3167 141.713 15.55C140.846 14.7667 140.413 13.7417 140.413 12.475C140.413 10.9917 141.013 9.775 142.213 8.825C143.413 7.85833 144.946 7.375 146.813 7.375C148.663 7.375 150.171 7.85833 151.338 8.825C152.521 9.79167 153.204 11.2333 153.388 13.15L151.038 13.325C150.888 12.0583 150.438 11.1083 149.688 10.475C148.954 9.825 147.996 9.5 146.813 9.5C145.646 9.5 144.688 9.775 143.938 10.325C143.204 10.875 142.838 11.5917 142.838 12.475C142.838 13.825 143.821 14.65 145.788 14.95L149.163 15.45C152.513 15.95 154.188 17.5167 154.188 20.15C154.188 21.6833 153.579 22.9167 152.363 23.85C151.163 24.7833 149.538 25.25 147.488 25.25ZM156.429 25V7.625H158.879V25H156.429ZM168.801 25.175C166.518 25.175 164.66 24.375 163.226 22.775C161.81 21.1583 161.101 19.0167 161.101 16.35C161.101 13.6833 161.835 11.5333 163.301 9.9C164.785 8.25 166.693 7.425 169.026 7.425C171.176 7.425 172.893 8.025 174.176 9.225C175.46 10.425 176.218 12.0917 176.451 14.225L174.126 14.375C173.96 12.875 173.435 11.7 172.551 10.85C171.668 9.98333 170.493 9.55 169.026 9.55C167.393 9.55 166.068 10.1833 165.051 11.45C164.035 12.7 163.526 14.3333 163.526 16.35C163.526 18.3333 164.026 19.95 165.026 21.2C166.043 22.4333 167.335 23.05 168.901 23.05C170.335 23.05 171.501 22.6833 172.401 21.95C173.301 21.2167 173.851 20.1 174.051 18.6H169.126V16.525H176.726V25H174.826L174.751 22.05H174.301C173.868 22.9833 173.185 23.7417 172.251 24.325C171.318 24.8917 170.168 25.175 168.801 25.175ZM179.256 25V7.625H182.406L189.756 19.475L190.981 21.925H191.381L191.231 19.3V7.625H193.656V25H190.481L182.756 12.575L181.931 10.7H181.556L181.706 13.325V25H179.256ZM196.614 25V7.625H209.339V9.8H201.789L199.039 9.75L199.064 11.825V13.075L199.039 15L201.789 14.95H208.064V17.125H201.789L199.039 17.075L199.064 19V20.8L199.039 22.9L201.789 22.85H209.339V25H196.614ZM211.507 25V7.625H219.107C220.79 7.625 222.165 8.03333 223.232 8.85C224.299 9.66667 224.832 10.8917 224.832 12.525C224.832 13.8917 224.399 14.9667 223.532 15.75C222.682 16.5167 221.574 16.9167 220.207 16.95V17.225C221.14 17.325 221.899 17.6167 222.482 18.1C223.065 18.5667 223.532 19.3583 223.882 20.475L225.382 25H222.882L221.532 20.775C221.199 19.7583 220.724 19.0333 220.107 18.6C219.49 18.15 218.707 17.925 217.757 17.925H216.257L213.932 17.875L213.957 20.3V25H211.507ZM213.932 15.85L216.357 15.825H218.682C221.232 15.825 222.507 14.8083 222.507 12.775C222.507 10.725 221.232 9.7 218.682 9.7H216.357L213.932 9.675L213.957 11.85V13.55L213.932 15.85Z" fill="#D4D4D4"/>
</svg>
