<svg width="396" height="329" viewBox="0 0 396 329" fill="none" xmlns="http://www.w3.org/2000/svg">
<path d="M338.535 -145.882C318.907 -156.804 294.594 -163.988 272.295 -157.592C254.987 -152.628 241.926 -139.691 232.06 -125.118C220.955 -108.721 213.132 -90.337 204.843 -72.4207C199.765 -61.4548 194.234 -50.9124 186.82 -41.3045C178.852 -30.9665 169.366 -21.7967 158.786 -14.1746C147.841 -6.30426 135.786 -0.156937 123.003 4.09216C108.424 8.93993 93.2754 11.6266 78.317 15.0142C53.7268 20.6066 27.6481 29.2947 11.5513 49.9999C4.42966 59.1551 0.197519 70.2524 0.00780264 81.89C-0.196507 93.8342 3.62703 105.603 9.65418 115.824C23.3284 139.056 47.1013 152.343 71.9104 160.856C98.4707 169.967 126.505 174.304 152.511 185.109C165.499 190.512 177.933 197.594 188.236 207.275C198.451 216.883 206.346 228.579 213.366 240.64C226.602 263.418 237.256 288.256 256.329 306.99C265.129 315.634 275.651 322.628 287.531 326.191C299.468 329.754 312.223 329.754 324.35 327.169C381.338 315.006 406.702 257.548 429.672 210.37C442.514 184 456.758 158.33 478.4 138.106C499.298 118.584 524.238 103.69 543.721 82.6055C561.029 63.8861 574.046 39.9101 570.996 13.6709C568.092 -11.2688 552.579 -33.332 533.549 -48.9412C511.63 -66.9159 484.515 -77.4291 458.188 -87.0955C444.061 -92.2791 429.76 -97.1122 416.042 -103.333C402.499 -109.48 389.481 -116.678 376.624 -124.125C370.48 -127.688 364.38 -131.309 358.251 -134.901C351.742 -138.712 344.985 -142.012 338.404 -145.677C337.893 -145.969 337.426 -145.181 337.937 -144.889C344.504 -141.239 350.75 -136.989 357.229 -133.178C363.359 -129.586 369.459 -125.965 375.603 -122.402C388.168 -115.116 400.893 -108.078 414.101 -102.033C440.296 -90.0304 468.287 -82.5105 494.409 -70.3035C518.766 -58.9288 541.678 -43.6554 556.3 -20.5555C563.013 -9.95468 567.8 2.01872 569.114 14.547C570.485 27.6155 567.859 40.684 562.284 52.5259C550.609 77.3342 528.85 95.0315 507.675 111.488C496.438 120.219 485.084 128.878 474.825 138.764C464.901 148.313 456.364 159.104 448.95 170.697C433.831 194.338 423.251 220.445 410.277 245.254C397.61 269.463 382.112 293.702 359.316 309.56C338.258 324.205 310.515 332.061 285.546 323.475C260.97 315.021 244.728 292.636 232.352 270.967C219.218 247.955 208.302 222.709 188.265 204.632C168.476 186.789 142.456 178.349 117.209 171.603C90.5318 164.477 62.6726 158.636 39.1478 143.422C18.3957 130.003 1.1461 106.786 1.96334 81.1015C2.78058 55.0813 23.7954 36.7853 46.036 26.973C72.7276 15.1894 102.674 14.1527 129.818 3.69788C152.555 -5.06314 172.708 -20.1613 187.696 -39.3479C201.005 -56.3735 208.506 -76.6552 217.861 -95.9295C225.931 -112.561 235.081 -129.616 248.931 -142.202C263.232 -155.212 281.591 -160.119 300.621 -157.461C313.741 -155.636 326.218 -150.963 337.82 -144.641C338.608 -144.246 339.309 -145.444 338.535 -145.882Z" fill="url(#paint0_linear_16_920)"/>
<defs>
<linearGradient id="paint0_linear_16_920" x1="32.388" y1="182.077" x2="564.081" y2="-11.3353" gradientUnits="userSpaceOnUse">
<stop offset="0.0277" stop-color="#FE718A"/>
<stop offset="0.0356" stop-color="#EC657D"/>
<stop offset="0.0797" stop-color="#C44A60"/>
<stop offset="0.1292" stop-color="#B44055"/>
<stop offset="0.1831" stop-color="#884565"/>
<stop offset="0.2427" stop-color="#6C4446"/>
<stop offset="0.3099" stop-color="#574243"/>
<stop offset="0.3884" stop-color="#4B4141"/>
<stop offset="0.4856" stop-color="#423A3A"/>
<stop offset="0.6218" stop-color="#403334"/>
<stop offset="1" stop-color="#403131"/>
</linearGradient>
</defs>
</svg>
