<svg width="371" height="307" viewBox="0 0 371 307" fill="none" xmlns="http://www.w3.org/2000/svg">
<path d="M426.849 141.977C444.047 123.42 465.799 110.096 484.574 93.3021C500.939 78.666 515.976 60.0648 519.655 37.8337C523.188 16.3753 514.837 -4.73332 501.362 -21.2207C486.355 -39.5887 465.464 -51.5133 443.945 -60.7847C420.426 -70.9163 395.593 -77.8116 372.526 -89.0073C349.548 -100.174 328.438 -114.635 305.795 -126.37C288.641 -135.262 267.574 -140.7 248.494 -135.204C233.807 -130.977 222.42 -120.422 213.69 -108.264C203.719 -94.3865 196.696 -78.6133 189.587 -63.1755C185.514 -54.3122 181.528 -45.4198 176.17 -37.2271C170.17 -28.0723 162.914 -19.7484 154.695 -12.5178C146.272 -5.09776 136.811 1.14156 126.68 5.96678C115.015 11.5209 102.475 14.7717 89.9049 17.5561C67.0429 22.6145 43.2173 26.6963 24.0197 41.07C15.9464 47.1198 8.9681 54.8168 4.89499 64.132C0.821874 73.4326 0.00432783 83.739 2.06278 93.6519C6.48627 114.906 22.1072 132.021 40.5457 142.575C82.2112 166.439 137.541 162.342 173.338 197.183C190.711 214.093 200.127 236.864 212.244 257.404C223.004 275.655 236.858 293.804 257.107 302.012C277.765 310.394 301.298 306.021 320.321 295.495C340.89 284.125 355.957 265.349 367.782 245.465C370.76 240.45 373.563 235.348 376.249 230.173C379.023 224.852 381.155 219.283 383.768 213.889C384.016 213.364 383.242 212.898 382.979 213.423C380.395 218.773 377.271 223.89 374.527 229.152C371.767 234.444 368.906 239.692 365.84 244.823C359.811 254.926 353.051 264.62 345.051 273.264C329.62 289.941 308.817 302.478 285.765 304.257C274.684 305.117 263.501 303.236 253.53 298.251C243.793 293.382 235.588 286.02 228.639 277.725C213.996 260.246 205.237 238.992 193.324 219.735C187.397 210.157 180.623 201.002 172.229 193.437C163.79 185.827 153.907 179.996 143.541 175.433C122.242 166.045 99.2482 161.817 77.0285 155.214C54.8965 148.639 32.3995 139.237 17.5523 120.81C4.10666 104.119 -2.27311 80.8526 8.58853 61.1581C19.129 42.0467 40.5457 31.8714 60.7507 26.3173C84.3864 19.8156 109.161 17.352 131.205 5.93761C149.804 -3.68372 165.878 -18.1303 177.44 -35.5652C187.309 -50.4345 193.397 -67.6071 201.397 -83.4969C208.463 -97.5061 216.624 -111.705 228.654 -122.084C241.121 -132.843 256.873 -136.91 273.122 -134.869C297.371 -131.837 317.868 -117.39 338.467 -105.378C349.314 -99.0513 360.249 -92.8412 371.563 -87.36C382.468 -82.0683 393.71 -77.7678 405.097 -73.6423C447.463 -58.2336 499.143 -40.4342 515.086 6.65195C518.604 17.0313 519.64 28.1395 517.582 38.927C515.48 49.9187 510.472 60.1231 504.034 69.2196C490.282 88.6955 470.661 102.486 452.208 117.122C442.908 124.498 433.857 132.195 425.871 140.986C425.273 141.656 426.251 142.633 426.849 141.977Z" fill="url(#paint0_linear_16_921)"/>
<defs>
<linearGradient id="paint0_linear_16_921" x1="136.184" y1="-71.9845" x2="414.177" y2="206.414" gradientUnits="userSpaceOnUse">
<stop stop-color="#313C40"/>
<stop offset="0.251" stop-color="#333E40"/>
<stop offset="0.397" stop-color="#5A5A5A"/>
<stop offset="0.5161" stop-color="#4F4F4F"/>
<stop offset="0.6208" stop-color="#595959"/>
<stop offset="0.716" stop-color="#7C7C7C"/>
<stop offset="0.8042" stop-color="#9C9C9C"/>
<stop offset="0.8873" stop-color="#DBDBDB"/>
<stop offset="0.964" stop-color="#D4D4D4"/>
<stop offset="1" stop-color="#D4D4D4"/>
</linearGradient>
</defs>
</svg>
