<svg width="164" height="19" viewBox="0 0 164 19" fill="none" xmlns="http://www.w3.org/2000/svg">
<path d="M8.32071 18.2246C5.80404 18.2246 3.81237 17.4246 2.34571 15.8246C0.87904 14.208 0.145706 12.033 0.145706 9.29963C0.145706 6.6163 0.87904 4.45797 2.34571 2.82463C3.81237 1.1913 5.77904 0.374634 8.24571 0.374634C10.5124 0.374634 12.3124 0.9913 13.6457 2.22463C14.9957 3.45797 15.804 5.17463 16.0707 7.37463L11.9707 7.69963C11.5874 5.1663 10.3457 3.89963 8.24571 3.89963C6.99571 3.89963 6.01237 4.38297 5.29571 5.34963C4.57904 6.29963 4.22071 7.60797 4.22071 9.27463C4.22071 10.9746 4.58737 12.308 5.32071 13.2746C6.07071 14.2246 7.07071 14.6996 8.32071 14.6996C10.454 14.6996 11.754 13.4246 12.2207 10.8746L16.2207 11.1996C15.9374 13.4163 15.104 15.1413 13.7207 16.3746C12.354 17.608 10.554 18.2246 8.32071 18.2246Z" fill="white"/>
<path d="M25.807 18.2496C23.1237 18.2496 21.0487 17.4413 19.582 15.8246C18.1154 14.208 17.382 12.033 17.382 9.29963C17.382 6.6163 18.1154 4.45797 19.582 2.82463C21.0654 1.1913 23.1404 0.374634 25.807 0.374634C28.4737 0.374634 30.532 1.1913 31.982 2.82463C33.432 4.45797 34.157 6.6163 34.157 9.29963C34.157 12.033 33.432 14.208 31.982 15.8246C30.532 17.4413 28.4737 18.2496 25.807 18.2496ZM25.807 14.7496C27.1737 14.7496 28.2237 14.258 28.957 13.2746C29.6904 12.2746 30.057 10.9413 30.057 9.27463C30.057 7.65797 29.6904 6.35797 28.957 5.37463C28.2237 4.3913 27.1737 3.89963 25.807 3.89963C24.4237 3.89963 23.357 4.39963 22.607 5.39963C21.857 6.38297 21.482 7.67463 21.482 9.27463C21.482 10.9413 21.857 12.2746 22.607 13.2746C23.357 14.258 24.4237 14.7496 25.807 14.7496Z" fill="white"/>
<path d="M35.9031 17.9996V0.624634H41.1281L47.7781 12.9246V0.624634H51.8031V17.9996H46.5781L39.9281 5.77463V17.9996H35.9031Z" fill="white"/>
<path d="M59.2107 17.9996V4.14963H53.4107V0.624634H69.0857V4.14963H63.2857V17.9996H59.2107Z" fill="white"/>
<path d="M68.0539 17.9996L75.0289 0.624634H79.5289L86.5289 17.9996H82.1039L80.7289 14.2246H73.8539L72.4789 17.9996H68.0539ZM74.9789 10.9246H79.5789L77.2789 4.72463L74.9789 10.9246Z" fill="white"/>
<path d="M94.7221 18.2246C92.2054 18.2246 90.2137 17.4246 88.7471 15.8246C87.2804 14.208 86.5471 12.033 86.5471 9.29963C86.5471 6.6163 87.2804 4.45797 88.7471 2.82463C90.2137 1.1913 92.1804 0.374634 94.6471 0.374634C96.9137 0.374634 98.7137 0.9913 100.047 2.22463C101.397 3.45797 102.205 5.17463 102.472 7.37463L98.3721 7.69963C97.9887 5.1663 96.7471 3.89963 94.6471 3.89963C93.3971 3.89963 92.4137 4.38297 91.6971 5.34963C90.9804 6.29963 90.6221 7.60797 90.6221 9.27463C90.6221 10.9746 90.9887 12.308 91.7221 13.2746C92.4721 14.2246 93.4721 14.6996 94.7221 14.6996C96.8554 14.6996 98.1554 13.4246 98.6221 10.8746L102.622 11.1996C102.339 13.4163 101.505 15.1413 100.122 16.3746C98.7554 17.608 96.9554 18.2246 94.7221 18.2246Z" fill="white"/>
<path d="M109.064 17.9996V4.14963H103.264V0.624634H118.939V4.14963H113.139V17.9996H109.064Z" fill="white"/>
<path d="M126.87 17.9996V0.624634H131.645L136.845 14.0246L142.045 0.624634H146.82V17.9996H142.895V8.04963L138.92 17.9996H134.77L130.795 7.94963V17.9996H126.87Z" fill="white"/>
<path d="M149.331 17.9996V0.624634H163.231V4.14963H153.406V7.27463H161.831V10.7996H153.331V14.4246H163.231V17.9996H149.331Z" fill="white"/>
</svg>
