<svg width="41" height="64" viewBox="0 0 41 64" fill="none" xmlns="http://www.w3.org/2000/svg">
    <path d="M9.46154 0C6.95219 0 4.54561 1.01143 2.77122 2.81177C0.996842 4.61212 3.60012e-06 7.05392 3.60012e-06 9.6C3.60012e-06 12.1461 0.996842 14.5879 2.77122 16.3882C4.54561 18.1886 6.95219 19.2 9.46154 19.2H31.5385C34.0478 19.2 36.4544 18.1886 38.2288 16.3882C40.0032 14.5879 41 12.1461 41 9.6C41 7.05392 40.0032 4.61212 38.2288 2.81177C36.4544 1.01143 34.0478 0 31.5385 0H9.46154ZM31.5385 22.4C29.0291 22.4 26.6225 23.4114 24.8481 25.2118C23.0738 27.0121 22.0769 29.4539 22.0769 32C22.0769 34.5461 23.0738 36.9879 24.8481 38.7882C26.6225 40.5886 29.0291 41.6 31.5385 41.6C34.0478 41.6 36.4544 40.5886 38.2288 38.7882C40.0032 36.9879 41 34.5461 41 32C41 29.4539 40.0032 27.0121 38.2288 25.2118C36.4544 23.4114 34.0478 22.4 31.5385 22.4ZM3.60012e-06 32C3.60012e-06 29.4539 0.996842 27.0121 2.77122 25.2118C4.54561 23.4114 6.95219 22.4 9.46154 22.4H18.9231V41.6H9.46154C6.95219 41.6 4.54561 40.5886 2.77122 38.7882C0.996842 36.9879 3.60012e-06 34.5461 3.60012e-06 32ZM9.46154 44.8C7.59023 44.8 5.76093 45.363 4.20499 46.4179C2.64905 47.4727 1.43634 48.9721 0.720221 50.7262C0.00409955 52.4804 -0.18327 54.4106 0.181805 56.2729C0.546881 58.1351 1.448 59.8456 2.77122 61.1882C4.09444 62.5308 5.78033 63.4451 7.61569 63.8155C9.45105 64.186 11.3534 63.9958 13.0823 63.2692C14.8112 62.5426 16.2889 61.3122 17.3285 59.7335C18.3682 58.1548 18.9231 56.2987 18.9231 54.4V44.8H9.46154Z" fill="#D9D9D9"/>
</svg>
