<svg width="151" height="19" viewBox="0 0 151 19" fill="none" xmlns="http://www.w3.org/2000/svg">
<path d="M2.75 18.125L0 0.75H4.15L5.7 14.475L12.35 0.75H16.975L7.675 18.125H2.75Z" fill="white"/>
<path d="M14.4143 18.125L18.1143 0.75H22.2893L18.5893 18.125H14.4143Z" fill="white"/>
<path d="M20.7619 18.125L24.4619 0.75H38.4369L37.6869 4.275H27.8869L27.2119 7.4H35.6119L34.8619 10.925H26.4619L25.6869 14.55H35.5119L34.7369 18.125H20.7619Z" fill="white"/>
<path d="M41.074 18.125L39.674 0.75H43.749L44.324 14.05L50.924 0.75H54.874L55.874 14.05L61.574 0.75H66.049L57.924 18.125H52.774L51.749 6.575L45.974 18.125H41.074Z" fill="white"/>
<path d="M70.0051 18.125L73.7051 0.75H87.2801L86.5301 4.275H77.1301L76.4301 7.55H84.8551L84.1051 11.075H75.6801L74.1801 18.125H70.0051Z" fill="white"/>
<path d="M85.4104 18.125L89.1104 0.75H93.2854L89.5854 18.125H85.4104Z" fill="white"/>
<path d="M99.4336 18.35C97.1836 18.35 95.4669 17.5083 94.2836 15.825C93.1003 14.1417 92.7836 12.0167 93.3336 9.45C93.9169 6.75 95.1253 4.58333 96.9586 2.95C98.8086 1.31667 101.084 0.5 103.784 0.5C106.067 0.5 107.767 1.15 108.884 2.45C110.017 3.75 110.5 5.53333 110.334 7.8H106.434C106.567 6.61667 106.342 5.69167 105.759 5.025C105.192 4.34167 104.292 4 103.059 4C101.709 4 100.492 4.51667 99.4086 5.55C98.3419 6.56667 97.6419 7.86667 97.3086 9.45C96.9586 11.0667 97.0669 12.3833 97.6336 13.4C98.2003 14.4167 99.1169 14.925 100.384 14.925C101.317 14.925 102.159 14.6917 102.909 14.225C103.675 13.7583 104.242 13.15 104.609 12.4H100.909L101.534 9.4H109.984L108.134 18.125H105.459L105.509 15.35C104.059 17.35 102.034 18.35 99.4336 18.35Z" fill="white"/>
<path d="M110.313 18.125L114.013 0.75H118.663L121.138 14.975L128.688 0.75H134.238L130.538 18.125H126.413L128.638 7.8L122.913 18.125H118.413L116.563 8.175L114.413 18.125H110.313Z" fill="white"/>
<path d="M131.774 18.125L142.174 0.75H146.749L150.274 18.125H146.174L145.524 14.4H138.624L136.599 18.125H131.774ZM140.449 11.05H144.924L143.824 4.85L140.449 11.05Z" fill="white"/>
</svg>
