<svg width="88" height="102" viewBox="0 0 88 102" fill="none" xmlns="http://www.w3.org/2000/svg">
    <path d="M23.3137 2.16919C26.7911 3.34264 30.0981 4.9705 33.149 7.01049C37.4604 5.90696 41.8941 5.35332 46.3445 5.36278C50.9405 5.36278 55.3745 5.9367 59.5308 7.00586C62.5805 4.96785 65.886 3.34157 69.3615 2.16919C72.5875 1.07226 77.1835 -0.705037 79.9142 2.3173C81.7656 4.37231 82.2284 7.81583 82.5571 10.4448C82.9273 13.3792 83.0153 17.2022 82.0433 20.9975C85.7599 25.7971 88 31.5224 88 37.7615C88 47.2127 82.881 55.4188 75.3044 61.1025C71.6563 63.8005 67.6126 65.9176 63.3168 67.3786C64.3073 69.6465 64.8581 72.1551 64.8581 74.7886V88.6738C64.8581 89.9013 64.3705 91.0786 63.5025 91.9466C62.6345 92.8146 61.4572 93.3022 60.2297 93.3022H32.4594C31.2318 93.3022 30.0546 92.8146 29.1866 91.9466C28.3186 91.0786 27.831 89.9013 27.831 88.6738V84.0871C23.4109 84.6286 19.7035 84.1472 16.5516 82.8096C13.2562 81.4119 10.9605 79.2458 9.2341 77.1723C7.59565 75.2098 5.80909 70.7851 3.22645 69.9242C2.64964 69.7321 2.11631 69.4283 1.65691 69.0302C1.1975 68.632 0.821027 68.1472 0.548973 67.6035C-0.000465773 66.5055 -0.0912181 65.2342 0.29668 64.0693C0.684578 62.9044 1.51935 61.9413 2.61736 61.3918C3.71537 60.8424 4.98667 60.7516 6.15159 61.1395C9.2341 62.167 11.2428 64.3887 12.6175 66.1752C14.8391 69.0448 16.6442 72.7938 20.1617 74.2888C21.6104 74.9044 23.7348 75.307 27.058 74.8534L27.831 74.6961C27.8416 72.1775 28.3661 69.6875 29.3722 67.3786C25.0765 65.9176 21.0328 63.8005 17.3847 61.1025C9.80802 55.4188 4.68902 47.2173 4.68902 37.7615C4.68902 31.5317 6.92453 25.811 10.6319 21.016C9.65991 17.2207 9.74322 13.3884 10.1135 10.4494L10.1366 10.2735C10.4745 7.57978 10.8679 4.40933 12.7563 2.3173C15.4871 -0.705037 20.0877 1.07689 23.309 2.17382L23.3137 2.16919Z" fill="#D9D9D9"/>
</svg>
