<svg width="302" height="265" viewBox="0 0 302 265" fill="none" xmlns="http://www.w3.org/2000/svg">
<path d="M4.74568 424.315C-4.06887 386.492 4.74563 345.357 27.8531 314.159C53.612 279.386 95.0157 264.751 131.415 244.227C148.693 234.465 165.515 223.002 178.456 207.771C184.9 200.182 190.185 191.752 194.1 182.603C198.227 172.911 200.878 162.693 203.02 152.422C207.34 131.583 209.851 110.27 218.103 90.4646C225.706 72.2193 237.172 55.5864 251.43 41.8805C281.947 12.5231 324.914 -1.70867 367.003 2.95345C372.358 3.54936 377.714 4.46081 382.999 5.52994C384 5.74026 384.439 4.23295 383.42 3.98758C342.262 -6.45838 296.082 4.12774 262.58 29.7869C247.128 41.635 234.082 56.5504 224.407 73.4286C219.508 81.9467 215.487 90.9729 212.432 100.315C209.078 110.62 206.954 121.259 204.987 131.898C201.001 153.438 197.524 175.732 185.795 194.679C174.891 212.293 158.421 225.649 141.02 236.515C105.235 258.862 62.5318 271.902 33.8406 304.274C8.29247 333.105 -3.94606 373.154 1.12845 411.31C1.72545 415.797 2.60343 420.231 3.69208 424.613C3.83255 425.296 4.90371 424.998 4.74568 424.315Z" fill="url(#paint0_linear_115_129)"/>
<path d="M75.1764 380.091C69.6593 367.446 70.8891 353.113 76.213 340.627C81.7301 327.648 91.4291 317.254 102.762 309.059C126.465 291.929 155.421 284.297 179.633 268.029C191.388 260.133 201.297 250.179 208.8 238.15C216.144 226.367 221.24 213.3 225.176 200.004C233.908 170.494 236.755 139.26 248.861 110.753C258.981 86.9229 277.483 64.0251 303.417 57.0609C306.422 56.2519 309.479 55.6012 312.571 55.1791C313.239 55.0911 313.081 53.9656 312.413 54.0008C286.216 55.8122 264.885 76.6171 252.849 98.5827C237.774 126.106 234.207 157.937 226.704 187.94C223.208 201.904 218.85 215.744 212.279 228.6C205.637 241.597 196.676 253.098 185.115 262.067C161.412 280.463 131.578 288.096 106.645 304.434C95.031 312.048 84.4536 321.598 77.7066 333.891C71.4515 345.27 68.1834 358.899 71.0474 371.755C71.7326 374.85 72.8044 377.822 74.1925 380.689C74.4912 381.392 75.4751 380.777 75.1764 380.091Z" fill="url(#paint1_linear_115_129)"/>
<path d="M294.331 126.028C279.1 130.357 266.803 141.834 257.914 154.521C248.288 168.294 242.157 184.082 237.695 200.186C232.477 218.971 229.087 238.263 222.868 256.768C219.882 265.652 216.281 274.414 211.415 282.439C207.093 289.553 201.823 296.09 195.745 301.785C183.94 312.824 168.551 320.674 152.056 320.114C150.018 320.044 147.98 319.851 145.96 319.553C145.011 319.413 144.572 320.815 145.556 321.025C161.612 324.442 177.932 318.519 190.668 308.864C197.343 303.8 203.211 297.754 208.217 291.043C213.523 283.929 217.616 276.113 220.989 267.93C228.507 249.706 232.284 230.256 236.957 211.19C241.103 194.211 246.18 177.459 255.104 162.301C263.255 148.458 274.375 136.49 289.025 129.481C290.852 128.604 292.714 127.816 294.594 127.097C295.279 126.834 295.033 125.818 294.331 126.028Z" fill="url(#paint2_linear_115_129)"/>
<path d="M259 55.5C259 56.8799 257.656 58 256 58C254.344 58 253 56.8799 253 55.5C253 54.1201 254.344 53 256 53C257.656 53.0162 259 54.1201 259 55.5Z" fill="white"/>
<path d="M226 19C229.866 19 233 16.5376 233 13.5C233 10.4625 229.866 8 226 8C222.134 8 219 10.4625 219 13.5C219 16.5376 222.134 19 226 19Z" fill="white"/>
<path d="M151.5 143C155.09 143 158 140.538 158 137.5C158 134.462 155.09 132 151.5 132C147.91 132 145 134.462 145 137.5C145 140.538 147.91 143 151.5 143Z" fill="white"/>
<defs>
<linearGradient id="paint0_linear_115_129" x1="-0.0302592" y1="212.488" x2="383.566" y2="212.488" gradientUnits="userSpaceOnUse">
<stop stop-color="#5C5A44"/>
<stop offset="0.6103" stop-color="#3F4541"/>
<stop offset="1" stop-color="#313C40"/>
</linearGradient>
<linearGradient id="paint1_linear_115_129" x1="69.965" y1="217.502" x2="312.555" y2="217.502" gradientUnits="userSpaceOnUse">
<stop stop-color="#5C5A44"/>
<stop offset="0.6103" stop-color="#3F4541"/>
<stop offset="1" stop-color="#313C40"/>
</linearGradient>
<linearGradient id="paint2_linear_115_129" x1="145.619" y1="223.998" x2="294.749" y2="223.998" gradientUnits="userSpaceOnUse">
<stop stop-color="#5C5A44"/>
<stop offset="0.6103" stop-color="#3F4541"/>
<stop offset="1" stop-color="#313C40"/>
</linearGradient>
</defs>
</svg>
