<svg width="396" height="329" viewBox="0 0 396 329" fill="none" xmlns="http://www.w3.org/2000/svg">
<path d="M338.535 -145.882C318.907 -156.804 294.594 -163.988 272.295 -157.592C254.987 -152.628 241.926 -139.691 232.06 -125.118C220.955 -108.721 213.132 -90.337 204.843 -72.4207C199.765 -61.4548 194.234 -50.9124 186.82 -41.3045C178.852 -30.9665 169.366 -21.7967 158.786 -14.1746C147.841 -6.30426 135.786 -0.156937 123.003 4.09216C108.424 8.93993 93.2754 11.6266 78.317 15.0142C53.7268 20.6066 27.6481 29.2947 11.5513 49.9999C4.42966 59.1551 0.197519 70.2524 0.00780264 81.89C-0.196507 93.8342 3.62703 105.603 9.65418 115.824C23.3284 139.056 47.1013 152.343 71.9104 160.856C98.4707 169.967 126.505 174.304 152.511 185.109C165.499 190.512 177.933 197.594 188.236 207.275C198.451 216.883 206.346 228.579 213.366 240.64C226.602 263.418 237.256 288.256 256.329 306.99C265.129 315.634 275.651 322.628 287.531 326.191C299.468 329.754 312.223 329.754 324.35 327.169C381.338 315.006 406.702 257.548 429.672 210.37C442.514 184 456.758 158.33 478.4 138.106C499.298 118.584 524.238 103.69 543.721 82.6055C561.029 63.8861 574.046 39.9101 570.996 13.6709C568.092 -11.2688 552.579 -33.332 533.549 -48.9412C511.63 -66.9159 484.515 -77.4291 458.188 -87.0955C444.061 -92.2791 429.76 -97.1122 416.042 -103.333C402.499 -109.48 389.481 -116.678 376.624 -124.125C370.48 -127.688 364.38 -131.309 358.251 -134.901C351.742 -138.712 344.985 -142.012 338.404 -145.677C337.893 -145.969 337.426 -145.181 337.937 -144.889C344.504 -141.239 350.75 -136.989 357.229 -133.178C363.359 -129.586 369.459 -125.965 375.603 -122.402C388.168 -115.116 400.893 -108.078 414.101 -102.033C440.296 -90.0304 468.287 -82.5105 494.409 -70.3035C518.766 -58.9288 541.678 -43.6554 556.3 -20.5555C563.013 -9.95468 567.8 2.01872 569.114 14.547C570.485 27.6155 567.859 40.684 562.284 52.5259C550.609 77.3342 528.85 95.0315 507.675 111.488C496.438 120.219 485.084 128.878 474.825 138.764C464.901 148.313 456.364 159.104 448.95 170.697C433.831 194.338 423.251 220.445 410.277 245.254C397.61 269.463 382.112 293.702 359.316 309.56C338.258 324.205 310.515 332.061 285.546 323.475C260.97 315.021 244.728 292.636 232.352 270.967C219.218 247.955 208.302 222.709 188.265 204.632C168.476 186.789 142.456 178.349 117.209 171.603C90.5318 164.477 62.6726 158.636 39.1478 143.422C18.3957 130.003 1.1461 106.786 1.96334 81.1015C2.78058 55.0813 23.7954 36.7853 46.036 26.973C72.7276 15.1894 102.674 14.1527 129.818 3.69788C152.555 -5.06314 172.708 -20.1613 187.696 -39.3479C201.005 -56.3735 208.506 -76.6552 217.861 -95.9295C225.931 -112.561 235.081 -129.616 248.931 -142.202C263.232 -155.212 281.591 -160.119 300.621 -157.461C313.741 -155.636 326.218 -150.963 337.82 -144.641C338.608 -144.246 339.309 -145.444 338.535 -145.882Z" fill="url(#paint0_linear_115_130)"/>
<path d="M451.849 141.977C469.047 123.42 490.799 110.096 509.574 93.3021C525.939 78.666 540.976 60.0648 544.655 37.8337C548.188 16.3753 539.837 -4.73332 526.362 -21.2207C511.355 -39.5887 490.464 -51.5133 468.945 -60.7847C445.426 -70.9163 420.593 -77.8116 397.526 -89.0073C374.548 -100.174 353.438 -114.635 330.795 -126.37C313.641 -135.262 292.574 -140.7 273.494 -135.204C258.807 -130.977 247.42 -120.422 238.69 -108.264C228.719 -94.3865 221.696 -78.6133 214.587 -63.1755C210.514 -54.3122 206.528 -45.4198 201.17 -37.2271C195.17 -28.0723 187.914 -19.7484 179.695 -12.5178C171.272 -5.09776 161.811 1.14156 151.68 5.96678C140.015 11.5209 127.475 14.7717 114.905 17.5561C92.0429 22.6145 68.2173 26.6963 49.0197 41.07C40.9464 47.1198 33.9681 54.8168 29.895 64.132C25.8219 73.4326 25.0043 83.739 27.0628 93.6519C31.4863 114.906 47.1072 132.021 65.5457 142.575C107.211 166.439 162.541 162.342 198.338 197.183C215.711 214.093 225.127 236.864 237.244 257.404C248.004 275.655 261.858 293.804 282.107 302.012C302.765 310.394 326.298 306.021 345.321 295.495C365.89 284.125 380.957 265.349 392.782 245.465C395.76 240.45 398.563 235.348 401.249 230.173C404.023 224.852 406.155 219.283 408.768 213.889C409.016 213.364 408.242 212.898 407.979 213.423C405.395 218.773 402.271 223.89 399.527 229.152C396.767 234.444 393.906 239.692 390.84 244.823C384.811 254.926 378.051 264.62 370.051 273.264C354.62 289.941 333.817 302.478 310.765 304.257C299.684 305.117 288.501 303.236 278.53 298.251C268.793 293.382 260.588 286.02 253.639 277.725C238.996 260.246 230.237 238.992 218.324 219.735C212.397 210.157 205.623 201.002 197.229 193.437C188.79 185.827 178.907 179.996 168.541 175.433C147.242 166.045 124.248 161.817 102.029 155.214C79.8965 148.639 57.3995 139.237 42.5523 120.81C29.1067 104.119 22.7269 80.8526 33.5885 61.1581C44.129 42.0467 65.5457 31.8714 85.7507 26.3173C109.386 19.8156 134.161 17.352 156.205 5.93761C174.804 -3.68372 190.878 -18.1303 202.44 -35.5652C212.309 -50.4345 218.397 -67.6071 226.397 -83.4969C233.463 -97.5061 241.624 -111.705 253.654 -122.084C266.121 -132.843 281.873 -136.91 298.122 -134.869C322.371 -131.837 342.868 -117.39 363.467 -105.378C374.314 -99.0513 385.249 -92.8412 396.563 -87.36C407.468 -82.0683 418.71 -77.7678 430.097 -73.6423C472.463 -58.2336 524.143 -40.4342 540.086 6.65195C543.604 17.0313 544.64 28.1395 542.582 38.927C540.48 49.9187 535.472 60.1231 529.034 69.2196C515.282 88.6955 495.661 102.486 477.208 117.122C467.908 124.498 458.857 132.195 450.871 140.986C450.273 141.656 451.251 142.633 451.849 141.977Z" fill="url(#paint1_linear_115_130)"/>
<defs>
<linearGradient id="paint0_linear_115_130" x1="32.388" y1="182.077" x2="564.081" y2="-11.3353" gradientUnits="userSpaceOnUse">
<stop offset="0.0277" stop-color="#FE718A"/>
<stop offset="0.0356" stop-color="#EC657D"/>
<stop offset="0.0797" stop-color="#C44A60"/>
<stop offset="0.1292" stop-color="#B44055"/>
<stop offset="0.1831" stop-color="#884565"/>
<stop offset="0.2427" stop-color="#6C4446"/>
<stop offset="0.3099" stop-color="#574243"/>
<stop offset="0.3884" stop-color="#4B4141"/>
<stop offset="0.4856" stop-color="#423A3A"/>
<stop offset="0.6218" stop-color="#403334"/>
<stop offset="1" stop-color="#403131"/>
</linearGradient>
<linearGradient id="paint1_linear_115_130" x1="161.184" y1="-71.9845" x2="439.177" y2="206.414" gradientUnits="userSpaceOnUse">
<stop stop-color="#313C40"/>
<stop offset="0.251" stop-color="#333E40"/>
<stop offset="0.397" stop-color="#5A5A5A"/>
<stop offset="0.5161" stop-color="#4F4F4F"/>
<stop offset="0.6208" stop-color="#595959"/>
<stop offset="0.716" stop-color="#7C7C7C"/>
<stop offset="0.8042" stop-color="#9C9C9C"/>
<stop offset="0.8873" stop-color="#DBDBDB"/>
<stop offset="0.964" stop-color="#D4D4D4"/>
<stop offset="1" stop-color="#D4D4D4"/>
</linearGradient>
</defs>
</svg>
