<svg width="147" height="18" viewBox="0 0 147 18" fill="none" xmlns="http://www.w3.org/2000/svg">
<path d="M0.646484 17.625V0.25H13.3715V2.425H5.82148L3.07148 2.375L3.09648 4.45V5.7L3.07148 7.625L5.82148 7.575H12.0965V9.75H5.82148L3.07148 9.7L3.09648 11.625V13.425L3.07148 15.525L5.82148 15.475H13.3715V17.625H0.646484Z" fill="#D4D4D4"/>
<path d="M14.4123 17.625L21.2873 8.925L14.4623 0.25H17.6123L21.1623 4.9L22.6623 7.225H22.9873L24.4623 4.9L28.0123 0.25H31.1623L24.3623 8.95L31.2123 17.625H28.0373L24.4123 12.925L22.9873 10.625H22.6623L21.2123 12.9L17.5623 17.625H14.4123Z" fill="#D4D4D4"/>
<path d="M32.873 17.625V0.25H39.848C41.7147 0.25 43.198 0.7 44.298 1.6C45.398 2.5 45.948 3.84167 45.948 5.625C45.948 7.40833 45.398 8.75 44.298 9.65C43.198 10.5333 41.7147 10.975 39.848 10.975H37.648L35.298 10.925L35.323 13.075V17.625H32.873ZM35.298 8.875L37.648 8.825H40.023C41.1897 8.825 42.073 8.55833 42.673 8.025C43.2897 7.475 43.598 6.675 43.598 5.625C43.598 4.575 43.2897 3.775 42.673 3.225C42.073 2.675 41.1897 2.4 40.023 2.4H37.648L35.298 2.35L35.348 4.6V6.625L35.298 8.875Z" fill="#D4D4D4"/>
<path d="M47.8389 17.625V0.25H60.5639V2.425H53.0139L50.2639 2.375L50.2889 4.45V5.7L50.2639 7.625L53.0139 7.575H59.2889V9.75H53.0139L50.2639 9.7L50.2889 11.625V13.425L50.2639 15.525L53.0139 15.475H60.5639V17.625H47.8389Z" fill="#D4D4D4"/>
<path d="M62.7314 17.625V0.25H70.3314C72.0148 0.25 73.3898 0.658333 74.4564 1.475C75.5231 2.29167 76.0564 3.51667 76.0564 5.15C76.0564 6.51667 75.6231 7.59167 74.7564 8.375C73.9064 9.14167 72.7981 9.54167 71.4314 9.575V9.85C72.3648 9.95 73.1231 10.2417 73.7064 10.725C74.2898 11.1917 74.7564 11.9833 75.1064 13.1L76.6064 17.625H74.1064L72.7564 13.4C72.4231 12.3833 71.9481 11.6583 71.3314 11.225C70.7148 10.775 69.9314 10.55 68.9814 10.55H67.4814L65.1564 10.5L65.1814 12.925V17.625H62.7314ZM65.1564 8.475L67.5814 8.45H69.9064C72.4564 8.45 73.7314 7.43333 73.7314 5.4C73.7314 3.35 72.4564 2.325 69.9064 2.325H67.5814L65.1564 2.3L65.1814 4.475V6.175L65.1564 8.475Z" fill="#D4D4D4"/>
<path d="M78.6494 17.625V0.25H81.0994V17.625H78.6494Z" fill="#D4D4D4"/>
<path d="M83.9717 17.625V0.25H96.6967V2.425H89.1467L86.3967 2.375L86.4217 4.45V5.7L86.3967 7.625L89.1467 7.575H95.4217V9.75H89.1467L86.3967 9.7L86.4217 11.625V13.425L86.3967 15.525L89.1467 15.475H96.6967V17.625H83.9717Z" fill="#D4D4D4"/>
<path d="M98.8643 17.625V0.25H102.014L109.364 12.1L110.589 14.55H110.989L110.839 11.925V0.25H113.264V17.625H110.089L102.364 5.2L101.539 3.325H101.164L101.314 5.95V17.625H98.8643Z" fill="#D4D4D4"/>
<path d="M123.523 17.875C121.123 17.875 119.198 17.0667 117.748 15.45C116.315 13.8333 115.598 11.6667 115.598 8.95C115.598 6.26667 116.315 4.10833 117.748 2.475C119.198 0.825 121.107 0 123.473 0C125.557 0 127.265 0.591667 128.598 1.775C129.932 2.95833 130.69 4.59167 130.873 6.675L128.398 6.875C128.265 5.39167 127.757 4.23333 126.873 3.4C125.99 2.56667 124.857 2.15 123.473 2.15C121.84 2.15 120.532 2.775 119.548 4.025C118.565 5.25833 118.073 6.9 118.073 8.95C118.073 11.0167 118.565 12.6667 119.548 13.9C120.548 15.1167 121.873 15.725 123.523 15.725C124.957 15.725 126.123 15.3083 127.023 14.475C127.94 13.625 128.482 12.4417 128.648 10.925L131.048 11.125C130.848 13.2417 130.073 14.9 128.723 16.1C127.373 17.2833 125.64 17.875 123.523 17.875Z" fill="#D4D4D4"/>
<path d="M133.337 17.625V0.25H146.062V2.425H138.512L135.762 2.375L135.787 4.45V5.7L135.762 7.625L138.512 7.575H144.787V9.75H138.512L135.762 9.7L135.787 11.625V13.425L135.762 15.525L138.512 15.475H146.062V17.625H133.337Z" fill="#D4D4D4"/>
</svg>
