<svg width="733" height="78" viewBox="0 0 733 78" fill="none" xmlns="http://www.w3.org/2000/svg">
<mask id="path-1-outside-1_16_906" maskUnits="userSpaceOnUse" x="0" y="0" width="733" height="78" fill="black">
<rect fill="white" width="733" height="78"/>
<path d="M3 73.993V4.00699H34.0929C42.9193 4.00699 49.6728 5.92028 54.3535 9.74686C59.101 13.5734 61.4748 19.2797 61.4748 26.8657C61.4748 34.3846 59.101 40.0573 54.3535 43.8839C49.6728 47.7105 42.9193 49.6238 34.0929 49.6238H19.3489V73.993H3ZM19.3489 35.5259H36.3998C39.4757 35.5259 41.816 34.6867 43.4208 33.0084C45.0256 31.2629 45.828 29.2154 45.828 26.8657C45.828 24.5161 45.0256 22.4685 43.4208 20.7231C41.816 18.9776 39.4757 18.1049 36.3998 18.1049H19.3489V35.5259Z"/>
<path d="M67.4505 73.993V4.00699H101.151C108.44 4.00699 114.357 5.75245 118.904 9.24336C123.518 12.6671 125.825 17.7692 125.825 24.5497C125.825 29.1147 124.254 33.0755 121.111 36.4322C118.035 39.7217 113.488 41.8028 107.47 42.6755C112.084 43.2797 115.661 44.8238 118.202 47.3077C120.81 49.7245 122.749 52.9804 124.02 57.0755L129.335 73.993H113.287L108.874 59.4923C106.601 51.9734 102.087 48.214 95.3338 48.214H83.4984V73.993H67.4505ZM83.4984 34.6196H98.5434C106.434 34.6196 110.379 31.8 110.379 26.1608C110.379 20.4545 106.434 17.6014 98.5434 17.6014H83.4984V34.6196Z"/>
<path d="M165.445 75C154.679 75 146.355 71.7441 140.47 65.2322C134.586 58.7203 131.644 49.9594 131.644 38.9497C131.644 28.1413 134.586 19.4476 140.47 12.8685C146.421 6.28951 154.746 3 165.445 3C176.144 3 184.402 6.28951 190.219 12.8685C196.036 19.4476 198.945 28.1413 198.945 38.9497C198.945 49.9594 196.036 58.7203 190.219 65.2322C184.402 71.7441 176.144 75 165.445 75ZM165.445 60.9021C170.928 60.9021 175.141 58.9217 178.083 54.9608C181.025 50.9329 182.496 45.5622 182.496 38.849C182.496 32.3371 181.025 27.1007 178.083 23.1399C175.141 19.179 170.928 17.1986 165.445 17.1986C159.895 17.1986 155.616 19.2126 152.607 23.2406C149.598 27.2014 148.093 32.4042 148.093 38.849C148.093 45.5622 149.598 50.9329 152.607 54.9608C155.616 58.9217 159.895 60.9021 165.445 60.9021Z"/>
<path d="M234.636 74.8993C225.208 74.8993 217.619 71.6769 211.868 65.2322C206.184 58.7874 203.343 50.0601 203.343 39.0504C203.343 28.3762 206.418 19.7161 212.57 13.0699C218.789 6.35664 227.013 3 237.244 3C246.605 3 254.061 5.51748 259.611 10.5524C265.161 15.5874 268.404 22.5692 269.34 31.4979L253.693 32.6056C253.158 27.772 251.453 23.979 248.578 21.2266C245.769 18.4741 242.025 17.0979 237.344 17.0979C231.794 17.0979 227.381 19.1455 224.105 23.2406C220.895 27.3357 219.29 32.6056 219.29 39.0504C219.29 45.5622 220.862 50.8657 224.004 54.9608C227.147 59.0559 231.259 61.1035 236.341 61.1035C243.83 61.1035 248.745 57.7133 251.085 50.9329H236.241V38.3455H269.841V73.993H259.41L257.705 61.1035C253.024 70.3007 245.335 74.8993 234.636 74.8993Z"/>
<path d="M278.237 73.993V4.00699H311.938C319.226 4.00699 325.144 5.75245 329.691 9.24336C334.304 12.6671 336.611 17.7692 336.611 24.5497C336.611 29.1147 335.04 33.0755 331.897 36.4322C328.821 39.7217 324.274 41.8028 318.256 42.6755C322.87 43.2797 326.448 44.8238 328.989 47.3077C331.596 49.7245 333.535 52.9804 334.806 57.0755L340.122 73.993H324.074L319.661 59.4923C317.387 51.9734 312.874 48.214 306.12 48.214H294.285V73.993H278.237ZM294.285 34.6196H309.33C317.22 34.6196 321.165 31.8 321.165 26.1608C321.165 20.4545 317.22 17.6014 309.33 17.6014H294.285V34.6196Z"/>
<path d="M343.265 73.993L371.248 4.00699H389.302L417.386 73.993H399.633L394.117 58.7874H366.534L361.018 73.993H343.265ZM371.048 45.4951H389.503L380.275 20.5217L371.048 45.4951Z"/>
<path d="M422.32 73.993V4.00699H441.477L462.339 57.9818L483.202 4.00699H502.359V73.993H486.612V33.9147L470.664 73.993H454.015L438.067 33.5119V73.993H422.32Z"/>
<path d="M512.433 73.993V4.00699H531.59L552.453 57.9818L573.315 4.00699H592.472V73.993H576.725V33.9147L560.778 73.993H544.128L528.18 33.5119V73.993H512.433Z"/>
<path d="M602.546 73.993V4.00699H658.313V18.2056H618.895V30.793H652.696V44.9916H618.594V59.593H658.313V73.993H602.546Z"/>
<path d="M666.115 73.993V4.00699H699.816C707.104 4.00699 713.022 5.75245 717.569 9.24336C722.183 12.6671 724.49 17.7692 724.49 24.5497C724.49 29.1147 722.918 33.0755 719.775 36.4322C716.7 39.7217 712.153 41.8028 706.135 42.6755C710.748 43.2797 714.326 44.8238 716.867 47.3077C719.474 49.7245 721.414 52.9804 722.684 57.0755L728 73.993H711.952L707.539 59.4923C705.265 51.9734 700.752 48.214 693.998 48.214H682.163V73.993H666.115ZM682.163 34.6196H697.208C705.098 34.6196 709.043 31.8 709.043 26.1608C709.043 20.4545 705.098 17.6014 697.208 17.6014H682.163V34.6196Z"/>
</mask>
<path d="M3 73.993V4.00699H34.0929C42.9193 4.00699 49.6728 5.92028 54.3535 9.74686C59.101 13.5734 61.4748 19.2797 61.4748 26.8657C61.4748 34.3846 59.101 40.0573 54.3535 43.8839C49.6728 47.7105 42.9193 49.6238 34.0929 49.6238H19.3489V73.993H3ZM19.3489 35.5259H36.3998C39.4757 35.5259 41.816 34.6867 43.4208 33.0084C45.0256 31.2629 45.828 29.2154 45.828 26.8657C45.828 24.5161 45.0256 22.4685 43.4208 20.7231C41.816 18.9776 39.4757 18.1049 36.3998 18.1049H19.3489V35.5259Z" fill="#171717"/>
<path d="M67.4505 73.993V4.00699H101.151C108.44 4.00699 114.357 5.75245 118.904 9.24336C123.518 12.6671 125.825 17.7692 125.825 24.5497C125.825 29.1147 124.254 33.0755 121.111 36.4322C118.035 39.7217 113.488 41.8028 107.47 42.6755C112.084 43.2797 115.661 44.8238 118.202 47.3077C120.81 49.7245 122.749 52.9804 124.02 57.0755L129.335 73.993H113.287L108.874 59.4923C106.601 51.9734 102.087 48.214 95.3338 48.214H83.4984V73.993H67.4505ZM83.4984 34.6196H98.5434C106.434 34.6196 110.379 31.8 110.379 26.1608C110.379 20.4545 106.434 17.6014 98.5434 17.6014H83.4984V34.6196Z" fill="#171717"/>
<path d="M165.445 75C154.679 75 146.355 71.7441 140.47 65.2322C134.586 58.7203 131.644 49.9594 131.644 38.9497C131.644 28.1413 134.586 19.4476 140.47 12.8685C146.421 6.28951 154.746 3 165.445 3C176.144 3 184.402 6.28951 190.219 12.8685C196.036 19.4476 198.945 28.1413 198.945 38.9497C198.945 49.9594 196.036 58.7203 190.219 65.2322C184.402 71.7441 176.144 75 165.445 75ZM165.445 60.9021C170.928 60.9021 175.141 58.9217 178.083 54.9608C181.025 50.9329 182.496 45.5622 182.496 38.849C182.496 32.3371 181.025 27.1007 178.083 23.1399C175.141 19.179 170.928 17.1986 165.445 17.1986C159.895 17.1986 155.616 19.2126 152.607 23.2406C149.598 27.2014 148.093 32.4042 148.093 38.849C148.093 45.5622 149.598 50.9329 152.607 54.9608C155.616 58.9217 159.895 60.9021 165.445 60.9021Z" fill="#171717"/>
<path d="M234.636 74.8993C225.208 74.8993 217.619 71.6769 211.868 65.2322C206.184 58.7874 203.343 50.0601 203.343 39.0504C203.343 28.3762 206.418 19.7161 212.57 13.0699C218.789 6.35664 227.013 3 237.244 3C246.605 3 254.061 5.51748 259.611 10.5524C265.161 15.5874 268.404 22.5692 269.34 31.4979L253.693 32.6056C253.158 27.772 251.453 23.979 248.578 21.2266C245.769 18.4741 242.025 17.0979 237.344 17.0979C231.794 17.0979 227.381 19.1455 224.105 23.2406C220.895 27.3357 219.29 32.6056 219.29 39.0504C219.29 45.5622 220.862 50.8657 224.004 54.9608C227.147 59.0559 231.259 61.1035 236.341 61.1035C243.83 61.1035 248.745 57.7133 251.085 50.9329H236.241V38.3455H269.841V73.993H259.41L257.705 61.1035C253.024 70.3007 245.335 74.8993 234.636 74.8993Z" fill="#171717"/>
<path d="M278.237 73.993V4.00699H311.938C319.226 4.00699 325.144 5.75245 329.691 9.24336C334.304 12.6671 336.611 17.7692 336.611 24.5497C336.611 29.1147 335.04 33.0755 331.897 36.4322C328.821 39.7217 324.274 41.8028 318.256 42.6755C322.87 43.2797 326.448 44.8238 328.989 47.3077C331.596 49.7245 333.535 52.9804 334.806 57.0755L340.122 73.993H324.074L319.661 59.4923C317.387 51.9734 312.874 48.214 306.12 48.214H294.285V73.993H278.237ZM294.285 34.6196H309.33C317.22 34.6196 321.165 31.8 321.165 26.1608C321.165 20.4545 317.22 17.6014 309.33 17.6014H294.285V34.6196Z" fill="#171717"/>
<path d="M343.265 73.993L371.248 4.00699H389.302L417.386 73.993H399.633L394.117 58.7874H366.534L361.018 73.993H343.265ZM371.048 45.4951H389.503L380.275 20.5217L371.048 45.4951Z" fill="#171717"/>
<path d="M422.32 73.993V4.00699H441.477L462.339 57.9818L483.202 4.00699H502.359V73.993H486.612V33.9147L470.664 73.993H454.015L438.067 33.5119V73.993H422.32Z" fill="#171717"/>
<path d="M512.433 73.993V4.00699H531.59L552.453 57.9818L573.315 4.00699H592.472V73.993H576.725V33.9147L560.778 73.993H544.128L528.18 33.5119V73.993H512.433Z" fill="#171717"/>
<path d="M602.546 73.993V4.00699H658.313V18.2056H618.895V30.793H652.696V44.9916H618.594V59.593H658.313V73.993H602.546Z" fill="#171717"/>
<path d="M666.115 73.993V4.00699H699.816C707.104 4.00699 713.022 5.75245 717.569 9.24336C722.183 12.6671 724.49 17.7692 724.49 24.5497C724.49 29.1147 722.918 33.0755 719.775 36.4322C716.7 39.7217 712.153 41.8028 706.135 42.6755C710.748 43.2797 714.326 44.8238 716.867 47.3077C719.474 49.7245 721.414 52.9804 722.684 57.0755L728 73.993H711.952L707.539 59.4923C705.265 51.9734 700.752 48.214 693.998 48.214H682.163V73.993H666.115ZM682.163 34.6196H697.208C705.098 34.6196 709.043 31.8 709.043 26.1608C709.043 20.4545 705.098 17.6014 697.208 17.6014H682.163V34.6196Z" fill="#171717"/>
<path d="M3 73.993V4.00699H34.0929C42.9193 4.00699 49.6728 5.92028 54.3535 9.74686C59.101 13.5734 61.4748 19.2797 61.4748 26.8657C61.4748 34.3846 59.101 40.0573 54.3535 43.8839C49.6728 47.7105 42.9193 49.6238 34.0929 49.6238H19.3489V73.993H3ZM19.3489 35.5259H36.3998C39.4757 35.5259 41.816 34.6867 43.4208 33.0084C45.0256 31.2629 45.828 29.2154 45.828 26.8657C45.828 24.5161 45.0256 22.4685 43.4208 20.7231C41.816 18.9776 39.4757 18.1049 36.3998 18.1049H19.3489V35.5259Z" stroke="url(#paint0_linear_16_906)" stroke-width="6" mask="url(#path-1-outside-1_16_906)"/>
<path d="M67.4505 73.993V4.00699H101.151C108.44 4.00699 114.357 5.75245 118.904 9.24336C123.518 12.6671 125.825 17.7692 125.825 24.5497C125.825 29.1147 124.254 33.0755 121.111 36.4322C118.035 39.7217 113.488 41.8028 107.47 42.6755C112.084 43.2797 115.661 44.8238 118.202 47.3077C120.81 49.7245 122.749 52.9804 124.02 57.0755L129.335 73.993H113.287L108.874 59.4923C106.601 51.9734 102.087 48.214 95.3338 48.214H83.4984V73.993H67.4505ZM83.4984 34.6196H98.5434C106.434 34.6196 110.379 31.8 110.379 26.1608C110.379 20.4545 106.434 17.6014 98.5434 17.6014H83.4984V34.6196Z" stroke="url(#paint1_linear_16_906)" stroke-width="6" mask="url(#path-1-outside-1_16_906)"/>
<path d="M165.445 75C154.679 75 146.355 71.7441 140.47 65.2322C134.586 58.7203 131.644 49.9594 131.644 38.9497C131.644 28.1413 134.586 19.4476 140.47 12.8685C146.421 6.28951 154.746 3 165.445 3C176.144 3 184.402 6.28951 190.219 12.8685C196.036 19.4476 198.945 28.1413 198.945 38.9497C198.945 49.9594 196.036 58.7203 190.219 65.2322C184.402 71.7441 176.144 75 165.445 75ZM165.445 60.9021C170.928 60.9021 175.141 58.9217 178.083 54.9608C181.025 50.9329 182.496 45.5622 182.496 38.849C182.496 32.3371 181.025 27.1007 178.083 23.1399C175.141 19.179 170.928 17.1986 165.445 17.1986C159.895 17.1986 155.616 19.2126 152.607 23.2406C149.598 27.2014 148.093 32.4042 148.093 38.849C148.093 45.5622 149.598 50.9329 152.607 54.9608C155.616 58.9217 159.895 60.9021 165.445 60.9021Z" stroke="url(#paint2_linear_16_906)" stroke-width="6" mask="url(#path-1-outside-1_16_906)"/>
<path d="M234.636 74.8993C225.208 74.8993 217.619 71.6769 211.868 65.2322C206.184 58.7874 203.343 50.0601 203.343 39.0504C203.343 28.3762 206.418 19.7161 212.57 13.0699C218.789 6.35664 227.013 3 237.244 3C246.605 3 254.061 5.51748 259.611 10.5524C265.161 15.5874 268.404 22.5692 269.34 31.4979L253.693 32.6056C253.158 27.772 251.453 23.979 248.578 21.2266C245.769 18.4741 242.025 17.0979 237.344 17.0979C231.794 17.0979 227.381 19.1455 224.105 23.2406C220.895 27.3357 219.29 32.6056 219.29 39.0504C219.29 45.5622 220.862 50.8657 224.004 54.9608C227.147 59.0559 231.259 61.1035 236.341 61.1035C243.83 61.1035 248.745 57.7133 251.085 50.9329H236.241V38.3455H269.841V73.993H259.41L257.705 61.1035C253.024 70.3007 245.335 74.8993 234.636 74.8993Z" stroke="url(#paint3_linear_16_906)" stroke-width="6" mask="url(#path-1-outside-1_16_906)"/>
<path d="M278.237 73.993V4.00699H311.938C319.226 4.00699 325.144 5.75245 329.691 9.24336C334.304 12.6671 336.611 17.7692 336.611 24.5497C336.611 29.1147 335.04 33.0755 331.897 36.4322C328.821 39.7217 324.274 41.8028 318.256 42.6755C322.87 43.2797 326.448 44.8238 328.989 47.3077C331.596 49.7245 333.535 52.9804 334.806 57.0755L340.122 73.993H324.074L319.661 59.4923C317.387 51.9734 312.874 48.214 306.12 48.214H294.285V73.993H278.237ZM294.285 34.6196H309.33C317.22 34.6196 321.165 31.8 321.165 26.1608C321.165 20.4545 317.22 17.6014 309.33 17.6014H294.285V34.6196Z" stroke="url(#paint4_linear_16_906)" stroke-width="6" mask="url(#path-1-outside-1_16_906)"/>
<path d="M343.265 73.993L371.248 4.00699H389.302L417.386 73.993H399.633L394.117 58.7874H366.534L361.018 73.993H343.265ZM371.048 45.4951H389.503L380.275 20.5217L371.048 45.4951Z" stroke="url(#paint5_linear_16_906)" stroke-width="6" mask="url(#path-1-outside-1_16_906)"/>
<path d="M422.32 73.993V4.00699H441.477L462.339 57.9818L483.202 4.00699H502.359V73.993H486.612V33.9147L470.664 73.993H454.015L438.067 33.5119V73.993H422.32Z" stroke="url(#paint6_linear_16_906)" stroke-width="6" mask="url(#path-1-outside-1_16_906)"/>
<path d="M512.433 73.993V4.00699H531.59L552.453 57.9818L573.315 4.00699H592.472V73.993H576.725V33.9147L560.778 73.993H544.128L528.18 33.5119V73.993H512.433Z" stroke="url(#paint7_linear_16_906)" stroke-width="6" mask="url(#path-1-outside-1_16_906)"/>
<path d="M602.546 73.993V4.00699H658.313V18.2056H618.895V30.793H652.696V44.9916H618.594V59.593H658.313V73.993H602.546Z" stroke="url(#paint8_linear_16_906)" stroke-width="6" mask="url(#path-1-outside-1_16_906)"/>
<path d="M666.115 73.993V4.00699H699.816C707.104 4.00699 713.022 5.75245 717.569 9.24336C722.183 12.6671 724.49 17.7692 724.49 24.5497C724.49 29.1147 722.918 33.0755 719.775 36.4322C716.7 39.7217 712.153 41.8028 706.135 42.6755C710.748 43.2797 714.326 44.8238 716.867 47.3077C719.474 49.7245 721.414 52.9804 722.684 57.0755L728 73.993H711.952L707.539 59.4923C705.265 51.9734 700.752 48.214 693.998 48.214H682.163V73.993H666.115ZM682.163 34.6196H697.208C705.098 34.6196 709.043 31.8 709.043 26.1608C709.043 20.4545 705.098 17.6014 697.208 17.6014H682.163V34.6196Z" stroke="url(#paint9_linear_16_906)" stroke-width="6" mask="url(#path-1-outside-1_16_906)"/>
<defs>
<linearGradient id="paint0_linear_16_906" x1="365.5" y1="3" x2="365.5" y2="75" gradientUnits="userSpaceOnUse">
<stop stop-color="#D4D4D4"/>
</linearGradient>
<linearGradient id="paint1_linear_16_906" x1="365.5" y1="3" x2="365.5" y2="75" gradientUnits="userSpaceOnUse">
<stop stop-color="#D4D4D4"/>
</linearGradient>
<linearGradient id="paint2_linear_16_906" x1="365.5" y1="3" x2="365.5" y2="75" gradientUnits="userSpaceOnUse">
<stop stop-color="#D4D4D4"/>
</linearGradient>
<linearGradient id="paint3_linear_16_906" x1="365.5" y1="3" x2="365.5" y2="75" gradientUnits="userSpaceOnUse">
<stop stop-color="#D4D4D4"/>
</linearGradient>
<linearGradient id="paint4_linear_16_906" x1="365.5" y1="3" x2="365.5" y2="75" gradientUnits="userSpaceOnUse">
<stop stop-color="#D4D4D4"/>
</linearGradient>
<linearGradient id="paint5_linear_16_906" x1="365.5" y1="3" x2="365.5" y2="75" gradientUnits="userSpaceOnUse">
<stop stop-color="#D4D4D4"/>
</linearGradient>
<linearGradient id="paint6_linear_16_906" x1="365.5" y1="3" x2="365.5" y2="75" gradientUnits="userSpaceOnUse">
<stop stop-color="#D4D4D4"/>
</linearGradient>
<linearGradient id="paint7_linear_16_906" x1="365.5" y1="3" x2="365.5" y2="75" gradientUnits="userSpaceOnUse">
<stop stop-color="#D4D4D4"/>
</linearGradient>
<linearGradient id="paint8_linear_16_906" x1="365.5" y1="3" x2="365.5" y2="75" gradientUnits="userSpaceOnUse">
<stop stop-color="#D4D4D4"/>
</linearGradient>
<linearGradient id="paint9_linear_16_906" x1="365.5" y1="3" x2="365.5" y2="75" gradientUnits="userSpaceOnUse">
<stop stop-color="#D4D4D4"/>
</linearGradient>
</defs>
</svg>
