<svg width="861" height="101" viewBox="0 0 861 101" fill="none" xmlns="http://www.w3.org/2000/svg">
<path d="M44.2533 101C32.3389 101 22.363 98.2219 14.3256 92.6657C6.38269 87.0154 1.60749 78.8224 0 68.0867L22.9777 66.1091C23.9233 71.1002 26.2872 74.9142 30.0695 77.5511C33.9464 80.0937 38.7216 81.365 44.3951 81.365C50.0686 81.365 54.4656 80.3762 57.586 78.3986C60.801 76.421 62.4085 73.8783 62.4085 70.7706C62.4085 67.8513 61.3211 65.6382 59.1462 64.1315C57.0659 62.5305 53.4254 61.4005 48.2247 60.7413L31.4879 58.3399C22.1266 57.0214 14.8457 53.9608 9.64495 49.158C4.5388 44.2611 1.98572 38.0457 1.98572 30.5119C1.98572 21.6597 5.57894 14.3613 12.7654 8.61678C20.0464 2.87226 29.4549 0 40.991 0C52.7163 0 62.1721 2.82518 69.3585 8.47552C76.6395 14.1259 80.4691 22.6485 80.8474 34.0434L58.8626 35.5972C58.3898 30.3235 56.5932 26.3212 53.4727 23.5902C50.3523 20.8592 46.1917 19.4937 40.991 19.4937C36.074 19.4937 32.1026 20.5296 29.0767 22.6014C26.1454 24.6732 24.6797 27.31 24.6797 30.5119C24.6797 35.3147 28.2729 38.2811 35.4594 39.4112L55.0329 42.2364C75.0793 45.0615 85.1025 54.5259 85.1025 70.6294C85.1025 79.9525 81.4147 87.345 74.0392 92.807C66.6636 98.269 56.735 101 44.2533 101Z" fill="#D4D4D4"/>
<path d="M118.715 99.5874V21.3301H85.8083V1.41259H174.74V21.3301H141.834V99.5874H118.715Z" fill="#D4D4D4"/>
<path d="M183.168 99.5874V1.41259H262.029V21.3301H206.287V38.9874H254.086V58.9049H205.862V79.3874H262.029V99.5874H183.168Z" fill="#D4D4D4"/>
<path d="M273.063 99.5874V1.41259H317.032C329.514 1.41259 339.064 4.0965 345.683 9.46434C352.397 14.8322 355.754 22.8368 355.754 33.4783C355.754 44.0256 352.397 51.9832 345.683 57.3511C339.064 62.7189 329.514 65.4028 317.032 65.4028H296.182V99.5874H273.063ZM296.182 45.6266H320.294C324.644 45.6266 327.954 44.4494 330.223 42.0951C332.493 39.6466 333.627 36.7744 333.627 33.4783C333.627 30.1823 332.493 27.31 330.223 24.8615C327.954 22.4131 324.644 21.1888 320.294 21.1888H296.182V45.6266Z" fill="#D4D4D4"/>
<path d="M353.524 99.5874L393.097 1.41259H418.628L458.342 99.5874H433.237L425.436 78.2573H386.431L378.63 99.5874H353.524ZM392.813 59.6112H418.911L405.862 24.579L392.813 59.6112Z" fill="#D4D4D4"/>
<path d="M465.319 99.5874V1.41259H494.963L532.692 70.9119V1.41259H555.528V99.5874H525.883L488.155 30.5119V99.5874H465.319Z" fill="#D4D4D4"/>
<path d="M613.592 101C598.368 101 586.596 96.4326 578.275 87.2979C569.954 78.1632 565.793 65.8737 565.793 50.4294C565.793 35.2676 569.954 23.0723 578.275 13.8434C586.69 4.61445 598.463 0 613.592 0C628.722 0 640.4 4.61445 648.626 13.8434C656.853 23.0723 660.966 35.2676 660.966 50.4294C660.966 65.8737 656.853 78.1632 648.626 87.2979C640.4 96.4326 628.722 101 613.592 101ZM613.592 81.2238C621.346 81.2238 627.303 78.4457 631.464 72.8895C635.624 67.2392 637.705 59.7054 637.705 50.2881C637.705 41.1534 635.624 33.8079 631.464 28.2518C627.303 22.6956 621.346 19.9175 613.592 19.9175C605.744 19.9175 599.692 22.7427 595.437 28.393C591.182 33.9492 589.054 41.2476 589.054 50.2881C589.054 59.7054 591.182 67.2392 595.437 72.8895C599.692 78.4457 605.744 81.2238 613.592 81.2238Z" fill="#D4D4D4"/>
<path d="M698.756 99.5874L661.452 1.41259H686.132L712.372 79.3874L738.47 1.41259H763.15L725.988 99.5874H698.756Z" fill="#D4D4D4"/>
<path d="M756.182 99.5874L795.755 1.41259H821.286L861 99.5874H835.895L828.094 78.2573H789.088L781.287 99.5874H756.182ZM795.471 59.6112H821.569L808.52 24.579L795.471 59.6112Z" fill="#D4D4D4"/>
</svg>
