<svg width="192" height="193" viewBox="0 0 192 193" fill="none" xmlns="http://www.w3.org/2000/svg">
<path d="M8.59679 20.368C5.91075 20.2815 3.77804 19.2983 2.19865 17.4184C0.63831 15.539 -0.0915449 13.0386 0.00908425 9.91706C0.106645 6.89071 1.0621 4.46356 2.87543 2.63563C4.70844 0.789279 7.08226 -0.0869976 9.9969 0.00680193C12.6639 0.0926316 14.7649 0.874751 16.3001 2.35316C17.8352 3.83157 18.6953 5.84081 18.8804 8.38087L14.4126 8.55147C14.3044 7.17614 13.8533 6.0851 13.0593 5.27836C12.2843 4.47223 11.2301 4.04771 9.89662 4.00479C8.31547 3.95391 7.03946 4.49397 6.06859 5.62499C5.11676 6.75661 4.6114 8.23604 4.55249 10.0633C4.49297 11.9095 4.89217 13.4276 5.75009 14.6175C6.60801 15.8073 7.76087 16.4256 9.20866 16.4722C11.3423 16.5408 12.7734 15.6247 13.5021 13.7238L9.27304 13.5877L9.38809 10.0188L18.9607 10.3269L18.6349 20.4338L15.6631 20.3381L15.2951 16.668C13.8776 19.2327 11.6448 20.4661 8.59679 20.368Z" fill="#D4D4D4"/>
<path d="M30.637 21.9337C27.588 21.588 25.3344 20.403 23.8763 18.3785C22.4182 16.3541 21.8653 13.7903 22.2178 10.6871C22.5638 7.64065 23.6754 5.28471 25.5526 3.61931C27.4487 1.95605 29.9118 1.29621 32.9419 1.63977C35.9721 1.98334 38.2056 3.17571 39.6426 5.21689C41.0797 7.25807 41.6252 9.80189 41.2792 12.8483C40.9267 15.9516 39.8224 18.3275 37.9663 19.9761C36.1102 21.6248 33.6671 22.2773 30.637 21.9337ZM31.0883 17.9601C32.6413 18.1362 33.8978 17.7132 34.8579 16.6913C35.8201 15.6505 36.4087 14.1839 36.6236 12.2917C36.832 10.4563 36.583 8.93312 35.8765 7.72224C35.1701 6.51135 34.0403 5.81787 32.4874 5.6418C30.9155 5.46357 29.639 5.89381 28.6578 6.93251C27.6788 7.95228 27.0861 9.37043 26.8798 11.187C26.6649 13.0792 26.9191 14.6412 27.6424 15.8732C28.3678 17.0862 29.5164 17.7819 31.0883 17.9601Z" fill="#D4D4D4"/>
<path d="M54.2023 25.6564L58.0392 10.3026L51.6039 8.6972L52.5804 4.78945L69.9723 9.12817L68.9957 13.0359L62.5605 11.4305L58.7236 26.7844L54.2023 25.6564Z" fill="#D4D4D4"/>
<path d="M75.1942 32.404C72.3322 31.2979 70.4525 29.5812 69.5552 27.2538C68.6578 24.9264 68.7729 22.3063 69.9006 19.3935C71.0076 16.5339 72.6802 14.5361 74.9183 13.4001C77.1742 12.2709 79.7243 12.2559 82.5685 13.3551C85.4127 14.4543 87.2712 16.173 88.1439 18.5113C89.0166 20.8496 88.8995 23.4485 87.7925 26.3081C86.6648 29.2209 84.9943 31.2399 82.7808 32.3651C80.5673 33.4902 78.0384 33.5032 75.1942 32.404ZM76.6381 28.6741C78.0958 29.2375 79.4185 29.1463 80.6064 28.4007C81.8011 27.6373 82.7422 26.3675 83.4298 24.5914C84.0968 22.8686 84.242 21.3321 83.8655 19.9819C83.489 18.6317 82.5719 17.6749 81.1143 17.1116C79.6388 16.5414 78.2949 16.6346 77.0824 17.3911C75.8768 18.1298 74.9439 19.3518 74.2839 21.0568C73.5963 22.833 73.4462 24.4084 73.8336 25.7832C74.2278 27.1403 75.1627 28.1039 76.6381 28.6741Z" fill="#D4D4D4"/>
<path d="M90.8111 38.7557L108.354 26.4906L112.663 29.3019L108.501 50.2977L104.264 47.5332L105.308 43.0627L98.7251 38.7676L95.0481 41.5201L90.8111 38.7557ZM101.866 36.3133L106.27 39.1871L107.945 31.8187L101.866 36.3133Z" fill="#D4D4D4"/>
<path d="M108.672 50.6251L122.056 35.9516L129.156 42.4166C130.691 43.8148 131.604 45.316 131.894 46.9201C132.212 48.5231 131.722 50.0353 130.425 51.457C129.552 52.4141 128.464 52.9431 127.16 53.044C125.883 53.1436 124.527 52.7077 123.092 51.7362C123.948 52.7479 124.407 53.7579 124.467 54.7662C124.554 55.7732 124.34 56.8278 123.825 57.9301L121.709 62.4969L118.328 59.4183L120.172 55.5314C121.131 53.5188 120.899 51.8648 119.476 50.5692L116.982 48.2988L112.053 53.7037L108.672 50.6251ZM119.582 45.4485L122.752 48.3347C124.414 49.8483 125.785 50.014 126.863 48.8316C127.954 47.6352 127.669 46.2802 126.006 44.7666L122.837 41.8804L119.582 45.4485Z" fill="#D4D4D4"/>
<path d="M126.372 68.1774L138.63 58.1559L134.43 53.0269L137.55 50.4763L148.901 64.338L145.782 66.8885L141.581 61.7595L129.323 71.7809L126.372 68.1774Z" fill="#D4D4D4"/>
<path d="M138.76 85.0633L156.12 75.4043L160.432 83.1408C161.656 85.3369 162.118 87.2814 161.818 88.9742C161.527 90.6835 160.441 92.0617 158.559 93.1087C156.694 94.1464 154.958 94.3387 153.351 93.6856C151.752 93.049 150.341 91.6327 149.117 89.4365L147.072 85.7679L141.028 89.1312L138.76 85.0633ZM150.569 83.8222L152.934 88.0648C153.36 88.8302 153.893 89.2967 154.532 89.4643C155.187 89.6227 155.807 89.5398 156.389 89.2155C156.972 88.8912 157.369 88.409 157.579 87.7688C157.79 87.1286 157.682 86.4258 157.255 85.6605L154.89 81.4179L150.569 83.8222Z" fill="#D4D4D4"/>
<path d="M146.76 99.4924L164.982 91.5765L168.812 100.379C169.641 102.282 169.859 104.025 169.467 105.608C169.1 107.2 168.033 108.379 166.268 109.146C165.079 109.663 163.869 109.7 162.638 109.259C161.432 108.828 160.374 107.876 159.462 106.403C159.83 107.676 159.834 108.785 159.476 109.73C159.143 110.684 158.516 111.559 157.594 112.354L153.793 115.656L151.97 111.464L155.243 108.671C156.943 107.227 157.409 105.623 156.641 103.859L155.296 100.768L148.584 103.684L146.76 99.4924ZM158.835 99.2305L160.545 103.16C161.442 105.221 162.625 105.932 164.093 105.294C165.579 104.649 165.873 103.296 164.976 101.235L163.266 97.3056L158.835 99.2305Z" fill="#D4D4D4"/>
<path d="M156.819 125.337C155.838 122.432 155.955 119.89 157.17 117.712C158.386 115.533 160.474 113.944 163.436 112.946C166.344 111.965 168.951 111.971 171.257 112.962C173.569 113.971 175.212 115.919 176.188 118.806C177.163 121.693 177.03 124.22 175.791 126.386C174.551 128.553 172.478 130.127 169.57 131.107C166.608 132.105 163.987 132.115 161.705 131.136C159.423 130.157 157.794 128.224 156.819 125.337ZM160.612 124.058C161.111 125.538 162.028 126.495 163.362 126.929C164.713 127.358 166.292 127.268 168.098 126.659C169.85 126.068 171.124 125.196 171.922 124.043C172.719 122.89 172.868 121.574 172.368 120.094C171.862 118.596 170.93 117.624 169.573 117.178C168.233 116.725 166.696 116.791 164.962 117.375C163.157 117.984 161.849 118.877 161.04 120.055C160.248 121.226 160.106 122.56 160.612 124.058Z" fill="#D4D4D4"/>
<path d="M160.889 137.051L180.1 131.979L184.11 147.141L180.212 148.17L177.393 137.51L173.772 138.466L176.306 148.049L172.409 149.078L169.875 139.495L162.08 141.553L160.889 137.051Z" fill="#D4D4D4"/>
<path d="M165.292 154.324L184.68 149.98L185.7 154.523L166.311 158.867L165.292 154.324Z" fill="#D4D4D4"/>
<path d="M167.11 162.385L186.628 158.664L187.501 163.237L171.971 166.198L173.879 176.187L169.891 176.948L167.11 162.385Z" fill="#D4D4D4"/>
<path d="M169.948 177.302L189.588 174.289L192 189.988L188.015 190.599L186.311 179.503L182.778 180.044L184.24 189.56L180.256 190.171L178.781 180.571L174.683 181.199L176.401 192.38L172.36 193L169.948 177.302Z" fill="#D4D4D4"/>
</svg>
